SplineFontDB: 3.2
FontName: Umpush-Bold
FullName: Umpush Bold
FamilyName: Umpush
Weight: Bold
Copyright: Copyright (c) 2003 NECTEC. All rights reserved.\nCopyright (c) 2007 Widhaya Trisarnwadhana. All rights reserved.\nModified under GNU General Public License by TLWG.
Version: 001.002
ItalicAngle: 0
UnderlinePosition: -170
UnderlineWidth: 10
Ascent: 1638
Descent: 410
InvalidEm: 0
LayerCount: 3
Layer: 0 0 "Back" 1
Layer: 1 0 "Fore" 0
Layer: 2 1 "Quad" 0
FSType: 0
OS2Version: 4
OS2_WeightWidthSlopeOnly: 0
OS2_UseTypoMetrics: 1
CreationTime: 1153662462
ModificationTime: 1587986474
PfmFamily: 33
TTFWeight: 700
TTFWidth: 5
LineGap: 0
VLineGap: 0
Panose: 2 11 6 4 2 2 2 2 2 4
OS2TypoAscent: 2741
OS2TypoAOffset: 0
OS2TypoDescent: -1312
OS2TypoDOffset: 0
OS2TypoLinegap: 0
OS2WinAscent: 0
OS2WinAOffset: 1
OS2WinDescent: 0
OS2WinDOffset: 1
HheadAscent: 0
HheadAOffset: 1
HheadDescent: 0
HheadDOffset: 1
OS2Vendor: 'PfEd'
Lookup: 4 0 1 "'liga' Standard Ligatures lookup 0" { "'liga' Standard Ligatures lookup 0"  } ['liga' ('latn' <'dflt' > ) ]
Lookup: 6 0 0 "'ccmp' Thai Tone Tilde Reordering" { "'ccmp' Thai Tone Tilde Reordering"  } ['ccmp' ('DFLT' <'dflt' > 'latn' <'dflt' > 'thai' <'KUY ' 'MLY ' 'PAL ' 'SAN ' 'THA ' 'dflt' > ) ]
Lookup: 6 0 0 "'ccmp' Thai Tone Macron Reordering" { "'ccmp' Thai Tone Macron Reordering"  } ['ccmp' ('DFLT' <'dflt' > 'latn' <'dflt' > 'thai' <'KUY ' 'MLY ' 'PAL ' 'SAN ' 'THA ' 'dflt' > ) ]
Lookup: 6 0 0 "'ccmp' Thai Below Vowel Macron Reordering" { "'ccmp' Thai Below Vowel Macron Reordering"  } ['ccmp' ('DFLT' <'dflt' > 'latn' <'dflt' > 'thai' <'KUY ' 'MLY ' 'PAL ' 'SAN ' 'THA ' 'dflt' > ) ]
Lookup: 4 0 0 "'ccmp' Patani Malay Ligatures" { "'ccmp' Patani Malay Ligatures"  } ['ccmp' ('DFLT' <'dflt' > 'thai' <'KUY ' 'MLY ' 'PAL ' 'SAN ' 'THA ' 'dflt' > ) ]
Lookup: 6 0 0 "'ccmp' Thai Conditional Descender Removal" { "'ccmp' Thai Conditional Descender Removal"  } ['ccmp' ('DFLT' <'dflt' > 'thai' <'KUY ' 'MLY ' 'THA ' 'dflt' > ) ]

StartChar: .notdef
Encoding: 65536 -1 0
Width: 1536
Flags: W
HStem: 0 32<288 1248> 1248 32<288 1248>
VStem: 256 32<32 1248> 1248 32<32 1248>
LayerCount: 3
Fore
SplineSet
256 0 m 1
 256 1280 l 1
 1280 1280 l 1
 1280 0 l 1
 256 0 l 1
288 32 m 1
 1248 32 l 1
 1248 1248 l 1
 288 1248 l 1
 288 32 l 1
EndSplineSet
Validated: 1
Layer: 2
SplineSet
256 0 m 1,0,-1
 256 1280 l 1,1,-1
 1280 1280 l 1,2,-1
 1280 0 l 1,3,-1
 256 0 l 1,0,-1
288 32 m 1,4,-1
 1248 32 l 1,5,-1
 1248 1248 l 1,6,-1
 288 1248 l 1,7,-1
 288 32 l 1,4,-1
EndSplineSet
EndChar

StartChar: uni0E4D.high
Encoding: 63262 63262 2
Width: 0
VWidth: 2558
Flags: W
HStem: 2106 72<-316.618 -185.931> 2334 74<-316.64 -183.467>
VStem: -399 69<2193.76 2319.61> -170 70<2194.38 2319.97>
AnchorPoint: "AboveMark" -249 2625 basemark 0
AnchorPoint: "AboveMark" -249 2120 mark 0
LayerCount: 3
Fore
SplineSet
-399 2255 m 0
 -399 2335 -336 2408 -248 2408 c 0
 -168 2408 -100 2344 -100 2255 c 0
 -100 2168 -173 2106 -248 2106 c 0
 -323 2106 -399 2166 -399 2255 c 0
-330 2255 m 0
 -330 2209 -288 2178 -250 2178 c 0
 -207 2178 -170 2218 -170 2255 c 0
 -170 2308 -214 2334 -249 2334 c 0
 -307 2334 -330 2287 -330 2255 c 0
EndSplineSet
Validated: 1
Layer: 2
SplineSet
-399 2255 m 0,0,1
 -399 2317 -399 2317 -355.5 2362.5 c 128,-1,2
 -312 2408 -312 2408 -248 2408 c 0,3,4
 -187 2408 -187 2408 -143.5 2364.5 c 128,-1,5
 -100 2321 -100 2321 -100 2255 c 0,6,7
 -100 2192 -100 2192 -145 2149 c 128,-1,8
 -190 2106 -190 2106 -248 2106 c 0,9,10
 -307 2106 -307 2106 -353 2148.5 c 128,-1,11
 -399 2191 -399 2191 -399 2255 c 0,0,1
-330 2255 m 0,12,13
 -330 2222 -330 2222 -305 2200 c 128,-1,14
 -280 2178 -280 2178 -250 2178 c 0,15,16
 -218 2178 -218 2178 -194 2202 c 128,-1,17
 -170 2226 -170 2226 -170 2255 c 0,18,19
 -170 2292 -170 2292 -194.5 2313 c 128,-1,20
 -219 2334 -219 2334 -249 2334 c 0,21,22
 -289 2334 -289 2334 -309.5 2309 c 128,-1,23
 -330 2284 -330 2284 -330 2255 c 0,12,13
EndSplineSet
EndChar

StartChar: exclam
Encoding: 33 33 5
Width: 569
Flags: W
HStem: 0 194<176 400> 1430 20G<168 408>
VStem: 168 240<0 194 792.431 1450>
LayerCount: 3
Fore
SplineSet
168 999 m 1
 168 1450 l 1
 408 1450 l 1
 408 999 l 1
 365 365 l 1
 212 365 l 1
 168 999 l 1
176 194 m 1
 400 194 l 1
 400 0 l 1
 176 0 l 1
 176 194 l 1
EndSplineSet
Validated: 1
Layer: 2
SplineSet
168 999 m 1,0,-1
 168 1450 l 1,1,-1
 408 1450 l 1,2,-1
 408 999 l 1,3,-1
 365 365 l 1,4,-1
 212 365 l 1,5,-1
 168 999 l 1,0,-1
176 194 m 1,6,-1
 400 194 l 1,7,-1
 400 0 l 1,8,-1
 176 0 l 1,9,-1
 176 194 l 1,6,-1
EndSplineSet
EndChar

StartChar: quotedbl
Encoding: 34 34 6
Width: 727
Flags: W
HStem: 947 503<156 291 437 572>
VStem: 106 230<1139.59 1450> 156 135<947 1024.41> 389 230<1136.36 1450> 437 135<947 1027.64>
LayerCount: 3
Fore
SplineSet
156 947 m 1xa0
 106 1217 l 1
 106 1450 l 1
 336 1450 l 1
 336 1217 l 1xc0
 291 947 l 1
 156 947 l 1xa0
437 947 m 1x88
 389 1217 l 1
 389 1450 l 1
 619 1450 l 1
 619 1217 l 1x90
 572 947 l 1
 437 947 l 1x88
EndSplineSet
Validated: 1
Layer: 2
SplineSet
156 947 m 1,0,-1
 106 1217 l 1,1,-1
 106 1450 l 1,2,-1
 336 1450 l 1,3,-1
 336 1217 l 1,4,-1
 291 947 l 1,5,-1
 156 947 l 1,0,-1
437 947 m 1,6,-1
 389 1217 l 1,7,-1
 389 1450 l 1,8,-1
 619 1450 l 1,9,-1
 619 1217 l 1,10,-1
 572 947 l 1,11,-1
 437 947 l 1,6,-1
EndSplineSet
EndChar

StartChar: numbersign
Encoding: 35 35 7
Width: 1139
Flags: W
HStem: -10 21G<57 301.16 516 767.053> 365 220<21 135 421 594 884 1113> 875 220<21 241 527 700 988 1113> 1450 20G<360.84 605 819.84 1064>
DStem2: 57 -10 297 -10 0.203743 0.979024<48.8983 383.026 656.682 903.925 1177.58 1511.71> 516 -10 763 -10 0.203743 0.979024<50.3245 383.026 657.497 903.925 1177.99 1511.71>
LayerCount: 3
Back
SplineSet
21 365 m 5
 21 585 l 5
 1113 585 l 5
 1113 365 l 5
 21 365 l 5
21 875 m 5
 21 1095 l 5
 1113 1095 l 5
 1113 875 l 5
 21 875 l 5
763 -10 m 5
 516 -10 l 5
 824 1470 l 5
 1064 1470 l 5
 763 -10 l 5
297 -10 m 5
 57 -10 l 5
 365 1470 l 5
 605 1470 l 5
 297 -10 l 5
EndSplineSet
Fore
SplineSet
297 -10 m 1
 57 -10 l 1
 135 365 l 1
 21 365 l 1
 21 585 l 1
 181 585 l 1
 241 875 l 1
 21 875 l 1
 21 1095 l 1
 287 1095 l 1
 365 1470 l 1
 605 1470 l 1
 527 1095 l 1
 746 1095 l 1
 824 1470 l 1
 1064 1470 l 1
 988 1095 l 1
 1113 1095 l 1
 1113 875 l 1
 943 875 l 1
 884 585 l 1
 1113 585 l 1
 1113 365 l 1
 839 365 l 1
 763 -10 l 1
 516 -10 l 1
 594 365 l 1
 375 365 l 1
 297 -10 l 1
700 875 m 1
 481 875 l 1
 421 585 l 1
 640 585 l 1
 700 875 l 1
EndSplineSet
Validated: 1
Layer: 2
SplineSet
297 -10 m 1,0,-1
 57 -10 l 1,1,-1
 135 365 l 1,2,-1
 21 365 l 1,3,-1
 21 585 l 1,4,-1
 181 585 l 1,5,-1
 241 875 l 1,6,-1
 21 875 l 1,7,-1
 21 1095 l 1,8,-1
 287 1095 l 1,9,-1
 365 1470 l 1,10,-1
 605 1470 l 1,11,-1
 527 1095 l 1,12,-1
 746 1095 l 1,13,-1
 824 1470 l 1,14,-1
 1064 1470 l 1,15,-1
 988 1095 l 1,16,-1
 1113 1095 l 1,17,-1
 1113 875 l 1,18,-1
 943 875 l 1,19,-1
 884 585 l 1,20,-1
 1113 585 l 1,21,-1
 1113 365 l 1,22,-1
 839 365 l 1,23,-1
 763 -10 l 1,24,-1
 516 -10 l 1,25,-1
 594 365 l 1,26,-1
 375 365 l 1,27,-1
 297 -10 l 1,0,-1
700 875 m 1,28,-1
 481 875 l 1,29,-1
 421 585 l 1,30,-1
 640 585 l 1,31,-1
 700 875 l 1,28,-1
EndSplineSet
EndChar

StartChar: dollar
Encoding: 36 36 8
Width: 1139
Flags: W
VStem: 76 240<268.968 417> 106 240<897.214 1162.88> 443 240<-137 -25.9358 198 582 859 1188 1419.25 1507> 768 240<1050 1156.14> 802 240<251.51 533.165>
LayerCount: 3
Back
SplineSet
563 603 m 4xea
 330 628 106 742 106 1031 c 7
 106 1285 267 1434 563 1434 c 7
 845 1434 991 1317 1008 1050 c 5
 768 1050 l 5
 762 1127 713 1214 563 1214 c 7
 397 1214 346 1156 346 999 c 7xdc
 346 887 450 841 563 829 c 4
 728 812 1042 765 1042 397 c 7
 1042 121 865 -42 563 -42 c 7
 251 -42 81 108 76 417 c 5
 316 417 l 5
 316 263 399 178 563 178 c 7
 713 178 802 246 802 386 c 7
 802 562 714 587 563 603 c 4xea
683 -137 m 5
 443 -137 l 5
 443 1507 l 5
 683 1507 l 5
 683 -137 l 5
EndSplineSet
Fore
SplineSet
683 -137 m 1x28
 443 -137 l 1
 443 -34 l 1
 208 2 80 150 76 417 c 1
 316 417 l 1xa8
 316 307 359 232 443 198 c 1
 443 625 l 1
 259 673 106 792 106 1031 c 3
 106 1248 224 1389 443 1425 c 1
 443 1507 l 1
 683 1507 l 1
 683 1426 l 1
 887 1395 994 1276 1008 1050 c 1
 768 1050 l 1x70
 764 1101 741 1156 683 1188 c 1
 683 811 l 1
 847 777 1042 687 1042 397 c 3
 1042 160 911 7 683 -32 c 1
 683 -137 l 1x28
683 582 m 1
 683 197 l 1
 759 226 802 289 802 386 c 3
 802 508 760 558 683 582 c 1
443 859 m 1
 443 1197 l 1
 371 1170 346 1109 346 999 c 3x60
 346 930 386 885 443 859 c 1
EndSplineSet
Validated: 1
Layer: 2
SplineSet
683 -137 m 1,0,-1
 443 -137 l 1,1,-1
 443 -34 l 1,2,3
 82 21 82 21 76 417 c 1,4,-1
 316 417 l 1,5,6
 316 249 316 249 443 198 c 1,7,-1
 443 625 l 1,8,9
 291 665 291 665 198.5 764 c 128,-1,10
 106 863 106 863 106 1031 c 0,11,12
 106 1194 106 1194 192.5 1296 c 128,-1,13
 279 1398 279 1398 443 1425 c 1,14,-1
 443 1507 l 1,15,-1
 683 1507 l 1,16,-1
 683 1426 l 1,17,18
 837 1403 837 1403 917.5 1311 c 128,-1,19
 998 1219 998 1219 1008 1050 c 1,20,-1
 768 1050 l 1,21,22
 761 1145 761 1145 683 1188 c 1,23,-1
 683 811 l 1,24,25
 1042 737 1042 737 1042 397 c 0,26,27
 1042 220 1042 220 948.5 108.5 c 128,-1,28
 855 -3 855 -3 683 -32 c 1,29,-1
 683 -137 l 1,0,-1
683 582 m 1,30,-1
 683 197 l 1,31,32
 802 242 802 242 802 386 c 0,33,34
 802 474 802 474 773 518.5 c 128,-1,35
 744 563 744 563 683 582 c 1,30,-1
443 859 m 1,36,-1
 443 1197 l 1,37,38
 390 1177 390 1177 368 1130 c 128,-1,39
 346 1083 346 1083 346 999 c 0,40,41
 346 903 346 903 443 859 c 1,36,-1
EndSplineSet
EndChar

StartChar: percent
Encoding: 37 37 9
Width: 1821
Flags: W
HStem: -55 172<1297.85 1464.15> -10 21G<411 698.113> 548 172<1297.85 1464.15> 716 172<348.854 515.146> 1319 172<348.854 515.146>
VStem: 119 191<926.891 1280.7> 554 191<926.891 1280.7> 1068 191<155.891 509.704> 1503 191<155.891 509.704>
DStem2: 411 -10 688 -10 0.451252 0.892397<124.997 1681.99>
LayerCount: 3
Fore
SplineSet
1381 -55 m 3xaf80
 1173 -55 1068 105 1068 333 c 3
 1068 561 1173 720 1381 720 c 3
 1589 720 1694 561 1694 333 c 3
 1694 105 1589 -55 1381 -55 c 3xaf80
1503 333 m 3
 1503 485 1455 548 1381 548 c 3
 1307 548 1259 485 1259 333 c 3
 1259 181 1307 117 1381 117 c 3
 1455 117 1503 181 1503 333 c 3
432 716 m 3x1f80
 224 716 119 876 119 1104 c 3
 119 1332 224 1491 432 1491 c 3
 640 1491 745 1332 745 1104 c 3
 745 876 640 716 432 716 c 3x1f80
554 1104 m 3
 554 1256 506 1319 432 1319 c 3
 358 1319 310 1256 310 1104 c 3
 310 952 358 888 432 888 c 3
 506 888 554 952 554 1104 c 3
1170 1491 m 1
 1447 1491 l 1
 688 -10 l 1
 411 -10 l 1x4f80
 1170 1491 l 1
EndSplineSet
Validated: 1
Layer: 2
SplineSet
1381 -55 m 131,-1,1
 1229 -55 1229 -55 1148.5 50.5 c 128,-1,2
 1068 156 1068 156 1068 333 c 0,3,4
 1068 509 1068 509 1148.5 614.5 c 128,-1,5
 1229 720 1229 720 1381 720 c 128,-1,6
 1533 720 1533 720 1613.5 614.5 c 128,-1,7
 1694 509 1694 509 1694 333 c 0,8,9
 1694 156 1694 156 1613.5 50.5 c 128,-1,0
 1533 -55 1533 -55 1381 -55 c 131,-1,1
1503 333 m 3,10,11
 1503 548 1503 548 1381 548 c 128,-1,12
 1259 548 1259 548 1259 333 c 0,13,14
 1259 117 1259 117 1381 117 c 128,-1,15
 1503 117 1503 117 1503 333 c 3,10,11
432 716 m 131,-1,17
 280 716 280 716 199.5 821.5 c 128,-1,18
 119 927 119 927 119 1104 c 0,19,20
 119 1280 119 1280 199.5 1385.5 c 128,-1,21
 280 1491 280 1491 432 1491 c 128,-1,22
 584 1491 584 1491 664.5 1385.5 c 128,-1,23
 745 1280 745 1280 745 1104 c 0,24,25
 745 927 745 927 664.5 821.5 c 128,-1,16
 584 716 584 716 432 716 c 131,-1,17
554 1104 m 3,26,27
 554 1319 554 1319 432 1319 c 128,-1,28
 310 1319 310 1319 310 1104 c 0,29,30
 310 888 310 888 432 888 c 128,-1,31
 554 888 554 888 554 1104 c 3,26,27
1170 1491 m 1,32,-1
 1447 1491 l 1,33,-1
 688 -10 l 1,34,-1
 411 -10 l 1,35,-1
 1170 1491 l 1,32,-1
EndSplineSet
EndChar

StartChar: ampersand
Encoding: 38 38 10
Width: 1366
Flags: W
HStem: -13 220<408.135 722.582> 1262 220<534.363 714.067>
VStem: 88 240<291.474 529.511> 272 240<1039.52 1238.7> 737 240<1037.15 1237.93>
LayerCount: 3
Fore
SplineSet
977 1169 m 3xd8
 977 1007 873 894 720 812 c 1
 926 522 l 1
 956 579 979 648 995 727 c 1
 1221 649 l 1
 1192 540 1150 442 1095 357 c 1
 1162 270 1238 195 1324 132 c 1
 1173 -67 l 1
 1101 -19 1026 50 948 140 c 1
 925 115 794 -13 576 -13 c 3
 214 -13 88 233 88 403 c 3xe8
 88 593 194 743 407 843 c 1
 325 940 272 1026 272 1154 c 3
 272 1342 429 1482 637 1482 c 3
 820 1482 977 1355 977 1169 c 3xd8
627 1262 m 3
 566 1262 512 1220 512 1151 c 3xd8
 512 1105 544 1043 609 974 c 1
 687 1014 737 1071 737 1155 c 3
 737 1200 700 1262 627 1262 c 3
328 411 m 3xe8
 328 361 370 207 540 207 c 3
 639 207 751 239 800 326 c 1
 530 662 l 1
 400 585 328 500 328 411 c 3xe8
EndSplineSet
Validated: 1
Layer: 2
SplineSet
977 1169 m 3,0,1
 977 950 977 950 720 812 c 1,2,-1
 926 522 l 1,3,4
 971 607 971 607 995 727 c 1,5,-1
 1221 649 l 1,6,7
 1177 484 1177 484 1095 357 c 1,8,9
 1196 226 1196 226 1324 132 c 1,10,-1
 1173 -67 l 1,11,12
 1065 5 1065 5 948 140 c 1,13,14
 933 124 933 124 908.5 104.5 c 128,-1,15
 884 85 884 85 837 55.5 c 128,-1,16
 790 26 790 26 721 6.5 c 128,-1,17
 652 -13 652 -13 576 -13 c 0,18,19
 472 -13 472 -13 387 14 c 128,-1,20
 302 41 302 41 247.5 84 c 128,-1,21
 193 127 193 127 156 183 c 128,-1,22
 119 239 119 239 103.5 294 c 128,-1,23
 88 349 88 349 88 403 c 0,24,25
 88 693 88 693 407 843 c 1,26,27
 339 924 339 924 305.5 994 c 128,-1,28
 272 1064 272 1064 272 1154 c 0,29,30
 272 1295 272 1295 376.5 1388.5 c 128,-1,31
 481 1482 481 1482 637 1482 c 0,32,33
 778 1482 778 1482 877.5 1394 c 128,-1,34
 977 1306 977 1306 977 1169 c 3,0,1
627 1262 m 3,35,36
 579 1262 579 1262 545.5 1231.5 c 128,-1,37
 512 1201 512 1201 512 1151 c 0,38,39
 512 1077 512 1077 609 974 c 1,40,41
 737 1040 737 1040 737 1155 c 0,42,43
 737 1194 737 1194 707.5 1228 c 128,-1,44
 678 1262 678 1262 627 1262 c 3,35,36
328 411 m 3,45,46
 328 394 328 394 333.5 370.5 c 128,-1,47
 339 347 339 347 354 317.5 c 128,-1,48
 369 288 369 288 391.5 264 c 128,-1,49
 414 240 414 240 453 223.5 c 128,-1,50
 492 207 492 207 540 207 c 0,51,52
 623 207 623 207 694.5 236 c 128,-1,53
 766 265 766 265 800 326 c 1,54,-1
 530 662 l 1,55,56
 328 542 328 542 328 411 c 3,45,46
EndSplineSet
EndChar

StartChar: quotesingle
Encoding: 39 39 11
Width: 391
Flags: W
HStem: 947 519<107 276>
VStem: 61 263<1139.17 1466> 107 169<947 1028.83>
LayerCount: 3
Fore
SplineSet
107 947 m 1xa0
 61 1221 l 1
 61 1466 l 1
 324 1466 l 1
 324 1221 l 1xc0
 276 947 l 1
 107 947 l 1xa0
EndSplineSet
Validated: 1
Layer: 2
SplineSet
107 947 m 1,0,-1
 61 1221 l 1,1,-1
 61 1466 l 1,2,-1
 324 1466 l 1,3,-1
 324 1221 l 1,4,-1
 276 947 l 1,5,-1
 107 947 l 1,0,-1
EndSplineSet
EndChar

StartChar: parenleft
Encoding: 40 40 12
Width: 682
Flags: W
VStem: 81 276<200.379 880.853>
LayerCount: 3
Fore
SplineSet
656 1491 m 1
 492 1212 357 980 357 530 c 3
 357 209 457 -111 656 -431 c 1
 436 -431 l 1
 253 -199 81 148 81 531 c 3
 81 918 217 1198 436 1491 c 1
 656 1491 l 1
EndSplineSet
Validated: 1
Layer: 2
SplineSet
656 1491 m 1,0,1
 603 1401 603 1401 576 1352 c 128,-1,2
 549 1303 549 1303 507 1220 c 128,-1,3
 465 1137 465 1137 443.5 1072 c 128,-1,4
 422 1007 422 1007 399 919.5 c 128,-1,5
 376 832 376 832 366.5 736 c 128,-1,6
 357 640 357 640 357 530 c 0,7,8
 357 50 357 50 656 -431 c 1,9,-1
 436 -431 l 1,10,11
 282 -236 282 -236 181.5 14 c 128,-1,12
 81 264 81 264 81 531 c 0,13,14
 81 805 81 805 169.5 1029 c 128,-1,15
 258 1253 258 1253 436 1491 c 1,16,-1
 656 1491 l 1,0,1
EndSplineSet
EndChar

StartChar: parenright
Encoding: 41 41 13
Width: 682
Flags: W
VStem: 325 276<200.379 880.853>
LayerCount: 3
Fore
SplineSet
26 1491 m 1
 246 1491 l 1
 465 1198 601 918 601 531 c 3
 601 148 429 -199 246 -431 c 1
 26 -431 l 1
 225 -111 325 209 325 530 c 3
 325 980 190 1212 26 1491 c 1
EndSplineSet
Validated: 1
Layer: 2
SplineSet
26 1491 m 1,0,-1
 246 1491 l 1,1,2
 424 1253 424 1253 512.5 1029 c 128,-1,3
 601 805 601 805 601 531 c 0,4,5
 601 264 601 264 500.5 14 c 128,-1,6
 400 -236 400 -236 246 -431 c 1,7,-1
 26 -431 l 1,8,9
 325 50 325 50 325 530 c 0,10,11
 325 640 325 640 315.5 736 c 128,-1,12
 306 832 306 832 283 919.5 c 128,-1,13
 260 1007 260 1007 238.5 1072 c 128,-1,14
 217 1137 217 1137 175 1220 c 128,-1,15
 133 1303 133 1303 106 1352 c 128,-1,16
 79 1401 79 1401 26 1491 c 1,0,-1
EndSplineSet
EndChar

StartChar: asterisk
Encoding: 42 42 14
Width: 797
Flags: W
HStem: 862 629
VStem: 310 164<1284 1491>
LayerCount: 3
Fore
SplineSet
478 1491 m 1
 478 1416 478 1361 474 1284 c 1
 533 1316 610 1335 677 1357 c 1
 719 1176 l 1
 653 1161 582 1149 513 1136 c 1
 536 1115 584 1059 658 968 c 1
 507 862 l 1
 461 915 424 981 392 1041 c 1
 360 981 323 915 277 862 c 1
 126 968 l 1
 200 1059 248 1115 271 1136 c 1
 202 1149 131 1161 65 1176 c 1
 107 1357 l 1
 174 1335 251 1316 310 1284 c 1
 306 1361 306 1416 306 1491 c 1
 478 1491 l 1
EndSplineSet
Validated: 1
Layer: 2
SplineSet
478 1491 m 1,0,1
 478 1361 478 1361 474 1284 c 1,2,3
 501 1298 501 1298 531.5 1310 c 128,-1,4
 562 1322 562 1322 614.5 1338 c 128,-1,5
 667 1354 667 1354 677 1357 c 1,6,-1
 719 1176 l 1,7,8
 688 1169 688 1169 513 1136 c 1,9,10
 546 1106 546 1106 658 968 c 1,11,-1
 507 862 l 1,12,13
 456 920 456 920 392 1041 c 1,14,15
 328 920 328 920 277 862 c 1,16,-1
 126 968 l 1,17,18
 238 1106 238 1106 271 1136 c 1,19,20
 96 1169 96 1169 65 1176 c 1,21,-1
 107 1357 l 1,22,23
 124 1352 124 1352 157.5 1341.5 c 128,-1,24
 191 1331 191 1331 212.5 1324 c 128,-1,25
 234 1317 234 1317 261.5 1306 c 128,-1,26
 289 1295 289 1295 310 1284 c 1,27,28
 306 1361 306 1361 306 1491 c 1,29,-1
 478 1491 l 1,0,1
EndSplineSet
EndChar

StartChar: plus
Encoding: 43 43 15
Width: 1196
Flags: W
HStem: 614 220<114 478 718 1082>
VStem: 478 240<237 614 834 1206>
LayerCount: 3
Fore
SplineSet
478 237 m 1
 478 614 l 1
 114 614 l 1
 114 834 l 1
 478 834 l 1
 478 1206 l 1
 718 1206 l 1
 718 834 l 1
 1082 834 l 1
 1082 614 l 1
 718 614 l 1
 718 237 l 1
 478 237 l 1
EndSplineSet
Validated: 1
Layer: 2
SplineSet
478 237 m 1,0,-1
 478 614 l 1,1,-1
 114 614 l 1,2,-1
 114 834 l 1,3,-1
 478 834 l 1,4,-1
 478 1206 l 1,5,-1
 718 1206 l 1,6,-1
 718 834 l 1,7,-1
 1082 834 l 1,8,-1
 1082 614 l 1,9,-1
 718 614 l 1,10,-1
 718 237 l 1,11,-1
 478 237 l 1,0,-1
EndSplineSet
EndChar

StartChar: comma
Encoding: 44 44 16
Width: 569
Flags: W
HStem: -22 253<122 244>
VStem: 122 297<-22 231> 244 175<-135.047 -22>
LayerCount: 3
Fore
SplineSet
122 -22 m 1xc0
 122 231 l 1
 419 231 l 1
 419 -22 l 2xc0
 419 -201 354 -258 268 -300 c 1
 111 -207 l 1
 219 -159 242 -65 244 -22 c 1xa0
 122 -22 l 1xc0
EndSplineSet
Validated: 1
Layer: 2
SplineSet
122 -22 m 1,0,-1
 122 231 l 1,1,-1
 419 231 l 1,2,-1
 419 -22 l 2,3,4
 419 -87 419 -87 408 -134.5 c 128,-1,5
 397 -182 397 -182 375 -213 c 128,-1,6
 353 -244 353 -244 328.5 -263 c 128,-1,7
 304 -282 304 -282 268 -300 c 1,8,-1
 111 -207 l 1,9,10
 161 -185 161 -185 192.5 -146.5 c 128,-1,11
 224 -108 224 -108 233.5 -78.5 c 128,-1,12
 243 -49 243 -49 244 -22 c 1,13,-1
 122 -22 l 1,0,-1
EndSplineSet
EndChar

StartChar: hyphen
Encoding: 45 45 17
Width: 682
Flags: W
HStem: 411 220<65 618>
VStem: 65 553<411 631>
LayerCount: 3
Fore
SplineSet
65 411 m 1
 65 631 l 1
 618 631 l 1
 618 411 l 1
 65 411 l 1
EndSplineSet
Validated: 1
Layer: 2
SplineSet
65 411 m 1,0,-1
 65 631 l 1,1,-1
 618 631 l 1,2,-1
 618 411 l 1,3,-1
 65 411 l 1,0,-1
EndSplineSet
EndChar

StartChar: period
Encoding: 46 46 18
Width: 569
Flags: W
HStem: 0 220<154 430>
VStem: 154 276<0 220>
LayerCount: 3
Fore
SplineSet
154 0 m 1
 154 220 l 1
 430 220 l 1
 430 0 l 1
 154 0 l 1
EndSplineSet
Validated: 1
Layer: 2
SplineSet
154 0 m 1,0,-1
 154 220 l 1,1,-1
 430 220 l 1,2,-1
 430 0 l 1,3,-1
 154 0 l 1,0,-1
EndSplineSet
EndChar

StartChar: slash
Encoding: 47 47 19
Width: 595
Flags: W
HStem: -10 21G<-110 137.919> 1450 20G<468.081 716>
DStem2: -110 -10 130 -10 0.368139 0.929771<88.3534 1591.79>
LayerCount: 3
Fore
SplineSet
-110 -10 m 1
 476 1470 l 1
 716 1470 l 1
 130 -10 l 1
 -110 -10 l 1
EndSplineSet
Validated: 1
Layer: 2
SplineSet
-110 -10 m 1,0,-1
 476 1470 l 1,1,-1
 716 1470 l 1,2,-1
 130 -10 l 1,3,-1
 -110 -10 l 1,0,-1
EndSplineSet
EndChar

StartChar: zero
Encoding: 48 48 20
Width: 1139
Flags: W
HStem: -13 220<440.894 679.872> 1262 220<440.894 679.872>
VStem: 86 240<369.753 1099.94> 800 240<374.393 1095.31>
LayerCount: 3
Fore
SplineSet
560 -13 m 3
 221 -13 86 272 86 735 c 3
 86 1198 221 1482 560 1482 c 3
 899 1482 1040 1198 1040 735 c 3
 1040 272 899 -13 560 -13 c 3
560 1262 m 3
 399 1262 326 1104 326 735 c 3
 326 366 399 207 560 207 c 3
 721 207 800 366 800 735 c 3
 800 1104 721 1262 560 1262 c 3
EndSplineSet
Validated: 1
Layer: 2
SplineSet
560 -13 m 3,0,1
 86 -13 86 -13 86 735 c 0,2,3
 86 1482 86 1482 560 1482 c 0,4,5
 1040 1482 1040 1482 1040 735 c 0,6,7
 1040 -13 1040 -13 560 -13 c 3,0,1
560 1262 m 3,8,9
 439 1262 439 1262 382.5 1136.5 c 128,-1,10
 326 1011 326 1011 326 735 c 128,-1,11
 326 459 326 459 382.5 333 c 128,-1,12
 439 207 439 207 560 207 c 0,13,14
 682 207 682 207 741 334 c 128,-1,15
 800 461 800 461 800 735 c 128,-1,16
 800 1009 800 1009 741 1135.5 c 128,-1,17
 682 1262 682 1262 560 1262 c 3,8,9
EndSplineSet
EndChar

StartChar: one
Encoding: 49 49 21
Width: 1139
Flags: W
HStem: 0 21G<523 763> 1452 20G<497 763>
VStem: 523 240<0 1045 1349.19 1472>
LayerCount: 3
Fore
SplineSet
223 1104 m 1
 389 1183 471 1274 523 1472 c 1
 763 1472 l 1
 763 0 l 1
 523 0 l 1
 523 1045 l 1
 403 908 283 858 223 844 c 1
 223 1104 l 1
EndSplineSet
Validated: 1
Layer: 2
SplineSet
223 1104 m 1,0,1
 350 1164 350 1164 417.5 1245 c 128,-1,2
 485 1326 485 1326 523 1472 c 1,3,-1
 763 1472 l 1,4,-1
 763 0 l 1,5,-1
 523 0 l 1,6,-1
 523 1045 l 1,7,8
 443 954 443 954 363 906 c 128,-1,9
 283 858 283 858 223 844 c 1,10,-1
 223 1104 l 1,0,1
EndSplineSet
EndChar

StartChar: two
Encoding: 50 50 22
Width: 1139
Flags: W
HStem: 0 220<382 1031> 1262 220<420.459 708.845>
VStem: 96 240<1039 1168.53> 791 240<919.12 1183.74>
LayerCount: 3
Fore
SplineSet
572 1482 m 3
 850 1482 1029 1315 1029 1075 c 3
 1029 689 554 481 382 220 c 1
 1031 220 l 1
 1031 0 l 1
 62 0 l 1
 77 186 185 355 280 450 c 0
 494 666 791 830 791 1079 c 3
 791 1190 675 1262 568 1262 c 3
 423 1262 343 1175 336 1039 c 1
 96 1039 l 1
 96 1307 284 1482 572 1482 c 3
EndSplineSet
Validated: 1
Layer: 2
SplineSet
572 1482 m 3,0,1
 779 1482 779 1482 904 1369 c 128,-1,2
 1029 1256 1029 1256 1029 1075 c 0,3,4
 1029 983 1029 983 992.5 895.5 c 128,-1,5
 956 808 956 808 900 740 c 128,-1,6
 844 672 844 672 769.5 600.5 c 128,-1,7
 695 529 695 529 626.5 472 c 128,-1,8
 558 415 558 415 489.5 347 c 128,-1,9
 421 279 421 279 382 220 c 1,10,-1
 1031 220 l 1,11,-1
 1031 0 l 1,12,-1
 62 0 l 1,13,14
 72 129 72 129 135.5 249 c 128,-1,15
 199 369 199 369 280 450 c 0,16,17
 331 502 331 502 413.5 572.5 c 128,-1,18
 496 643 496 643 554.5 695 c 128,-1,19
 613 747 613 747 671 810 c 128,-1,20
 729 873 729 873 760 940.5 c 128,-1,21
 791 1008 791 1008 791 1079 c 0,22,23
 791 1158 791 1158 722 1210 c 128,-1,24
 653 1262 653 1262 568 1262 c 0,25,26
 461 1262 461 1262 401 1202.5 c 128,-1,27
 341 1143 341 1143 336 1039 c 1,28,-1
 96 1039 l 1,29,30
 96 1240 96 1240 226 1361 c 128,-1,31
 356 1482 356 1482 572 1482 c 3,0,1
EndSplineSet
EndChar

StartChar: three
Encoding: 51 51 23
Width: 1139
Flags: W
HStem: -13 220<426.555 706.349> 665 220<441 654.684> 1070 21G<104 349.5> 1262 220<419.121 667.937>
VStem: 86 240<312.829 427> 104 240<1070 1185.43> 737 240<957.781 1195.21> 806 240<306.02 567.337>
LayerCount: 3
Fore
SplineSet
1046 449 m 3xf1
 1046 184 835 -13 552 -13 c 3
 299 -13 86 166 86 427 c 1
 326 427 l 1
 343 295 449 207 553 207 c 3
 717 207 806 317 806 445 c 3xf9
 806 576 688 665 537 665 c 3
 504 665 472 660 441 651 c 1
 441 885 l 1
 668 888 737 956 737 1105 c 3
 737 1190 633 1262 549 1262 c 3
 438 1262 355 1191 344 1070 c 1
 104 1070 l 1
 104 1305 296 1482 545 1482 c 3
 788 1482 977 1328 977 1101 c 3xf6
 977 930 928 838 812 794 c 1
 977 768 1046 645 1046 449 c 3xf1
EndSplineSet
Validated: 1
Layer: 2
SplineSet
1046 449 m 3,0,1
 1046 250 1046 250 905 118.5 c 128,-1,2
 764 -13 764 -13 552 -13 c 0,3,4
 426 -13 426 -13 319.5 42 c 128,-1,5
 213 97 213 97 149.5 198.5 c 128,-1,6
 86 300 86 300 86 427 c 1,7,-1
 326 427 l 1,8,9
 338 331 338 331 405 269 c 128,-1,10
 472 207 472 207 553 207 c 0,11,12
 671 207 671 207 738.5 275.5 c 128,-1,13
 806 344 806 344 806 445 c 0,14,15
 806 542 806 542 729 603.5 c 128,-1,16
 652 665 652 665 537 665 c 0,17,18
 489 665 489 665 441 651 c 1,19,-1
 441 885 l 1,20,21
 607 887 607 887 672 938.5 c 128,-1,22
 737 990 737 990 737 1105 c 0,23,24
 737 1166 737 1166 676 1214 c 128,-1,25
 615 1262 615 1262 549 1262 c 0,26,27
 464 1262 464 1262 408 1210.5 c 128,-1,28
 352 1159 352 1159 344 1070 c 1,29,-1
 104 1070 l 1,30,31
 104 1246 104 1246 231 1364 c 128,-1,32
 358 1482 358 1482 545 1482 c 0,33,34
 730 1482 730 1482 853.5 1375.5 c 128,-1,35
 977 1269 977 1269 977 1101 c 0,36,37
 977 973 977 973 938 900 c 128,-1,38
 899 827 899 827 812 794 c 1,39,40
 1046 757 1046 757 1046 449 c 3,0,1
EndSplineSet
EndChar

StartChar: four
Encoding: 52 52 24
Width: 1139
Flags: W
HStem: 0 21G<652 892> 327 220<321 652 892 1070> 1452 20G<639.114 892>
VStem: 652 240<0 327 547 1077>
DStem2: 56 547 321 547 0.54163 0.840617<143.532 768.339>
LayerCount: 3
Fore
SplineSet
652 0 m 1
 652 327 l 1
 56 327 l 1
 56 547 l 1
 652 1472 l 1
 892 1472 l 1
 892 547 l 1
 1070 547 l 1
 1070 327 l 1
 892 327 l 1
 892 0 l 1
 652 0 l 1
652 547 m 1
 652 1077 l 1
 321 547 l 1
 652 547 l 1
EndSplineSet
Validated: 1
Layer: 2
SplineSet
652 0 m 1,0,-1
 652 327 l 1,1,-1
 56 327 l 1,2,-1
 56 547 l 1,3,-1
 652 1472 l 1,4,-1
 892 1472 l 1,5,-1
 892 547 l 1,6,-1
 1070 547 l 1,7,-1
 1070 327 l 1,8,-1
 892 327 l 1,9,-1
 892 0 l 1,10,-1
 652 0 l 1,0,-1
652 547 m 1,11,-1
 652 1077 l 1,12,-1
 321 547 l 1,13,-1
 652 547 l 1,11,-1
EndSplineSet
EndChar

StartChar: five
Encoding: 53 53 25
Width: 1139
Flags: W
HStem: -13 220<407.012 705.638> 774 220<430.138 710.729> 1230 220<460 988>
VStem: 85 240<287.773 412> 817 240<323.312 667.18>
LayerCount: 3
Fore
SplineSet
1057 509 m 3
 1057 208 871 -13 556 -13 c 3
 272 -13 112 155 85 412 c 1
 325 412 l 1
 336 239 472 207 556 207 c 3
 718 207 817 323 817 493 c 3
 817 677 720 774 553 774 c 3
 458 774 409 745 355 683 c 1
 117 705 l 1
 259 1450 l 1
 988 1450 l 1
 988 1230 l 1
 460 1230 l 1
 404 937 l 1
 477 975 523 994 591 994 c 3
 881 994 1057 781 1057 509 c 3
EndSplineSet
Validated: 1
Layer: 2
SplineSet
1057 509 m 3,0,1
 1057 358 1057 358 998 240.5 c 128,-1,2
 939 123 939 123 824.5 55 c 128,-1,3
 710 -13 710 -13 556 -13 c 0,4,5
 348 -13 348 -13 227 100.5 c 128,-1,6
 106 214 106 214 85 412 c 1,7,-1
 325 412 l 1,8,9
 328 362 328 362 345.5 324.5 c 128,-1,10
 363 287 363 287 386.5 265 c 128,-1,11
 410 243 410 243 441.5 229.5 c 128,-1,12
 473 216 473 216 500.5 211.5 c 128,-1,13
 528 207 528 207 556 207 c 0,14,15
 676 207 676 207 746.5 285.5 c 128,-1,16
 817 364 817 364 817 493 c 0,17,18
 817 630 817 630 748 702 c 128,-1,19
 679 774 679 774 553 774 c 0,20,21
 484 774 484 774 440.5 753 c 128,-1,22
 397 732 397 732 355 683 c 1,23,-1
 117 705 l 1,24,-1
 259 1450 l 1,25,-1
 988 1450 l 1,26,-1
 988 1230 l 1,27,-1
 460 1230 l 1,28,-1
 404 937 l 1,29,30
 464 968 464 968 503.5 981 c 128,-1,31
 543 994 543 994 591 994 c 0,32,33
 697 994 697 994 785.5 956.5 c 128,-1,34
 874 919 874 919 933 853.5 c 128,-1,35
 992 788 992 788 1024.5 699.5 c 128,-1,36
 1057 611 1057 611 1057 509 c 3,0,1
EndSplineSet
EndChar

StartChar: six
Encoding: 54 54 26
Width: 1139
Flags: W
HStem: -13 220<446.366 713.584> 757 220<437.968 708.94> 1262 220<460.168 730.739>
VStem: 77 274<350.153 890.212> 77 240<858 1079.42> 806 240<308.722 651.161>
LayerCount: 3
Fore
SplineSet
77 701 m 3xf4
 77 1265 287 1482 603 1482 c 3
 837 1482 1019 1330 1019 1103 c 1
 806 1104 l 1
 771 1222 679 1262 600 1262 c 3
 422 1262 326 1112 317 858 c 1xec
 382 937 473 977 589 977 c 3
 860 977 1046 752 1046 479 c 3
 1046 208 875 -13 586 -13 c 3
 179 -13 77 352 77 701 c 3xf4
573 757 m 3
 435 757 351 653 351 489 c 3xf4
 351 335 429 207 579 207 c 3
 724 207 806 319 806 481 c 3
 806 637 724 757 573 757 c 3
EndSplineSet
Validated: 1
Layer: 2
SplineSet
77 701 m 3,0,1
 77 867 77 867 101.5 998.5 c 128,-1,2
 126 1130 126 1130 171 1220 c 128,-1,3
 216 1310 216 1310 281.5 1369 c 128,-1,4
 347 1428 347 1428 426.5 1455 c 128,-1,5
 506 1482 506 1482 603 1482 c 0,6,7
 781 1482 781 1482 900 1376.5 c 128,-1,8
 1019 1271 1019 1271 1019 1103 c 1,9,-1
 806 1104 l 1,10,11
 782 1186 782 1186 724.5 1224 c 128,-1,12
 667 1262 667 1262 600 1262 c 0,13,14
 468 1262 468 1262 396 1156.5 c 128,-1,15
 324 1051 324 1051 317 858 c 1,16,17
 415 977 415 977 589 977 c 0,18,19
 721 977 721 977 826.5 909.5 c 128,-1,20
 932 842 932 842 989 728.5 c 128,-1,21
 1046 615 1046 615 1046 479 c 0,22,23
 1046 342 1046 342 992 231.5 c 128,-1,24
 938 121 938 121 832 54 c 128,-1,25
 726 -13 726 -13 586 -13 c 0,26,27
 487 -13 487 -13 407 15 c 128,-1,28
 327 43 327 43 272.5 95 c 128,-1,29
 218 147 218 147 179 212.5 c 128,-1,30
 140 278 140 278 118 361 c 128,-1,31
 96 444 96 444 86.5 526.5 c 128,-1,32
 77 609 77 609 77 701 c 3,0,1
573 757 m 3,33,34
 470 757 470 757 410.5 684.5 c 128,-1,35
 351 612 351 612 351 489 c 0,36,37
 351 368 351 368 411 287.5 c 128,-1,38
 471 207 471 207 579 207 c 0,39,40
 686 207 686 207 746 282 c 128,-1,41
 806 357 806 357 806 481 c 0,42,43
 806 602 806 602 744.5 679.5 c 128,-1,44
 683 757 683 757 573 757 c 3,33,34
EndSplineSet
EndChar

StartChar: seven
Encoding: 55 55 27
Width: 1139
Flags: W
HStem: 0 21G<262 502> 1230 220<97 764>
VStem: 262 240<0 315.057>
LayerCount: 3
Fore
SplineSet
97 1230 m 1
 97 1450 l 1
 1046 1450 l 1
 1046 1230 l 1
 954 1136 728 856 666 692 c 0
 530 328 502 138 502 0 c 1
 262 0 l 1
 262 243 328 502 455 776 c 0
 506 885 631 1069 764 1230 c 1
 97 1230 l 1
EndSplineSet
Validated: 1
Layer: 2
SplineSet
97 1230 m 1,0,-1
 97 1450 l 1,1,-1
 1046 1450 l 1,2,-1
 1046 1230 l 1,3,4
 958 1140 958 1140 833 971 c 128,-1,5
 708 802 708 802 666 692 c 0,6,7
 502 253 502 253 502 0 c 1,8,-1
 262 0 l 1,9,10
 262 360 262 360 455 776 c 0,11,12
 493 858 493 858 578.5 984 c 128,-1,13
 664 1110 664 1110 764 1230 c 1,14,-1
 97 1230 l 1,0,-1
EndSplineSet
EndChar

StartChar: eight
Encoding: 56 56 28
Width: 1139
Flags: W
HStem: -13 220<414.214 717.786> 666 220<445.337 686.663> 1262 220<443.92 688.08>
VStem: 83 240<295.009 587.077> 143 240<946.257 1202.91> 749 240<946.257 1202.91> 809 240<295.009 587.077>
LayerCount: 3
Fore
SplineSet
566 -13 m 3xe2
 315 -13 83 138 83 434 c 3xf2
 83 642 187 749 359 794 c 1
 197 854 143 959 143 1077 c 3
 143 1318 322 1482 566 1482 c 3
 810 1482 989 1318 989 1077 c 3xec
 989 959 935 854 773 794 c 1
 945 749 1049 642 1049 434 c 3
 1049 138 817 -13 566 -13 c 3xe2
566 886 m 3
 680 886 749 966 749 1074 c 3
 749 1198 663 1262 566 1262 c 3
 469 1262 383 1198 383 1074 c 3xec
 383 966 452 886 566 886 c 3
566 207 m 3
 722 207 809 303 809 434 c 3
 809 587 723 666 566 666 c 3
 409 666 323 587 323 434 c 3xf2
 323 303 410 207 566 207 c 3
EndSplineSet
Validated: 1
Layer: 2
SplineSet
566 -13 m 131,-1,1
 470 -13 470 -13 384 16 c 128,-1,2
 298 45 298 45 230.5 99 c 128,-1,3
 163 153 163 153 123 240 c 128,-1,4
 83 327 83 327 83 434 c 0,5,6
 83 722 83 722 359 794 c 1,7,8
 143 874 143 874 143 1077 c 0,9,10
 143 1256 143 1256 262.5 1369 c 128,-1,11
 382 1482 382 1482 566 1482 c 128,-1,12
 750 1482 750 1482 869.5 1369 c 128,-1,13
 989 1256 989 1256 989 1077 c 0,14,15
 989 874 989 874 773 794 c 1,16,17
 1049 722 1049 722 1049 434 c 0,18,19
 1049 327 1049 327 1009 240 c 128,-1,20
 969 153 969 153 901.5 99 c 128,-1,21
 834 45 834 45 748 16 c 128,-1,0
 662 -13 662 -13 566 -13 c 131,-1,1
566 886 m 131,-1,23
 650 886 650 886 699.5 938.5 c 128,-1,24
 749 991 749 991 749 1074 c 0,25,26
 749 1163 749 1163 696 1212.5 c 128,-1,27
 643 1262 643 1262 566 1262 c 128,-1,28
 489 1262 489 1262 436 1212.5 c 128,-1,29
 383 1163 383 1163 383 1074 c 0,30,31
 383 991 383 991 432.5 938.5 c 128,-1,22
 482 886 482 886 566 886 c 131,-1,23
566 207 m 131,-1,33
 680 207 680 207 744.5 270 c 128,-1,34
 809 333 809 333 809 434 c 0,35,36
 809 548 809 548 746.5 607 c 128,-1,37
 684 666 684 666 566 666 c 128,-1,38
 448 666 448 666 385.5 607 c 128,-1,39
 323 548 323 548 323 434 c 0,40,41
 323 333 323 333 387.5 270 c 128,-1,32
 452 207 452 207 566 207 c 131,-1,33
EndSplineSet
EndChar

StartChar: nine
Encoding: 57 57 29
Width: 1139
Flags: W
HStem: -13 220<433.292 711.898> 495 220<448.015 716.834> 1262 220<448.689 710.971>
VStem: 113 240<820.274 1162.08> 129 240<267.183 369> 804 277<581.526 1118.4> 825 256<392.053 579>
LayerCount: 3
Fore
SplineSet
1081 771 m 3xf4
 1081 207 871 -13 555 -13 c 3
 310 -13 131 139 129 369 c 1
 369 369 l 1
 380 267 459 207 566 207 c 3
 773 207 815 358 825 579 c 1xea
 759 513 686 495 564 495 c 3
 301 495 113 704 113 981 c 3
 113 1273 298 1482 572 1482 c 3
 979 1482 1081 1119 1081 771 c 3xf4
584 715 m 3
 761 715 804 877 804 982 c 3
 804 1140 728 1262 579 1262 c 3
 431 1262 353 1144 353 991 c 3xf4
 353 822 444 715 584 715 c 3
EndSplineSet
Validated: 1
Layer: 2
SplineSet
1081 771 m 3,0,1
 1081 564 1081 564 1043.5 411.5 c 128,-1,2
 1006 259 1006 259 936 167 c 128,-1,3
 866 75 866 75 771 31 c 128,-1,4
 676 -13 676 -13 555 -13 c 0,5,6
 370 -13 370 -13 250 92.5 c 128,-1,7
 130 198 130 198 129 369 c 1,8,-1
 369 369 l 1,9,10
 377 293 377 293 431 250 c 128,-1,11
 485 207 485 207 566 207 c 0,12,13
 627 207 627 207 671.5 225 c 128,-1,14
 716 243 716 243 744 273.5 c 128,-1,15
 772 304 772 304 789.5 353.5 c 128,-1,16
 807 403 807 403 814.5 455 c 128,-1,17
 822 507 822 507 825 579 c 1,18,19
 777 531 777 531 718 513 c 128,-1,20
 659 495 659 495 564 495 c 0,21,22
 368 495 368 495 240.5 633.5 c 128,-1,23
 113 772 113 772 113 981 c 0,24,25
 113 1201 113 1201 240.5 1341.5 c 128,-1,26
 368 1482 368 1482 572 1482 c 0,27,28
 671 1482 671 1482 751 1454 c 128,-1,29
 831 1426 831 1426 885.5 1374.5 c 128,-1,30
 940 1323 940 1323 979 1257.5 c 128,-1,31
 1018 1192 1018 1192 1040 1109.5 c 128,-1,32
 1062 1027 1062 1027 1071.5 945 c 128,-1,33
 1081 863 1081 863 1081 771 c 3,0,1
584 715 m 3,34,35
 635 715 635 715 674.5 733 c 128,-1,36
 714 751 714 751 738 778.5 c 128,-1,37
 762 806 762 806 777.5 843 c 128,-1,38
 793 880 793 880 798.5 914 c 128,-1,39
 804 948 804 948 804 982 c 0,40,41
 804 1106 804 1106 745.5 1184 c 128,-1,42
 687 1262 687 1262 579 1262 c 0,43,44
 472 1262 472 1262 412.5 1186 c 128,-1,45
 353 1110 353 1110 353 991 c 0,46,47
 353 865 353 865 416 790 c 128,-1,48
 479 715 479 715 584 715 c 3,34,35
EndSplineSet
EndChar

StartChar: colon
Encoding: 58 58 30
Width: 569
Flags: W
HStem: 0 230<160 415> 832 230<160 415>
VStem: 160 255<0 230 832 1062>
LayerCount: 3
Fore
SplineSet
160 832 m 1
 160 1062 l 1
 415 1062 l 1
 415 832 l 1
 160 832 l 1
160 0 m 1
 160 230 l 1
 415 230 l 1
 415 0 l 1
 160 0 l 1
EndSplineSet
Validated: 1
Layer: 2
SplineSet
160 832 m 1,0,-1
 160 1062 l 1,1,-1
 415 1062 l 1,2,-1
 415 832 l 1,3,-1
 160 832 l 1,0,-1
160 0 m 1,4,-1
 160 230 l 1,5,-1
 415 230 l 1,6,-1
 415 0 l 1,7,-1
 160 0 l 1,4,-1
EndSplineSet
EndChar

StartChar: semicolon
Encoding: 59 59 31
Width: 569
Flags: W
HStem: 0 205<157 259> 832 230<157 412>
VStem: 157 255<0 205 832 1062> 259 153<-156.375 0>
LayerCount: 3
Fore
SplineSet
157 832 m 1xe0
 157 1062 l 1
 412 1062 l 1
 412 832 l 1
 157 832 l 1xe0
157 0 m 1
 157 205 l 1
 412 205 l 1
 412 0 l 2xe0
 412 -163 365 -262 270 -297 c 1
 145 -213 l 1
 215 -182 255 -120 259 0 c 1xd0
 157 0 l 1
EndSplineSet
Validated: 1
Layer: 2
SplineSet
157 832 m 1,0,-1
 157 1062 l 1,1,-1
 412 1062 l 1,2,-1
 412 832 l 1,3,-1
 157 832 l 1,0,-1
157 0 m 1,4,-1
 157 205 l 1,5,-1
 412 205 l 1,6,-1
 412 0 l 2,7,8
 412 -245 412 -245 270 -297 c 1,9,-1
 145 -213 l 1,10,11
 254 -165 254 -165 259 0 c 1,12,-1
 157 0 l 1,4,-1
EndSplineSet
EndChar

StartChar: less
Encoding: 60 60 32
Width: 1196
Flags: W
DStem2: 112 809 423 724 0.921242 0.38899<253.442 964.933> 423 724 112 641 0.919536 -0.393005<0 712.612>
LayerCount: 3
Fore
SplineSet
112 641 m 1
 112 809 l 1
 1083 1219 l 1
 1083 990 l 1
 423 724 l 1
 1083 455 l 1
 1083 226 l 1
 112 641 l 1
EndSplineSet
Validated: 1
Layer: 2
SplineSet
112 641 m 1,0,-1
 112 809 l 1,1,-1
 1083 1219 l 1,2,-1
 1083 990 l 1,3,-1
 423 724 l 1,4,-1
 1083 455 l 1,5,-1
 1083 226 l 1,6,-1
 112 641 l 1,0,-1
EndSplineSet
EndChar

StartChar: equal
Encoding: 61 61 33
Width: 1196
Flags: W
HStem: 416 220<114 1082> 811 220<114 1082>
LayerCount: 3
Fore
SplineSet
1082 811 m 1
 114 811 l 1
 114 1031 l 1
 1082 1031 l 1
 1082 811 l 1
1082 416 m 1
 114 416 l 1
 114 636 l 1
 1082 636 l 1
 1082 416 l 1
EndSplineSet
Validated: 1
Layer: 2
SplineSet
1082 811 m 1,0,-1
 114 811 l 1,1,-1
 114 1031 l 1,2,-1
 1082 1031 l 1,3,-1
 1082 811 l 1,0,-1
1082 416 m 1,4,-1
 114 416 l 1,5,-1
 114 636 l 1,6,-1
 1082 636 l 1,7,-1
 1082 416 l 1,4,-1
EndSplineSet
EndChar

StartChar: greater
Encoding: 62 62 34
Width: 1196
Flags: W
DStem2: 112 1219 112 990 0.921242 -0.38899<89.0787 780.302> 112 455 112 226 0.919536 0.393005<0 692.383>
LayerCount: 3
Fore
SplineSet
1083 641 m 1
 112 226 l 1
 112 455 l 1
 750 724 l 1
 112 990 l 1
 112 1219 l 1
 1083 809 l 1
 1083 641 l 1
EndSplineSet
Validated: 1
Layer: 2
SplineSet
1083 641 m 1,0,-1
 112 226 l 1,1,-1
 112 455 l 1,2,-1
 750 724 l 1,3,-1
 112 990 l 1,4,-1
 112 1219 l 1,5,-1
 1083 809 l 1,6,-1
 1083 641 l 1,0,-1
EndSplineSet
EndChar

StartChar: question
Encoding: 63 63 35
Width: 1139
Flags: W
HStem: 0 235<421 695> 1284 220<450.639 711.463>
VStem: 90 240<1046 1159.54> 421 274<0 235> 433 240<361 558.14> 796 240<945.121 1206.91>
LayerCount: 3
Fore
SplineSet
565 1504 m 3xec
 835 1504 1036 1340 1036 1084 c 3
 1036 1024 1023 924 895 782 c 0
 799 676 673 580 673 361 c 1
 433 361 l 1
 433 615 534 714 630 803 c 0
 784 946 796 1031 796 1088 c 3
 796 1243 642 1284 568 1284 c 3
 441 1284 330 1133 330 1046 c 1
 90 1046 l 1
 90 1300 293 1504 565 1504 c 3xec
421 0 m 1xf4
 421 235 l 1
 695 235 l 1
 695 0 l 1
 421 0 l 1xf4
EndSplineSet
Validated: 1
Layer: 2
SplineSet
565 1504 m 3,0,1
 771 1504 771 1504 903.5 1388.5 c 128,-1,2
 1036 1273 1036 1273 1036 1084 c 0,3,4
 1036 938 1036 938 895 782 c 0,5,6
 883 769 883 769 846.5 730.5 c 128,-1,7
 810 692 810 692 793.5 673.5 c 128,-1,8
 777 655 777 655 749 615 c 128,-1,9
 721 575 721 575 708 542.5 c 128,-1,10
 695 510 695 510 684 462 c 128,-1,11
 673 414 673 414 673 361 c 1,12,-1
 433 361 l 1,13,14
 433 434 433 434 445 496.5 c 128,-1,15
 457 559 457 559 473.5 600 c 128,-1,16
 490 641 490 641 520 682.5 c 128,-1,17
 550 724 550 724 571.5 746.5 c 128,-1,18
 593 769 593 769 630 803 c 0,19,20
 685 854 685 854 720.5 898.5 c 128,-1,21
 756 943 756 943 771 979 c 128,-1,22
 786 1015 786 1015 791 1038.5 c 128,-1,23
 796 1062 796 1062 796 1088 c 0,24,25
 796 1143 796 1143 771.5 1183.5 c 128,-1,26
 747 1224 747 1224 709 1244.5 c 128,-1,27
 671 1265 671 1265 635.5 1274.5 c 128,-1,28
 600 1284 600 1284 568 1284 c 0,29,30
 479 1284 479 1284 404.5 1201 c 128,-1,31
 330 1118 330 1118 330 1046 c 1,32,-1
 90 1046 l 1,33,34
 90 1172 90 1172 151.5 1277 c 128,-1,35
 213 1382 213 1382 322.5 1443 c 128,-1,36
 432 1504 432 1504 565 1504 c 3,0,1
421 0 m 1,37,-1
 421 235 l 1,38,-1
 695 235 l 1,39,-1
 695 0 l 1,40,-1
 421 0 l 1,37,-1
EndSplineSet
EndChar

StartChar: at
Encoding: 64 64 36
Width: 2079
Flags: W
HStem: -428 200<807.239 1436.19> -13 200<803.246 1037.65 1277 1538.16> 895 200<874.62 1141.24> 1042 20G<1304 1523> 1282 200<837.074 1343.44>
VStem: 111 220<212.779 746.234> 502 220<276.986 701.356> 1208 157<270 643> 1736 220<464.457 923.013>
LayerCount: 3
Fore
SplineSet
1354 -13 m 3xdf80
 1200 -13 1168 59 1161 121 c 1
 1090 28 987 -13 854 -13 c 3
 633 -13 502 199 502 461 c 3
 502 801 737 1095 1011 1095 c 3xef80
 1198 1095 1265 988 1278 938 c 1
 1309 1062 l 1
 1523 1062 l 1
 1380 379 l 2
 1374 350 1365 308 1365 270 c 3
 1365 225 1378 187 1422 187 c 3
 1609 187 1736 475 1736 716 c 3
 1736 1068 1413 1282 1100 1282 c 3
 545 1282 331 800 331 485 c 3
 331 174 490 -228 1120 -228 c 3
 1445 -228 1573 -142 1748 19 c 1
 2005 19 l 1
 1873 -253 1545 -428 1123 -428 c 3
 508 -428 111 -120 111 469 c 3
 111 1039 484 1482 1102 1482 c 3
 1590 1482 1956 1181 1956 713 c 3
 1956 355 1688 -13 1354 -13 c 3xdf80
722 474 m 3
 722 270 820 187 906 187 c 3
 1100 187 1208 422 1208 643 c 3
 1208 855 1103 895 1013 895 c 3
 810 895 722 664 722 474 c 3
EndSplineSet
Validated: 1
Layer: 2
SplineSet
1354 -13 m 3,0,1
 1299 -13 1299 -13 1260.5 -1.5 c 128,-1,2
 1222 10 1222 10 1202 31 c 128,-1,3
 1182 52 1182 52 1173 73 c 128,-1,4
 1164 94 1164 94 1161 121 c 1,5,6
 1059 -13 1059 -13 854 -13 c 0,7,8
 693 -13 693 -13 597.5 122.5 c 128,-1,9
 502 258 502 258 502 461 c 0,10,11
 502 628 502 628 571.5 774.5 c 128,-1,12
 641 921 641 921 759 1008 c 128,-1,13
 877 1095 877 1095 1011 1095 c 0,14,15
 1077 1095 1077 1095 1129 1078 c 128,-1,16
 1181 1061 1181 1061 1210.5 1034.5 c 128,-1,17
 1240 1008 1240 1008 1256 984 c 128,-1,18
 1272 960 1272 960 1278 938 c 1,19,-1
 1309 1062 l 1,20,-1
 1523 1062 l 1,21,-1
 1380 379 l 2,22,23
 1365 307 1365 307 1365 270 c 0,24,25
 1365 187 1365 187 1422 187 c 0,26,27
 1511 187 1511 187 1585 269.5 c 128,-1,28
 1659 352 1659 352 1697.5 472.5 c 128,-1,29
 1736 593 1736 593 1736 716 c 0,30,31
 1736 819 1736 819 1700 910 c 128,-1,32
 1664 1001 1664 1001 1602 1068 c 128,-1,33
 1540 1135 1540 1135 1459 1184 c 128,-1,34
 1378 1233 1378 1233 1286 1257.5 c 128,-1,35
 1194 1282 1194 1282 1100 1282 c 0,36,37
 941 1282 941 1282 808 1229 c 128,-1,38
 675 1176 675 1176 589 1092.5 c 128,-1,39
 503 1009 503 1009 443 901.5 c 128,-1,40
 383 794 383 794 357 689 c 128,-1,41
 331 584 331 584 331 485 c 0,42,43
 331 415 331 415 341.5 347.5 c 128,-1,44
 352 280 352 280 377.5 208 c 128,-1,45
 403 136 403 136 442.5 73.5 c 128,-1,46
 482 11 482 11 545 -45 c 128,-1,47
 608 -101 608 -101 688 -141 c 128,-1,48
 768 -181 768 -181 878.5 -204.5 c 128,-1,49
 989 -228 989 -228 1120 -228 c 0,50,51
 1239 -228 1239 -228 1328.5 -213.5 c 128,-1,52
 1418 -199 1418 -199 1492 -164 c 128,-1,53
 1566 -129 1566 -129 1620 -89 c 128,-1,54
 1674 -49 1674 -49 1748 19 c 1,55,-1
 2005 19 l 1,56,57
 1905 -187 1905 -187 1670.5 -307.5 c 128,-1,58
 1436 -428 1436 -428 1123 -428 c 0,59,60
 813 -428 813 -428 587.5 -327.5 c 128,-1,61
 362 -227 362 -227 236.5 -24 c 128,-1,62
 111 179 111 179 111 469 c 0,63,64
 111 639 111 639 154 793 c 128,-1,65
 197 947 197 947 282 1072.5 c 128,-1,66
 367 1198 367 1198 485.5 1289.5 c 128,-1,67
 604 1381 604 1381 762 1431.5 c 128,-1,68
 920 1482 920 1482 1102 1482 c 128,-1,69
 1284 1482 1284 1482 1441 1427 c 128,-1,70
 1598 1372 1598 1372 1712 1273.5 c 128,-1,71
 1826 1175 1826 1175 1891 1030 c 128,-1,72
 1956 885 1956 885 1956 713 c 0,73,74
 1956 580 1956 580 1908.5 448.5 c 128,-1,75
 1861 317 1861 317 1781 215.5 c 128,-1,76
 1701 114 1701 114 1588.5 50.5 c 128,-1,77
 1476 -13 1476 -13 1354 -13 c 3,0,1
722 474 m 3,78,79
 722 332 722 332 777.5 259.5 c 128,-1,80
 833 187 833 187 906 187 c 0,81,82
 999 187 999 187 1069.5 256 c 128,-1,83
 1140 325 1140 325 1174 427 c 128,-1,84
 1208 529 1208 529 1208 643 c 0,85,86
 1208 895 1208 895 1013 895 c 0,87,88
 940 895 940 895 882.5 856.5 c 128,-1,89
 825 818 825 818 791 755.5 c 128,-1,90
 757 693 757 693 739.5 620.5 c 128,-1,91
 722 548 722 548 722 474 c 3,78,79
EndSplineSet
EndChar

StartChar: A
Encoding: 65 65 37
Width: 1366
Flags: W
HStem: 0 21G<1 262.991 1101.01 1363> 433 220<516 848> 1430 20G<572.014 791.986>
DStem2: 1 0 255 0 0.370838 0.928697<94.193 560.474 797.421 1246.25> 784 1450 682 1070 0.370838 -0.928697<315.079 763.905 1000.85 1467.13>
LayerCount: 3
Back
SplineSet
633 1193 m 1
 784 1450 l 1
 1363 0 l 1
 1109 0 l 1
 633 1193 l 1
969 433 m 1
 396 433 l 1
 464 653 l 1
 901 653 l 1
 969 433 l 1
731 1193 m 1
 255 0 l 1
 1 0 l 1
 580 1450 l 1
 731 1193 l 1
EndSplineSet
Fore
SplineSet
516 653 m 1
 848 653 l 1
 682 1070 l 1
 516 653 l 1
784 1450 m 1
 1363 0 l 1
 1109 0 l 1
 936 433 l 1
 428 433 l 1
 255 0 l 1
 1 0 l 1
 580 1450 l 1
 784 1450 l 1
EndSplineSet
Validated: 1
Layer: 2
SplineSet
516 653 m 1,0,-1
 848 653 l 1,1,-1
 682 1070 l 1,2,-1
 516 653 l 1,0,-1
784 1450 m 1,3,-1
 1363 0 l 1,4,-1
 1109 0 l 1,5,-1
 936 433 l 1,6,-1
 428 433 l 1,7,-1
 255 0 l 1,8,-1
 1 0 l 1,9,-1
 580 1450 l 1,10,-1
 784 1450 l 1,3,-1
EndSplineSet
EndChar

StartChar: B
Encoding: 66 66 38
Width: 1366
Flags: W
HStem: 0 220<404 944.099> 626 220<404 872.596> 1230 220<404 898.281>
VStem: 164 240<220 626 846 1230> 946 240<912.523 1181.07> 1017 240<284.715 562.552>
LayerCount: 3
Fore
SplineSet
1186 1079 m 3xf8
 1186 843 1050 791 1021 772 c 1
 1178 726 1257 609 1257 421 c 3xf4
 1257 230 1165 0 709 0 c 2
 164 0 l 1
 164 1450 l 1
 700 1450 l 2
 990 1450 1186 1330 1186 1079 c 3xf8
404 846 m 1
 661 846 l 2
 871 846 946 905 946 1056 c 3xf8
 946 1210 866 1230 637 1230 c 2
 404 1230 l 1
 404 846 l 1
404 220 m 1
 709 220 l 2
 887 220 1017 240 1017 421 c 3xf4
 1017 595 920 626 683 626 c 2
 404 626 l 1
 404 220 l 1
EndSplineSet
Validated: 1
Layer: 2
SplineSet
1186 1079 m 3,0,1
 1186 1031 1186 1031 1179 989.5 c 128,-1,2
 1172 948 1172 948 1158 918 c 128,-1,3
 1144 888 1144 888 1130.5 865.5 c 128,-1,4
 1117 843 1117 843 1097.5 826 c 128,-1,5
 1078 809 1078 809 1067 800.5 c 128,-1,6
 1056 792 1056 792 1039 782.5 c 128,-1,7
 1022 773 1022 773 1021 772 c 1,8,9
 1257 703 1257 703 1257 421 c 0,10,11
 1257 369 1257 369 1247.5 323 c 128,-1,12
 1238 277 1238 277 1216.5 227.5 c 128,-1,13
 1195 178 1195 178 1153.5 138.5 c 128,-1,14
 1112 99 1112 99 1054 67 c 128,-1,15
 996 35 996 35 907.5 17.5 c 128,-1,16
 819 0 819 0 709 0 c 2,17,-1
 164 0 l 1,18,-1
 164 1450 l 1,19,-1
 700 1450 l 2,20,21
 925 1450 925 1450 1055.5 1356 c 128,-1,22
 1186 1262 1186 1262 1186 1079 c 3,0,1
404 846 m 1,23,-1
 661 846 l 2,24,25
 818 846 818 846 882 894 c 128,-1,26
 946 942 946 942 946 1056 c 0,27,28
 946 1103 946 1103 935 1133.5 c 128,-1,29
 924 1164 924 1164 904 1183.5 c 128,-1,30
 884 1203 884 1203 844 1213 c 128,-1,31
 804 1223 804 1223 758 1226.5 c 128,-1,32
 712 1230 712 1230 637 1230 c 2,33,-1
 404 1230 l 1,34,-1
 404 846 l 1,23,-1
404 220 m 1,35,-1
 709 220 l 2,36,37
 769 220 769 220 810 223.5 c 128,-1,38
 851 227 851 227 893.5 239 c 128,-1,39
 936 251 936 251 961 272 c 128,-1,40
 986 293 986 293 1001.5 330.5 c 128,-1,41
 1017 368 1017 368 1017 421 c 0,42,43
 1017 486 1017 486 999 526.5 c 128,-1,44
 981 567 981 567 937.5 589 c 128,-1,45
 894 611 894 611 836 618.5 c 128,-1,46
 778 626 778 626 683 626 c 2,47,-1
 404 626 l 1,48,-1
 404 220 l 1,35,-1
EndSplineSet
EndChar

StartChar: C
Encoding: 67 67 39
Width: 1479
Flags: W
HStem: -13 220<604.627 971.755> 1262 220<591.647 984.166>
VStem: 102 240<504.357 991.349> 1158 240<378.713 480>
LayerCount: 3
Fore
SplineSet
788 207 m 3
 967 207 1139 328 1158 480 c 1
 1398 480 l 1
 1327 201 1144 -13 791 -13 c 3
 356 -13 102 276 102 745 c 3
 102 1182 379 1482 794 1482 c 3
 1100 1482 1303 1304 1373 1050 c 1
 1133 1050 l 1
 1091 1182 965 1262 790 1262 c 3
 507 1262 342 1051 342 746 c 3
 342 438 528 207 788 207 c 3
EndSplineSet
Validated: 1
Layer: 2
SplineSet
788 207 m 3,0,1
 924 207 924 207 1034 287 c 128,-1,2
 1144 367 1144 367 1158 480 c 1,3,-1
 1398 480 l 1,4,5
 1370 372 1370 372 1322 285 c 128,-1,6
 1274 198 1274 198 1201 129.5 c 128,-1,7
 1128 61 1128 61 1024 24 c 128,-1,8
 920 -13 920 -13 791 -13 c 0,9,10
 466 -13 466 -13 284 189.5 c 128,-1,11
 102 392 102 392 102 745 c 0,12,13
 102 962 102 962 188 1129.5 c 128,-1,14
 274 1297 274 1297 431.5 1389.5 c 128,-1,15
 589 1482 589 1482 794 1482 c 0,16,17
 1017 1482 1017 1482 1168 1364.5 c 128,-1,18
 1319 1247 1319 1247 1373 1050 c 1,19,-1
 1133 1050 l 1,20,21
 1101 1149 1101 1149 1011 1205.5 c 128,-1,22
 921 1262 921 1262 790 1262 c 0,23,24
 581 1262 581 1262 461.5 1120.5 c 128,-1,25
 342 979 342 979 342 746 c 0,26,27
 342 514 342 514 468 360.5 c 128,-1,28
 594 207 594 207 788 207 c 3,0,1
EndSplineSet
EndChar

StartChar: D
Encoding: 68 68 40
Width: 1479
Flags: W
HStem: 0 220<408 882.346> 1230 220<408 887.357>
VStem: 168 240<220 1230> 1140 240<489.272 979.137>
LayerCount: 3
Fore
SplineSet
1380 733 m 3
 1380 147 1038 0 697 0 c 2
 168 0 l 1
 168 1450 l 1
 673 1450 l 2
 1239 1450 1380 1125 1380 733 c 3
675 220 m 2
 969 220 1140 424 1140 736 c 3
 1140 1053 970 1230 670 1230 c 2
 408 1230 l 1
 408 220 l 1
 675 220 l 2
EndSplineSet
Validated: 1
Layer: 2
SplineSet
1380 733 m 3,0,1
 1380 563 1380 563 1341 432.5 c 128,-1,2
 1302 302 1302 302 1238.5 221.5 c 128,-1,3
 1175 141 1175 141 1084 90 c 128,-1,4
 993 39 993 39 899.5 19.5 c 128,-1,5
 806 0 806 0 697 0 c 2,6,-1
 168 0 l 1,7,-1
 168 1450 l 1,8,-1
 673 1450 l 2,9,10
 792 1450 792 1450 890 1430.5 c 128,-1,11
 988 1411 988 1411 1060.5 1376.5 c 128,-1,12
 1133 1342 1133 1342 1188.5 1291 c 128,-1,13
 1244 1240 1244 1240 1280 1180 c 128,-1,14
 1316 1120 1316 1120 1338.5 1046 c 128,-1,15
 1361 972 1361 972 1370.5 896.5 c 128,-1,16
 1380 821 1380 821 1380 733 c 3,0,1
675 220 m 2,17,18
 893 220 893 220 1016.5 359.5 c 128,-1,19
 1140 499 1140 499 1140 736 c 128,-1,20
 1140 973 1140 973 1017.5 1101.5 c 128,-1,21
 895 1230 895 1230 670 1230 c 2,22,-1
 408 1230 l 1,23,-1
 408 220 l 1,24,-1
 675 220 l 2,17,18
EndSplineSet
EndChar

StartChar: E
Encoding: 69 69 41
Width: 1320
Flags: W
HStem: 0 220<407 1227> 626 220<407 1026> 1230 220<407 1227>
VStem: 167 240<220 626 846 1230>
LayerCount: 3
Fore
SplineSet
167 0 m 1
 167 1450 l 1
 1227 1450 l 1
 1227 1230 l 1
 407 1230 l 1
 407 846 l 1
 1026 846 l 1
 1026 626 l 1
 407 626 l 1
 407 220 l 1
 1227 220 l 1
 1227 0 l 1
 167 0 l 1
EndSplineSet
Validated: 1
Layer: 2
SplineSet
167 0 m 1,0,-1
 167 1450 l 1,1,-1
 1227 1450 l 1,2,-1
 1227 1230 l 1,3,-1
 407 1230 l 1,4,-1
 407 846 l 1,5,-1
 1026 846 l 1,6,-1
 1026 626 l 1,7,-1
 407 626 l 1,8,-1
 407 220 l 1,9,-1
 1227 220 l 1,10,-1
 1227 0 l 1,11,-1
 167 0 l 1,0,-1
EndSplineSet
EndChar

StartChar: F
Encoding: 70 70 42
Width: 1251
Flags: W
HStem: 0 21G<167 407> 626 220<407 1008> 1230 220<407 1158>
VStem: 167 240<0 626 846 1230>
LayerCount: 3
Fore
SplineSet
167 0 m 1
 167 1450 l 1
 1158 1450 l 1
 1158 1230 l 1
 407 1230 l 1
 407 846 l 1
 1008 846 l 1
 1008 626 l 1
 407 626 l 1
 407 0 l 1
 167 0 l 1
EndSplineSet
Validated: 1
Layer: 2
SplineSet
167 0 m 1,0,-1
 167 1450 l 1,1,-1
 1158 1450 l 1,2,-1
 1158 1230 l 1,3,-1
 407 1230 l 1,4,-1
 407 846 l 1,5,-1
 1008 846 l 1,6,-1
 1008 626 l 1,7,-1
 407 626 l 1,8,-1
 407 0 l 1,9,-1
 167 0 l 1,0,-1
EndSplineSet
EndChar

StartChar: G
Encoding: 71 71 43
Width: 1479
Flags: W
HStem: -13 220<600.796 1016.12> 464 220<905 1164> 1262 220<608.129 960.561>
VStem: 102 240<504.027 969.608> 1164 242<342.641 464>
LayerCount: 3
Fore
SplineSet
342 746 m 3
 342 448 513 207 788 207 c 3
 991 207 1157 287 1164 464 c 1
 905 464 l 1
 905 684 l 1
 1404 684 l 1
 1405 660 1406 636 1406 613 c 3
 1406 204 1203 -13 791 -13 c 3
 352 -13 102 294 102 745 c 3
 102 1175 371 1482 794 1482 c 3
 1113 1482 1301 1300 1373 1050 c 1
 1115 1050 l 1
 1068 1167 948 1262 790 1262 c 3
 550 1262 342 1050 342 746 c 3
EndSplineSet
Validated: 1
Layer: 2
SplineSet
342 746 m 3,0,1
 342 596 342 596 395.5 474.5 c 128,-1,2
 449 353 449 353 551.5 280 c 128,-1,3
 654 207 654 207 788 207 c 0,4,5
 893 207 893 207 974.5 233.5 c 128,-1,6
 1056 260 1056 260 1108.5 319.5 c 128,-1,7
 1161 379 1161 379 1164 464 c 1,8,-1
 905 464 l 1,9,-1
 905 684 l 1,10,-1
 1404 684 l 1,11,12
 1406 636 1406 636 1406 613 c 0,13,14
 1406 304 1406 304 1252 145.5 c 128,-1,15
 1098 -13 1098 -13 791 -13 c 0,16,17
 575 -13 575 -13 418.5 82.5 c 128,-1,18
 262 178 262 178 182 348.5 c 128,-1,19
 102 519 102 519 102 745 c 0,20,21
 102 959 102 959 186 1126 c 128,-1,22
 270 1293 270 1293 428 1387.5 c 128,-1,23
 586 1482 586 1482 794 1482 c 0,24,25
 1023 1482 1023 1482 1169.5 1365 c 128,-1,26
 1316 1248 1316 1248 1373 1050 c 1,27,-1
 1115 1050 l 1,28,29
 1078 1142 1078 1142 991 1202 c 128,-1,30
 904 1262 904 1262 790 1262 c 0,31,32
 606 1262 606 1262 474 1115.5 c 128,-1,33
 342 969 342 969 342 746 c 3,0,1
EndSplineSet
EndChar

StartChar: H
Encoding: 72 72 44
Width: 1479
Flags: W
HStem: 0 21G<164 404 1074 1314> 631 220<404 1074> 1430 20G<164 404 1074 1314>
VStem: 164 240<0 631 851 1450> 1074 240<0 631 851 1450>
LayerCount: 3
Fore
SplineSet
164 0 m 1
 164 1450 l 1
 404 1450 l 1
 404 851 l 1
 1074 851 l 1
 1074 1450 l 1
 1314 1450 l 1
 1314 0 l 1
 1074 0 l 1
 1074 631 l 1
 404 631 l 1
 404 0 l 1
 164 0 l 1
EndSplineSet
Validated: 1
Layer: 2
SplineSet
164 0 m 1,0,-1
 164 1450 l 1,1,-1
 404 1450 l 1,2,-1
 404 851 l 1,3,-1
 1074 851 l 1,4,-1
 1074 1450 l 1,5,-1
 1314 1450 l 1,6,-1
 1314 0 l 1,7,-1
 1074 0 l 1,8,-1
 1074 631 l 1,9,-1
 404 631 l 1,10,-1
 404 0 l 1,11,-1
 164 0 l 1,0,-1
EndSplineSet
EndChar

StartChar: I
Encoding: 73 73 45
Width: 650
Flags: W
HStem: 0 220<25 205 445 625> 1230 220<25 205 445 625>
VStem: 25 600<0 220 1230 1450>
LayerCount: 3
Fore
SplineSet
625 220 m 1
 625 0 l 1
 25 0 l 1
 25 220 l 1
 205 220 l 1
 205 1230 l 1
 25 1230 l 1
 25 1450 l 1
 625 1450 l 1
 625 1230 l 1
 445 1230 l 1
 445 220 l 1
 625 220 l 1
EndSplineSet
Validated: 1
Layer: 2
SplineSet
625 220 m 1,0,-1
 625 0 l 1,1,-1
 25 0 l 1,2,-1
 25 220 l 1,3,-1
 205 220 l 1,4,-1
 205 1230 l 1,5,-1
 25 1230 l 1,6,-1
 25 1450 l 1,7,-1
 625 1450 l 1,8,-1
 625 1230 l 1,9,-1
 445 1230 l 1,10,-1
 445 220 l 1,11,-1
 625 220 l 1,0,-1
EndSplineSet
EndChar

StartChar: J
Encoding: 74 74 46
Width: 1024
Flags: W
HStem: -13 220<373.562 562.731> 1230 220<408 625>
VStem: 64 240<284.442 455> 625 240<274.243 1230>
LayerCount: 3
Fore
SplineSet
468 207 m 3
 583 207 625 328 625 471 c 2
 625 1230 l 1
 408 1230 l 1
 408 1450 l 1
 865 1450 l 1
 865 456 l 2
 865 116 706 -13 463 -13 c 3
 224 -13 64 112 64 455 c 1
 304 455 l 1
 312 260 401 207 468 207 c 3
EndSplineSet
Validated: 1
Layer: 2
SplineSet
468 207 m 3,0,1
 549 207 549 207 587 280.5 c 128,-1,2
 625 354 625 354 625 471 c 2,3,-1
 625 1230 l 1,4,-1
 408 1230 l 1,5,-1
 408 1450 l 1,6,-1
 865 1450 l 1,7,-1
 865 456 l 2,8,9
 865 -13 865 -13 463 -13 c 0,10,11
 64 -13 64 -13 64 455 c 1,12,-1
 304 455 l 1,13,14
 307 386 307 386 323 335 c 128,-1,15
 339 284 339 284 364 257.5 c 128,-1,16
 389 231 389 231 415 219 c 128,-1,17
 441 207 441 207 468 207 c 3,0,1
EndSplineSet
EndChar

StartChar: K
Encoding: 75 75 47
Width: 1366
Flags: W
HStem: 0 21G<150 390 1034.21 1346> 1430 20G<150 390 1001.28 1316>
VStem: 150 240<0 514 840 1450>
LayerCount: 3
Fore
SplineSet
150 0 m 1
 150 1450 l 1
 390 1450 l 1
 390 840 l 1
 1022 1450 l 1
 1316 1450 l 1
 659 806 l 1
 1346 0 l 1
 1053 -1 l 1
 479 610 l 1
 390 514 l 1
 390 0 l 1
 150 0 l 1
EndSplineSet
Validated: 1
Layer: 2
SplineSet
150 0 m 1,0,-1
 150 1450 l 1,1,-1
 390 1450 l 1,2,-1
 390 840 l 1,3,-1
 1022 1450 l 1,4,-1
 1316 1450 l 1,5,-1
 659 806 l 1,6,-1
 1346 0 l 1,7,-1
 1053 -1 l 1,8,-1
 479 610 l 1,9,-1
 390 514 l 1,10,-1
 390 0 l 1,11,-1
 150 0 l 1,0,-1
EndSplineSet
EndChar

StartChar: L
Encoding: 76 76 48
Width: 1139
Flags: W
HStem: 0 220<390 1060> 1430 20G<150 390>
VStem: 150 240<220 1450>
LayerCount: 3
Fore
SplineSet
150 0 m 1
 150 1450 l 1
 390 1450 l 1
 390 220 l 1
 1060 220 l 1
 1060 0 l 1
 150 0 l 1
EndSplineSet
Validated: 1
Layer: 2
SplineSet
150 0 m 1,0,-1
 150 1450 l 1,1,-1
 390 1450 l 1,2,-1
 390 220 l 1,3,-1
 1060 220 l 1,4,-1
 1060 0 l 1,5,-1
 150 0 l 1,0,-1
EndSplineSet
EndChar

StartChar: M
Encoding: 77 77 49
Width: 1706
Flags: W
HStem: 0 21G<152 392 668.546 1033.45 1310 1550> 1430 20G<152 393.452 1308.55 1550>
VStem: 152 240<0 762> 1310 240<0 762>
DStem2: 386 1450 392 762 0.349148 -0.937068<646.797 1331.81> 851 202 1026 0 0.349148 0.937068<0 685.017>
LayerCount: 3
Fore
SplineSet
152 0 m 1
 152 1450 l 1
 386 1450 l 1
 851 202 l 1
 1316 1450 l 1
 1550 1450 l 1
 1550 0 l 1
 1310 0 l 1
 1310 762 l 1
 1026 0 l 1
 676 0 l 1
 392 762 l 1
 392 0 l 1
 152 0 l 1
EndSplineSet
Validated: 1
Layer: 2
SplineSet
152 0 m 1,0,-1
 152 1450 l 1,1,-1
 386 1450 l 1,2,-1
 851 202 l 1,3,-1
 1316 1450 l 1,4,-1
 1550 1450 l 1,5,-1
 1550 0 l 1,6,-1
 1310 0 l 1,7,-1
 1310 762 l 1,8,-1
 1026 0 l 1,9,-1
 676 0 l 1,10,-1
 392 762 l 1,11,-1
 392 0 l 1,12,-1
 152 0 l 1,0,-1
EndSplineSet
EndChar

StartChar: N
Encoding: 78 78 50
Width: 1479
Flags: W
HStem: 0 21G<156 396 1057.15 1311> 1430 20G<156 409.79 1071 1311>
VStem: 156 240<0 975> 1071 240<471 1450>
DStem2: 396 1450 396 975 0.567635 -0.823281<391.058 1189.15>
LayerCount: 3
Fore
SplineSet
156 0 m 1
 156 1450 l 1
 396 1450 l 1
 1071 471 l 1
 1071 1450 l 1
 1311 1450 l 1
 1311 0 l 1
 1071 0 l 1
 396 975 l 1
 396 0 l 1
 156 0 l 1
EndSplineSet
Validated: 1
Layer: 2
SplineSet
156 0 m 1,0,-1
 156 1450 l 1,1,-1
 396 1450 l 1,2,-1
 1071 471 l 1,3,-1
 1071 1450 l 1,4,-1
 1311 1450 l 1,5,-1
 1311 0 l 1,6,-1
 1071 0 l 1,7,-1
 396 975 l 1,8,-1
 396 0 l 1,9,-1
 156 0 l 1,0,-1
EndSplineSet
EndChar

StartChar: O
Encoding: 79 79 51
Width: 1593
Flags: W
HStem: -13 220<589.038 1012.23> 1262 220<588.05 1009.57>
VStem: 104 240<469.273 997.201> 1256 240<474.886 991.751>
LayerCount: 3
Fore
SplineSet
800 -13 m 3
 376 -13 104 286 104 714 c 3
 104 1183 355 1482 801 1482 c 3
 1233 1482 1496 1184 1496 731 c 3
 1496 291 1240 -13 800 -13 c 3
803 1262 m 3
 435 1262 344 993 344 712 c 3
 344 401 503 207 800 207 c 3
 1166 207 1256 487 1256 731 c 3
 1256 1053 1103 1262 803 1262 c 3
EndSplineSet
Validated: 1
Layer: 2
SplineSet
800 -13 m 3,0,1
 591 -13 591 -13 432.5 79.5 c 128,-1,2
 274 172 274 172 189 336.5 c 128,-1,3
 104 501 104 501 104 714 c 0,4,5
 104 1070 104 1070 287 1276 c 128,-1,6
 470 1482 470 1482 801 1482 c 0,7,8
 1123 1482 1123 1482 1309.5 1277.5 c 128,-1,9
 1496 1073 1496 1073 1496 731 c 0,10,11
 1496 511 1496 511 1414.5 343.5 c 128,-1,12
 1333 176 1333 176 1174.5 81.5 c 128,-1,13
 1016 -13 1016 -13 800 -13 c 3,0,1
803 1262 m 3,14,15
 344 1262 344 1262 344 712 c 0,16,17
 344 475 344 475 462 341 c 128,-1,18
 580 207 580 207 800 207 c 0,19,20
 906 207 906 207 987.5 238.5 c 128,-1,21
 1069 270 1069 270 1119 320.5 c 128,-1,22
 1169 371 1169 371 1200.5 441.5 c 128,-1,23
 1232 512 1232 512 1244 582 c 128,-1,24
 1256 652 1256 652 1256 731 c 0,25,26
 1256 978 1256 978 1139.5 1120 c 128,-1,27
 1023 1262 1023 1262 803 1262 c 3,14,15
EndSplineSet
EndChar

StartChar: P
Encoding: 80 80 52
Width: 1366
Flags: W
HStem: 0 21G<158 398> 580 220<398 931.062> 1230 220<398 940.286>
VStem: 158 240<0 580 800 1230> 1037 240<890.087 1148.14>
LayerCount: 3
Fore
SplineSet
1277 1026 m 3
 1277 669 1006 580 728 580 c 2
 398 580 l 1
 398 0 l 1
 158 0 l 1
 158 1450 l 1
 711 1450 l 2
 1147 1450 1277 1280 1277 1026 c 3
1037 1020 m 3
 1037 1187 899 1230 687 1230 c 2
 398 1230 l 1
 398 800 l 1
 691 800 l 2
 959 800 1037 891 1037 1020 c 3
EndSplineSet
Validated: 1
Layer: 2
SplineSet
1277 1026 m 3,0,1
 1277 922 1277 922 1246 842.5 c 128,-1,2
 1215 763 1215 763 1164.5 714.5 c 128,-1,3
 1114 666 1114 666 1041 635 c 128,-1,4
 968 604 968 604 892.5 592 c 128,-1,5
 817 580 817 580 728 580 c 2,6,-1
 398 580 l 1,7,-1
 398 0 l 1,8,-1
 158 0 l 1,9,-1
 158 1450 l 1,10,-1
 711 1450 l 2,11,12
 871 1450 871 1450 983 1420 c 128,-1,13
 1095 1390 1095 1390 1158 1332.5 c 128,-1,14
 1221 1275 1221 1275 1249 1200.5 c 128,-1,15
 1277 1126 1277 1126 1277 1026 c 3,0,1
1037 1020 m 3,16,17
 1037 1138 1037 1138 948.5 1184 c 128,-1,18
 860 1230 860 1230 687 1230 c 2,19,-1
 398 1230 l 1,20,-1
 398 800 l 1,21,-1
 691 800 l 2,22,23
 789 800 789 800 858 816 c 128,-1,24
 927 832 927 832 965 862 c 128,-1,25
 1003 892 1003 892 1020 930.5 c 128,-1,26
 1037 969 1037 969 1037 1020 c 3,16,17
EndSplineSet
EndChar

StartChar: Q
Encoding: 81 81 53
Width: 1659
Flags: W
HStem: -13 220<740.259 1022.42 1318.07 1522.21> 341 220<790.691 1021.8> 1262 220<588.238 1013.43>
VStem: 104 240<486.176 1000.36> 1256 240<492.518 991.105>
LayerCount: 3
Fore
SplineSet
894 561 m 3
 1058 561 1148 455 1167 435 c 1
 1223 471 1256 589 1256 740 c 3
 1256 1067 1098 1262 802 1262 c 3
 437 1262 344 994 344 721 c 3
 344 467 457 341 560 323 c 1
 598 467 747 561 894 561 c 3
801 1482 m 3
 1233 1482 1496 1181 1496 735 c 3
 1496 478 1436 346 1317 247 c 1
 1334 228 1359 207 1392 207 c 3
 1431 207 1489 224 1533 260 c 1
 1659 90 l 1
 1585 21 1498 -13 1399 -13 c 3
 1291 -13 1208 27 1156 88 c 1
 1039 11 934 -13 800 -13 c 3
 376 -13 104 290 104 718 c 3
 104 1187 355 1482 801 1482 c 3
1050 269 m 1
 1010 316 965 341 914 341 c 3
 856 341 770 315 738 217 c 1
 762 210 790 207 821 207 c 3
 932 207 1015 242 1050 269 c 1
EndSplineSet
Validated: 1
Layer: 2
SplineSet
894 561 m 3,0,1
 1050 561 1050 561 1163.71124414 438.519624993 c 0,2,3
 1166 436 1166 436 1167 435 c 0,4,5
 1209 462 1209 462 1232.5 544 c 128,-1,6
 1256 626 1256 626 1256 740 c 0,7,8
 1256 988 1256 988 1139 1125 c 128,-1,9
 1022 1262 1022 1262 802 1262 c 0,10,11
 696 1262 696 1262 614.5 1231.5 c 128,-1,12
 533 1201 533 1201 482.5 1151 c 128,-1,13
 432 1101 432 1101 400 1029 c 128,-1,14
 368 957 368 957 356 882.5 c 128,-1,15
 344 808 344 808 344 721 c 0,16,17
 344 544 344 544 408.5 441 c 128,-1,18
 473 338 473 338 560 323 c 1,19,20
 588 428 588 428 684.5 494.5 c 128,-1,21
 781 561 781 561 894 561 c 3,0,1
801 1482 m 3,22,23
 1014 1482 1014 1482 1172 1388.5 c 128,-1,24
 1330 1295 1330 1295 1413 1126 c 128,-1,25
 1496 957 1496 957 1496 735 c 0,26,27
 1496 548 1496 548 1453 436 c 128,-1,28
 1410 324 1410 324 1317 247 c 1,29,30
 1353 207 1353 207 1392 207 c 0,31,32
 1468 207 1468 207 1533 260 c 1,33,-1
 1659 90 l 1,34,35
 1549 -13 1549 -13 1399 -13 c 0,36,37
 1242 -13 1242 -13 1156 88 c 1,38,39
 1071 32 1071 32 988 9.5 c 128,-1,40
 905 -13 905 -13 800 -13 c 0,41,42
 591 -13 591 -13 432.5 80.5 c 128,-1,43
 274 174 274 174 189 339.5 c 128,-1,44
 104 505 104 505 104 718 c 0,45,46
 104 1073 104 1073 287 1277.5 c 128,-1,47
 470 1482 470 1482 801 1482 c 3,22,23
1050 269 m 1,48,49
 989 341 989 341 914 341 c 0,50,51
 860 341 860 341 810 312 c 128,-1,52
 760 283 760 283 738 217 c 1,53,54
 772 207 772 207 821 207 c 0,55,56
 897 207 897 207 958 226 c 128,-1,57
 1019 245 1019 245 1050 269 c 1,48,49
EndSplineSet
EndChar

StartChar: R
Encoding: 82 82 54
Width: 1400
Flags: W
HStem: 0 21G<158 398 1057.9 1387> 580 220<398 663> 1230 220<398 937.577>
VStem: 158 240<0 580 800 1230> 1037 240<894.256 1148.17>
LayerCount: 3
Fore
SplineSet
1277 1026 m 3
 1277 682 1006 611 924 596 c 1
 1387 0 l 1
 1072 0 l 1
 663 580 l 1
 398 580 l 1
 398 0 l 1
 158 0 l 1
 158 1450 l 1
 711 1450 l 2
 1140 1450 1277 1280 1277 1026 c 3
1037 1026 m 3
 1037 1183 896 1230 687 1230 c 2
 398 1230 l 1
 398 800 l 1
 691 800 l 2
 954 800 1037 894 1037 1026 c 3
EndSplineSet
Validated: 1
Layer: 2
SplineSet
1277 1026 m 3,0,1
 1277 929 1277 929 1247 851 c 128,-1,2
 1217 773 1217 773 1177 730 c 128,-1,3
 1137 687 1137 687 1082.5 655.5 c 128,-1,4
 1028 624 1028 624 993.5 613 c 128,-1,5
 959 602 959 602 924 596 c 1,6,-1
 1387 0 l 1,7,-1
 1072 0 l 1,8,-1
 663 580 l 1,9,-1
 398 580 l 1,10,-1
 398 0 l 1,11,-1
 158 0 l 1,12,-1
 158 1450 l 1,13,-1
 711 1450 l 2,14,15
 868 1450 868 1450 979.5 1420 c 128,-1,16
 1091 1390 1091 1390 1155.5 1332.5 c 128,-1,17
 1220 1275 1220 1275 1248.5 1200 c 128,-1,18
 1277 1125 1277 1125 1277 1026 c 3,0,1
1037 1026 m 3,19,20
 1037 1137 1037 1137 946.5 1183.5 c 128,-1,21
 856 1230 856 1230 687 1230 c 2,22,-1
 398 1230 l 1,23,-1
 398 800 l 1,24,-1
 691 800 l 2,25,26
 877 800 877 800 957 859.5 c 128,-1,27
 1037 919 1037 919 1037 1026 c 3,19,20
EndSplineSet
EndChar

StartChar: S
Encoding: 83 83 55
Width: 1366
Flags: W
HStem: -13 220<500.715 907.387> 1262 220<471.905 847.966>
VStem: 92 240<365.238 502> 148 240<978.641 1184.34> 975 240<1019 1133.94> 1019 240<306.212 520.483>
LayerCount: 3
Fore
SplineSet
1259 429 m 3xd4
 1259 157 1015 -13 717 -13 c 3
 200 -13 97 291 92 502 c 1
 332 502 l 1
 359 237 602 207 708 207 c 3
 908 207 1019 302 1019 413 c 3xe4
 1019 540 942 570 598 667 c 0
 405 722 148 776 148 1067 c 3
 148 1325 374 1482 664 1482 c 3
 992 1482 1171 1308 1215 1019 c 1
 975 1019 l 1xd8
 951 1173 849 1262 672 1262 c 3
 528 1262 388 1212 388 1080 c 3
 388 962 460 941 873 816 c 0
 1086 752 1259 688 1259 429 c 3xd4
EndSplineSet
Validated: 1
Layer: 2
SplineSet
1259 429 m 3,0,1
 1259 297 1259 297 1185.5 195 c 128,-1,2
 1112 93 1112 93 989.5 40 c 128,-1,3
 867 -13 867 -13 717 -13 c 0,4,5
 610 -13 610 -13 520.5 4.5 c 128,-1,6
 431 22 431 22 368 51.5 c 128,-1,7
 305 81 305 81 256 123.5 c 128,-1,8
 207 166 207 166 177 210.5 c 128,-1,9
 147 255 147 255 127.5 308 c 128,-1,10
 108 361 108 361 100.5 407 c 128,-1,11
 93 453 93 453 92 502 c 1,12,-1
 332 502 l 1,13,14
 338 447 338 447 356 402 c 128,-1,15
 374 357 374 357 399.5 327.5 c 128,-1,16
 425 298 425 298 458.5 275 c 128,-1,17
 492 252 492 252 524 239.5 c 128,-1,18
 556 227 556 227 592 219.5 c 128,-1,19
 628 212 628 212 655 209.5 c 128,-1,20
 682 207 682 207 708 207 c 0,21,22
 852 207 852 207 935.5 266.5 c 128,-1,23
 1019 326 1019 326 1019 413 c 0,24,25
 1019 446 1019 446 1013 469 c 128,-1,26
 1007 492 1007 492 985.5 514 c 128,-1,27
 964 536 964 536 938.5 551 c 128,-1,28
 913 566 913 566 858.5 586.5 c 128,-1,29
 804 607 804 607 749.5 623.5 c 128,-1,30
 695 640 695 640 598 667 c 0,31,32
 441.626106779 711.562508431 441.626106779 711.562508431 391.561384 732.107552 c 0,33,34
 217.517583723 803.529848203 217.517583723 803.529848203 169.047747428 937.01937565 c 0,35,36
 148 994.986434604 148 994.986434604 148 1067 c 0,37,38
 148 1256 148 1256 294.5 1369 c 128,-1,39
 441 1482 441 1482 664 1482 c 0,40,41
 905 1482 905 1482 1043 1361.5 c 128,-1,42
 1181 1241 1181 1241 1215 1019 c 1,43,-1
 975 1019 l 1,44,45
 957 1136 957 1136 880 1199 c 128,-1,46
 803 1262 803 1262 672 1262 c 0,47,48
 552 1262 552 1262 470 1217 c 128,-1,49
 388 1172 388 1172 388 1080 c 0,50,51
 388 1043 388 1043 399 1019 c 128,-1,52
 410 995 410 995 438.5 973 c 128,-1,53
 467 951 467 951 522 929.5 c 128,-1,54
 577 908 577 908 659 881.5 c 128,-1,55
 741 855 741 855 864.796686966 818.482772936 c 0,56,57
 870 817 870 817 873 816 c 0,58,59
 927 800 927 800 962 788 c 128,-1,60
 997 776 997 776 1042 756.5 c 128,-1,61
 1087 737 1087 737 1115 718 c 128,-1,62
 1143 699 1143 699 1173.5 670 c 128,-1,63
 1204 641 1204 641 1220.5 607.5 c 128,-1,64
 1237 574 1237 574 1248 528.5 c 128,-1,65
 1259 483 1259 483 1259 429 c 3,0,1
EndSplineSet
EndChar

StartChar: T
Encoding: 84 84 56
Width: 1251
Flags: W
HStem: 0 21G<508 748> 1230 220<48 508 748 1210>
VStem: 508 240<0 1230>
LayerCount: 3
Fore
SplineSet
508 0 m 1
 508 1230 l 1
 48 1230 l 1
 48 1450 l 1
 1210 1450 l 1
 1210 1230 l 1
 748 1230 l 1
 748 0 l 1
 508 0 l 1
EndSplineSet
Validated: 1
Layer: 2
SplineSet
508 0 m 1,0,-1
 508 1230 l 1,1,-1
 48 1230 l 1,2,-1
 48 1450 l 1,3,-1
 1210 1450 l 1,4,-1
 1210 1230 l 1,5,-1
 748 1230 l 1,6,-1
 748 0 l 1,7,-1
 508 0 l 1,0,-1
EndSplineSet
EndChar

StartChar: U
Encoding: 85 85 57
Width: 1479
Flags: W
HStem: -13 220<546.817 925.028> 1430 20G<161 401 1074 1314>
VStem: 161 240<358.526 1450> 1074 240<356.168 1450>
LayerCount: 3
Fore
SplineSet
737 207 m 3
 962 207 1074 332 1074 564 c 2
 1074 1450 l 1
 1314 1450 l 1
 1314 564 l 2
 1314 179 1123 -13 741 -13 c 3
 277 -13 161 259 161 564 c 2
 161 1450 l 1
 401 1450 l 1
 401 564 l 2
 401 321 528 207 737 207 c 3
EndSplineSet
Validated: 1
Layer: 2
SplineSet
737 207 m 3,0,1
 905 207 905 207 989.5 298 c 128,-1,2
 1074 389 1074 389 1074 564 c 2,3,-1
 1074 1450 l 1,4,-1
 1314 1450 l 1,5,-1
 1314 564 l 2,6,7
 1314 -13 1314 -13 741 -13 c 0,8,9
 606 -13 606 -13 503 18.5 c 128,-1,10
 400 50 400 50 336 102 c 128,-1,11
 272 154 272 154 232 230 c 128,-1,12
 192 306 192 306 176.5 386.5 c 128,-1,13
 161 467 161 467 161 564 c 2,14,-1
 161 1450 l 1,15,-1
 401 1450 l 1,16,-1
 401 564 l 2,17,18
 401 386 401 386 489 296.5 c 128,-1,19
 577 207 577 207 737 207 c 3,0,1
EndSplineSet
EndChar

StartChar: V
Encoding: 86 86 58
Width: 1366
Flags: W
HStem: 0 21G<569.166 783.917> 1430 20G<9 350.803 1015.93 1350>
LayerCount: 3
Fore
SplineSet
577 0 m 1
 9 1450 l 1
 344 1450 l 1
 677 471 l 1
 1023 1450 l 1
 1350 1450 l 1
 776 0 l 1
 577 0 l 1
EndSplineSet
Validated: 1
Layer: 2
SplineSet
577 0 m 1,0,-1
 9 1450 l 1,1,-1
 344 1450 l 1,2,-1
 677 471 l 1,3,-1
 1023 1450 l 1,4,-1
 1350 1450 l 1,5,-1
 776 0 l 1,6,-1
 577 0 l 1,0,-1
EndSplineSet
EndChar

StartChar: W
Encoding: 87 87 59
Width: 1933
Flags: W
HStem: 0 21G<361.297 624.867 1292.23 1570.57> 1430 20G<25 284.027 815.362 1098.81 1621.34 1897>
DStem2: 279 1450 25 1450 0.228927 -0.973444<0 959.845> 513 519 618 0 0.324736 0.945805<0 599.468> 1092 1450 961 999 0.320491 -0.947251<385.226 983.487> 1409 519 1566 0 0.222551 0.974921<0 955.945>
LayerCount: 3
Fore
SplineSet
366 0 m 1
 25 1450 l 1
 279 1450 l 1
 513 519 l 1
 822 1450 l 1
 1092 1450 l 1
 1409 519 l 1
 1626 1450 l 1
 1897 1450 l 1
 1566 0 l 1
 1299 0 l 1
 961 999 l 1
 618 0 l 1
 366 0 l 1
EndSplineSet
Validated: 1
Layer: 2
SplineSet
366 0 m 1,0,-1
 25 1450 l 1,1,-1
 279 1450 l 1,2,-1
 513 519 l 1,3,-1
 822 1450 l 1,4,-1
 1092 1450 l 1,5,-1
 1409 519 l 1,6,-1
 1626 1450 l 1,7,-1
 1897 1450 l 1,8,-1
 1566 0 l 1,9,-1
 1299 0 l 1,10,-1
 961 999 l 1,11,-1
 618 0 l 1,12,-1
 366 0 l 1,0,-1
EndSplineSet
EndChar

StartChar: X
Encoding: 88 88 60
Width: 1366
Flags: W
HStem: 0 21G<9 332.309 1029.69 1353> 1430 20G<76 398.343 989.527 1313>
DStem2: 9 0 319 0 0.53997 0.841685<167.391 820.736> 386 1450 76 1450 0.515947 -0.85662<0 561.669> 681 972 868 756 0.539776 0.841808<0 576.192> 868 756 681 544 0.53997 -0.841685<77.4628 730.808>
LayerCount: 3
Fore
SplineSet
9 0 m 1
 494 756 l 1
 76 1450 l 1
 386 1450 l 1
 681 972 l 1
 1003 1450 l 1
 1313 1450 l 1
 868 756 l 1
 1353 0 l 1
 1043 0 l 1
 681 544 l 1
 319 0 l 1
 9 0 l 1
EndSplineSet
Validated: 1
Layer: 2
SplineSet
9 0 m 1,0,-1
 494 756 l 1,1,-1
 76 1450 l 1,2,-1
 386 1450 l 1,3,-1
 681 972 l 1,4,-1
 1003 1450 l 1,5,-1
 1313 1450 l 1,6,-1
 868 756 l 1,7,-1
 1353 0 l 1,8,-1
 1043 0 l 1,9,-1
 681 544 l 1,10,-1
 319 0 l 1,11,-1
 9 0 l 1,0,-1
EndSplineSet
EndChar

StartChar: Y
Encoding: 89 89 61
Width: 1366
Flags: W
HStem: 0 21G<548 788> 1431 20G<6 316.908 1038.38 1350>
VStem: 548 240<0 621>
DStem2: 304 1451 6 1451 0.54676 -0.837289<0 671.252> 668 887 788 621 0.560672 0.828038<0 682.311>
LayerCount: 3
Fore
SplineSet
548 0 m 1
 548 621 l 1
 6 1451 l 1
 304 1451 l 1
 668 887 l 1
 1052 1451 l 1
 1350 1451 l 1
 788 621 l 1
 788 0 l 1
 548 0 l 1
EndSplineSet
Validated: 1
Layer: 2
SplineSet
548 0 m 1,0,-1
 548 621 l 1,1,-1
 6 1451 l 1,2,-1
 304 1451 l 1,3,-1
 668 887 l 1,4,-1
 1052 1451 l 1,5,-1
 1350 1451 l 1,6,-1
 788 621 l 1,7,-1
 788 0 l 1,8,-1
 548 0 l 1,0,-1
EndSplineSet
EndChar

StartChar: Z
Encoding: 90 90 62
Width: 1251
Flags: W
HStem: 0 220<375 1200> 1230 220<45 885>
DStem2: 41 227 375 220 0.638534 0.769594<207.883 1310.83>
LayerCount: 3
Fore
SplineSet
41 0 m 1
 41 227 l 1
 885 1230 l 1
 45 1230 l 1
 45 1450 l 1
 1213 1450 l 1
 1213 1230 l 1
 375 220 l 1
 1200 220 l 1
 1200 0 l 1
 41 0 l 1
EndSplineSet
Validated: 1
Layer: 2
SplineSet
41 0 m 1,0,-1
 41 227 l 1,1,-1
 885 1230 l 1,2,-1
 45 1230 l 1,3,-1
 45 1450 l 1,4,-1
 1213 1450 l 1,5,-1
 1213 1230 l 1,6,-1
 375 220 l 1,7,-1
 1200 220 l 1,8,-1
 1200 0 l 1,9,-1
 41 0 l 1,0,-1
EndSplineSet
EndChar

StartChar: bracketleft
Encoding: 91 91 63
Width: 569
Flags: W
HStem: -407 200<359 536> 1266 200<359 536>
VStem: 139 397<-407 -207 1266 1466> 139 220<-207 1266>
LayerCount: 3
Fore
SplineSet
139 -407 m 1xe0
 139 1466 l 1
 536 1466 l 1
 536 1266 l 1xe0
 359 1266 l 1
 359 -207 l 1xd0
 536 -207 l 1
 536 -407 l 1
 139 -407 l 1xe0
EndSplineSet
Validated: 1
Layer: 2
SplineSet
139 -407 m 1,0,-1
 139 1466 l 1,1,-1
 536 1466 l 1,2,-1
 536 1266 l 1,3,-1
 359 1266 l 1,4,-1
 359 -207 l 1,5,-1
 536 -207 l 1,6,-1
 536 -407 l 1,7,-1
 139 -407 l 1,0,-1
EndSplineSet
EndChar

StartChar: backslash
Encoding: 92 92 64
Width: 569
Flags: W
VStem: -39 648
DStem2: 185 1491 -39 1491 0.269936 -0.962878<0 1513.98>
LayerCount: 3
Fore
SplineSet
386 -25 m 1
 -39 1491 l 1
 185 1491 l 1
 609 -25 l 1
 386 -25 l 1
EndSplineSet
Validated: 1
Layer: 2
SplineSet
386 -25 m 1,0,-1
 -39 1491 l 1,1,-1
 185 1491 l 1,2,-1
 609 -25 l 1,3,-1
 386 -25 l 1,0,-1
EndSplineSet
EndChar

StartChar: bracketright
Encoding: 93 93 65
Width: 569
Flags: W
HStem: -407 200<33 210> 1266 200<33 210>
VStem: 33 397<-407 -207 1266 1466> 210 220<-207 1266>
LayerCount: 3
Fore
SplineSet
430 -407 m 1xe0
 33 -407 l 1
 33 -207 l 1xe0
 210 -207 l 1
 210 1266 l 1xd0
 33 1266 l 1
 33 1466 l 1
 430 1466 l 1
 430 -407 l 1xe0
EndSplineSet
Validated: 1
Layer: 2
SplineSet
430 -407 m 1,0,-1
 33 -407 l 1,1,-1
 33 -207 l 1,2,-1
 210 -207 l 1,3,-1
 210 1266 l 1,4,-1
 33 1266 l 1,5,-1
 33 1466 l 1,6,-1
 430 1466 l 1,7,-1
 430 -407 l 1,0,-1
EndSplineSet
EndChar

StartChar: asciicircum
Encoding: 94 94 66
Width: 961
Flags: W
DStem2: 54 690 288 690 0.383879 0.923384<89.8276 642.384>
LayerCount: 3
Fore
SplineSet
288 690 m 1
 54 690 l 1
 387 1491 l 1
 572 1491 l 1
 907 690 l 1
 676 690 l 1
 479 1209 l 1
 288 690 l 1
EndSplineSet
Validated: 1
Layer: 2
SplineSet
288 690 m 1,0,-1
 54 690 l 1,1,-1
 387 1491 l 1,2,-1
 572 1491 l 1,3,-1
 907 690 l 1,4,-1
 676 690 l 1,5,-1
 479 1209 l 1,6,-1
 288 690 l 1,0,-1
EndSplineSet
EndChar

StartChar: underscore
Encoding: 95 95 67
Width: 1139
Flags: W
HStem: -427 200<-31 1162>
LayerCount: 3
Fore
SplineSet
-31 -427 m 1
 -31 -227 l 1
 1162 -227 l 1
 1162 -427 l 1
 -31 -427 l 1
EndSplineSet
Validated: 1
Layer: 2
SplineSet
-31 -427 m 1,0,-1
 -31 -227 l 1,1,-1
 1162 -227 l 1,2,-1
 1162 -427 l 1,3,-1
 -31 -427 l 1,0,-1
EndSplineSet
EndChar

StartChar: grave
Encoding: 96 96 68
Width: 682
Flags: W
HStem: 1194 280<291 360>
VStem: 60 435
LayerCount: 3
Fore
SplineSet
495 1194 m 1
 291 1194 l 1
 60 1474 l 1
 360 1474 l 1
 495 1194 l 1
EndSplineSet
Validated: 1
Layer: 2
SplineSet
495 1194 m 1,0,-1
 291 1194 l 1,1,-1
 60 1474 l 1,2,-1
 360 1474 l 1,3,-1
 495 1194 l 1,0,-1
EndSplineSet
EndChar

StartChar: a
Encoding: 97 97 69
Width: 1139
Flags: W
HStem: -13 200<335.481 678.779> 495 200<607.963 775> 895 200<405.793 716.271>
VStem: 74 220<226.365 390.79> 775 220<283.906 495 680.834 828.099>
LayerCount: 3
Fore
SplineSet
995 445 m 2
 995 153 1000 93 1052 0 c 1
 814 0 l 1
 803 31 795 63 792 96 c 1
 685 6 579 -13 437 -13 c 3
 149 -13 74 164 74 289 c 3
 74 499 230 600 492 633 c 0
 600 646 695 666 776 695 c 1
 770 836 707 895 558 895 c 3
 422 895 342 818 318 738 c 1
 105 768 l 1
 152 991 304 1095 584 1095 c 3
 864 1095 995 1017 995 694 c 2
 995 445 l 2
294 308 m 3
 294 212 412 187 487 187 c 3
 675 187 775 262 775 444 c 2
 775 495 l 1
 554 414 294 469 294 308 c 3
EndSplineSet
Validated: 1
Layer: 2
SplineSet
995 445 m 2,0,1
 995 221 995 221 1004.5 144.5 c 128,-1,2
 1014 68 1014 68 1052 0 c 1,3,-1
 814 0 l 1,4,5
 796 50 796 50 792 96 c 1,6,7
 716 32 716 32 634.5 9.5 c 128,-1,8
 553 -13 553 -13 437 -13 c 0,9,10
 335 -13 335 -13 260 16 c 128,-1,11
 185 45 185 45 146.5 92 c 128,-1,12
 108 139 108 139 91 188 c 128,-1,13
 74 237 74 237 74 289 c 0,14,15
 74 442 74 442 181 524.5 c 128,-1,16
 288 607 288 607 492 633 c 0,17,18
 659 653 659 653 776 695 c 1,19,20
 771 801 771 801 720 848 c 128,-1,21
 669 895 669 895 558 895 c 0,22,23
 462 895 462 895 400 849.5 c 128,-1,24
 338 804 338 804 318 738 c 1,25,-1
 105 768 l 1,26,27
 140 935 140 935 257 1015 c 128,-1,28
 374 1095 374 1095 584 1095 c 0,29,30
 694 1095 694 1095 767 1077.5 c 128,-1,31
 840 1060 840 1060 893.5 1015.5 c 128,-1,32
 947 971 947 971 971 892.5 c 128,-1,33
 995 814 995 814 995 694 c 2,34,-1
 995 445 l 2,0,1
294 308 m 3,35,36
 294 263 294 263 328 234.5 c 128,-1,37
 362 206 362 206 402.5 196.5 c 128,-1,38
 443 187 443 187 487 187 c 0,39,40
 631 187 631 187 703 248.5 c 128,-1,41
 775 310 775 310 775 444 c 2,42,-1
 775 495 l 1,43,44
 717 474 717 474 641 460.5 c 128,-1,45
 565 447 565 447 509 440 c 128,-1,46
 453 433 453 433 401 420.5 c 128,-1,47
 349 408 349 408 321.5 381 c 128,-1,48
 294 354 294 354 294 308 c 3,35,36
EndSplineSet
EndChar

StartChar: b
Encoding: 98 98 70
Width: 1139
Flags: W
HStem: -13 200<463.184 715.469> 895 200<468.168 730.54> 1446 20G<134 354>
VStem: 134 220<0 84 316.845 759.416 990 1466> 835 220<321.055 768.951>
LayerCount: 3
Fore
SplineSet
596 -13 m 3
 445 -13 358 67 341 84 c 1
 341 0 l 1
 134 0 l 1
 134 1466 l 1
 354 1466 l 1
 354 990 l 1
 432 1054 518 1095 605 1095 c 3
 892 1095 1055 861 1055 550 c 3
 1055 222 895 -13 596 -13 c 3
591 895 m 3
 449 895 354 748 354 549 c 3
 354 249 496 187 584 187 c 3
 741 187 835 320 835 542 c 3
 835 749 767 895 591 895 c 3
EndSplineSet
Validated: 1
Layer: 2
SplineSet
596 -13 m 3,0,1
 544 -13 544 -13 496.5 -1 c 128,-1,2
 449 11 449 11 417 30 c 128,-1,3
 385 49 385 49 368.5 61 c 128,-1,4
 352 73 352 73 341 84 c 1,5,-1
 341 0 l 1,6,-1
 134 0 l 1,7,-1
 134 1466 l 1,8,-1
 354 1466 l 1,9,-1
 354 990 l 1,10,11
 482 1095 482 1095 605 1095 c 0,12,13
 745 1095 745 1095 848 1023 c 128,-1,14
 951 951 951 951 1003 829 c 128,-1,15
 1055 707 1055 707 1055 550 c 0,16,17
 1055 384 1055 384 1003.5 258.5 c 128,-1,18
 952 133 952 133 847 60 c 128,-1,19
 742 -13 742 -13 596 -13 c 3,0,1
591 895 m 3,20,21
 485 895 485 895 419.5 797.5 c 128,-1,22
 354 700 354 700 354 549 c 0,23,24
 354 463 354 463 370 396.5 c 128,-1,25
 386 330 386 330 409.5 291.5 c 128,-1,26
 433 253 433 253 465 228.5 c 128,-1,27
 497 204 497 204 526 195.5 c 128,-1,28
 555 187 555 187 584 187 c 0,29,30
 702 187 702 187 768.5 281 c 128,-1,31
 835 375 835 375 835 542 c 0,32,33
 835 707 835 707 776 801 c 128,-1,34
 717 895 717 895 591 895 c 3,20,21
EndSplineSet
EndChar

StartChar: c
Encoding: 99 99 71
Width: 1024
Flags: W
HStem: -13 200<419.61 713.775> 895 200<425.848 702.462>
VStem: 80 220<320.95 750.524> 785 220<261.91 403 696 809.7>
LayerCount: 3
Fore
SplineSet
561 187 m 3
 701 187 782 256 785 403 c 1
 1005 403 l 1
 994 62 740 -13 563 -13 c 3
 271 -13 80 201 80 530 c 3
 80 867 245 1095 564 1095 c 3
 825 1095 1003 929 1003 696 c 1
 785 696 l 1
 783 814 682 895 571 895 c 3
 358 895 300 692 300 535 c 3
 300 334 386 187 561 187 c 3
EndSplineSet
Validated: 1
Layer: 2
SplineSet
561 187 m 3,0,1
 668 187 668 187 725.5 240.5 c 128,-1,2
 783 294 783 294 785 403 c 1,3,-1
 1005 403 l 1,4,5
 1002 305 1002 305 971.5 229 c 128,-1,6
 941 153 941 153 896 108.5 c 128,-1,7
 851 64 851 64 791 35.5 c 128,-1,8
 731 7 731 7 676 -3 c 128,-1,9
 621 -13 621 -13 563 -13 c 0,10,11
 344 -13 344 -13 212 135 c 128,-1,12
 80 283 80 283 80 530 c 0,13,14
 80 789 80 789 205 942 c 128,-1,15
 330 1095 330 1095 564 1095 c 0,16,17
 759 1095 759 1095 881 983.5 c 128,-1,18
 1003 872 1003 872 1003 696 c 1,19,-1
 785 696 l 1,20,21
 784 782 784 782 720.5 838.5 c 128,-1,22
 657 895 657 895 571 895 c 0,23,24
 495 895 495 895 439.5 861.5 c 128,-1,25
 384 828 384 828 355 772.5 c 128,-1,26
 326 717 326 717 313 658 c 128,-1,27
 300 599 300 599 300 535 c 0,28,29
 300 378 300 378 367 282.5 c 128,-1,30
 434 187 434 187 561 187 c 3,0,1
EndSplineSet
EndChar

StartChar: d
Encoding: 100 100 72
Width: 1139
Flags: W
HStem: -13 200<405.753 659.816> 895 200<401.325 650.577> 1446 20G<769 989>
VStem: 68 220<320.425 769.905> 769 220<0 84 315.715 755.141 990 1466>
LayerCount: 3
Fore
SplineSet
68 550 m 3
 68 871 234 1095 518 1095 c 3
 605 1095 691 1054 769 990 c 1
 769 1466 l 1
 989 1466 l 1
 989 0 l 1
 782 0 l 1
 782 84 l 1
 765 67 678 -13 527 -13 c 3
 228 -13 68 221 68 550 c 3
539 187 m 3
 627 187 769 249 769 545 c 3
 769 740 675 895 532 895 c 3
 435 895 288 839 288 538 c 3
 288 320 374 187 539 187 c 3
EndSplineSet
Validated: 1
Layer: 2
SplineSet
68 550 m 3,0,1
 68 795 68 795 188 945 c 128,-1,2
 308 1095 308 1095 518 1095 c 0,3,4
 641 1095 641 1095 769 990 c 1,5,-1
 769 1466 l 1,6,-1
 989 1466 l 1,7,-1
 989 0 l 1,8,-1
 782 0 l 1,9,-1
 782 84 l 1,10,11
 771 73 771 73 754.5 61 c 128,-1,12
 738 49 738 49 706 30 c 128,-1,13
 674 11 674 11 626.5 -1 c 128,-1,14
 579 -13 579 -13 527 -13 c 0,15,16
 381 -13 381 -13 276 59.5 c 128,-1,17
 171 132 171 132 119.5 258 c 128,-1,18
 68 384 68 384 68 550 c 3,0,1
539 187 m 3,19,20
 568 187 568 187 597 195.5 c 128,-1,21
 626 204 626 204 658 228.5 c 128,-1,22
 690 253 690 253 714 291 c 128,-1,23
 738 329 738 329 753.5 394.5 c 128,-1,24
 769 460 769 460 769 545 c 0,25,26
 769 694 769 694 703 794.5 c 128,-1,27
 637 895 637 895 532 895 c 0,28,29
 499 895 499 895 469 887 c 128,-1,30
 439 879 439 879 404.5 855.5 c 128,-1,31
 370 832 370 832 345.5 794 c 128,-1,32
 321 756 321 756 304.5 690 c 128,-1,33
 288 624 288 624 288 538 c 0,34,35
 288 372 288 372 352.5 279.5 c 128,-1,36
 417 187 417 187 539 187 c 3,19,20
EndSplineSet
EndChar

StartChar: e
Encoding: 101 101 73
Width: 1139
Flags: W
HStem: -13 200<431.202 749.74> 475 200<307 829> 895 200<414.898 739.845>
VStem: 75 226<324.048 475 675 783.839> 829 226<265.529 333 675 793.967>
LayerCount: 3
Fore
SplineSet
582 187 m 3
 775 187 812 293 820 333 c 1
 1048 333 l 1
 1006 118 839 -13 581 -13 c 3
 249 -13 75 188 75 525 c 3
 75 870 250 1095 571 1095 c 3
 876 1095 1055 878 1055 539 c 3
 1055 521 1054 493 1053 475 c 1
 301 475 l 1
 312 313 409 187 582 187 c 3
829 675 m 1
 815 818 733 895 572 895 c 3
 415 895 315 795 307 675 c 1
 829 675 l 1
EndSplineSet
Validated: 1
Layer: 2
SplineSet
582 187 m 3,0,1
 637 187 637 187 680 198.5 c 128,-1,2
 723 210 723 210 747 226.5 c 128,-1,3
 771 243 771 243 788 265 c 128,-1,4
 805 287 805 287 811 302 c 128,-1,5
 817 317 817 317 820 333 c 1,6,-1
 1048 333 l 1,7,8
 1016 170 1016 170 894.5 78.5 c 128,-1,9
 773 -13 773 -13 581 -13 c 0,10,11
 335 -13 335 -13 205 128 c 128,-1,12
 75 269 75 269 75 525 c 0,13,14
 75 788 75 788 204.5 941.5 c 128,-1,15
 334 1095 334 1095 571 1095 c 0,16,17
 798 1095 798 1095 926.5 945 c 128,-1,18
 1055 795 1055 795 1055 539 c 0,19,20
 1055 511 1055 511 1053 475 c 1,21,-1
 301 475 l 1,22,23
 310 348 310 348 383.5 267.5 c 128,-1,24
 457 187 457 187 582 187 c 3,0,1
829 675 m 1,25,26
 807 895 807 895 572 895 c 0,27,28
 458 895 458 895 385.5 831.5 c 128,-1,29
 313 768 313 768 307 675 c 1,30,-1
 829 675 l 1,25,26
EndSplineSet
EndChar

StartChar: f
Encoding: 102 102 74
Width: 569
Flags: W
HStem: 0 21G<157 377> 862 200<19 157 377 536> 1315 200<415.499 637.409>
VStem: 157 220<0 862 1062 1278.03>
LayerCount: 3
Fore
SplineSet
524 1315 m 3
 438 1315 377 1271 377 1132 c 2
 377 1062 l 1
 536 1062 l 1
 536 862 l 1
 377 862 l 1
 377 0 l 1
 157 0 l 1
 157 862 l 1
 19 862 l 1
 19 1062 l 1
 157 1062 l 1
 157 1175 l 2
 157 1447 330 1515 462 1515 c 3
 529 1515 589 1506 640 1488 c 1
 640 1288 l 1
 580 1307 559 1315 524 1315 c 3
EndSplineSet
Validated: 1
Layer: 2
SplineSet
524 1315 m 3,0,1
 377 1315 377 1315 377 1132 c 2,2,-1
 377 1062 l 1,3,-1
 536 1062 l 1,4,-1
 536 862 l 1,5,-1
 377 862 l 1,6,-1
 377 0 l 1,7,-1
 157 0 l 1,8,-1
 157 862 l 1,9,-1
 19 862 l 1,10,-1
 19 1062 l 1,11,-1
 157 1062 l 1,12,-1
 157 1175 l 2,13,14
 157 1253 157 1253 176.5 1314.5 c 128,-1,15
 196 1376 196 1376 226 1412.5 c 128,-1,16
 256 1449 256 1449 297.5 1473 c 128,-1,17
 339 1497 339 1497 379 1506 c 128,-1,18
 419 1515 419 1515 462 1515 c 0,19,20
 564 1515 564 1515 640 1488 c 1,21,-1
 640 1288 l 1,22,23
 555 1315 555 1315 524 1315 c 3,0,1
EndSplineSet
EndChar

StartChar: g
Encoding: 103 103 75
Width: 1139
Flags: W
HStem: -428 200<381.072 681.76> -13 200<386.554 687.517> 895 200<392.86 680.594> 1042 20G<782 1002>
VStem: 66 220<303.553 779.139> 95 220<-166.826 -74> 782 220<-115.996 75 294.914 779.28 984 1062>
LayerCount: 3
Fore
SplineSet
522 -428 m 3xda
 153 -428 95 -236 95 -74 c 1
 315 -74 l 1xd6
 315 -127 370 -228 521 -228 c 3
 698 -228 782 -121 782 75 c 1
 719 25 628 -13 525 -13 c 3
 237 -13 66 220 66 535 c 3
 66 874 250 1095 526 1095 c 3xea
 639 1095 743 1049 782 984 c 1
 782 1062 l 1
 1002 1062 l 1
 1002 144 l 2
 1002 -330 834 -428 522 -428 c 3xda
538 895 m 3xea
 331 895 286 722 286 544 c 3
 286 298 361 187 540 187 c 3
 710 187 782 296 782 539 c 3
 782 845 651 895 538 895 c 3xea
EndSplineSet
Validated: 1
Layer: 2
SplineSet
522 -428 m 3,0,1
 416 -428 416 -428 336.5 -406 c 128,-1,2
 257 -384 257 -384 212 -350.5 c 128,-1,3
 167 -317 167 -317 139.5 -268 c 128,-1,4
 112 -219 112 -219 103.5 -174 c 128,-1,5
 95 -129 95 -129 95 -74 c 1,6,-1
 315 -74 l 1,7,8
 315 -96 315 -96 326.5 -121 c 128,-1,9
 338 -146 338 -146 361 -170.5 c 128,-1,10
 384 -195 384 -195 426 -211.5 c 128,-1,11
 468 -228 468 -228 521 -228 c 0,12,13
 782 -228 782 -228 782 75 c 1,14,15
 671 -13 671 -13 525 -13 c 0,16,17
 384 -13 384 -13 279 58.5 c 128,-1,18
 174 130 174 130 120 253.5 c 128,-1,19
 66 377 66 377 66 535 c 0,20,21
 66 789 66 789 192.5 942 c 128,-1,22
 319 1095 319 1095 526 1095 c 0,23,24
 610 1095 610 1095 681.5 1064 c 128,-1,25
 753 1033 753 1033 782 984 c 1,26,-1
 782 1062 l 1,27,-1
 1002 1062 l 1,28,-1
 1002 144 l 2,29,30
 1002 3 1002 3 981.5 -97.5 c 128,-1,31
 961 -198 961 -198 924 -262 c 128,-1,32
 887 -326 887 -326 825.5 -363 c 128,-1,33
 764 -400 764 -400 692.5 -414 c 128,-1,34
 621 -428 621 -428 522 -428 c 3,0,1
538 895 m 3,35,36
 286 895 286 895 286 544 c 0,37,38
 286 358 286 358 346.5 272.5 c 128,-1,39
 407 187 407 187 540 187 c 0,40,41
 667 187 667 187 724.5 271.5 c 128,-1,42
 782 356 782 356 782 539 c 0,43,44
 782 627 782 627 767 693 c 128,-1,45
 752 759 752 759 729 797 c 128,-1,46
 706 835 706 835 672.5 857.5 c 128,-1,47
 639 880 639 880 607.5 887.5 c 128,-1,48
 576 895 576 895 538 895 c 3,35,36
EndSplineSet
EndChar

StartChar: h
Encoding: 104 104 76
Width: 1139
Flags: W
HStem: 0 21G<135 355 780 1000> 895 200<466.96 725.978> 1446 20G<135 355>
VStem: 135 220<0 769.351 1008 1466> 780 220<0 843.953>
LayerCount: 3
Fore
SplineSet
596 895 m 3
 435 895 355 735 355 595 c 2
 355 0 l 1
 135 0 l 1
 135 1466 l 1
 355 1466 l 1
 355 1008 l 1
 406 1066 495 1095 600 1095 c 3
 920 1095 1000 858 1000 673 c 2
 1000 0 l 1
 780 0 l 1
 780 687 l 2
 780 849 710 895 596 895 c 3
EndSplineSet
Validated: 1
Layer: 2
SplineSet
596 895 m 3,0,1
 520 895 520 895 463 848.5 c 128,-1,2
 406 802 406 802 380.5 735 c 128,-1,3
 355 668 355 668 355 595 c 2,4,-1
 355 0 l 1,5,-1
 135 0 l 1,6,-1
 135 1466 l 1,7,-1
 355 1466 l 1,8,-1
 355 1008 l 1,9,10
 432 1095 432 1095 600 1095 c 0,11,12
 692 1095 692 1095 764 1068.5 c 128,-1,13
 836 1042 836 1042 879.5 1000 c 128,-1,14
 923 958 923 958 951 901 c 128,-1,15
 979 844 979 844 989.5 788.5 c 128,-1,16
 1000 733 1000 733 1000 673 c 2,17,-1
 1000 0 l 1,18,-1
 780 0 l 1,19,-1
 780 687 l 2,20,21
 780 802 780 802 734 848.5 c 128,-1,22
 688 895 688 895 596 895 c 3,0,1
EndSplineSet
EndChar

StartChar: i
Encoding: 105 105 77
Width: 455
Flags: W
HStem: 0 21G<116 336> 1042 20G<116 336> 1220 246<121 332>
VStem: 116 220<0 1062 1220 1466>
LayerCount: 3
Fore
SplineSet
121 1220 m 1
 121 1466 l 1
 332 1466 l 1
 332 1220 l 1
 121 1220 l 1
116 0 m 1
 116 1062 l 1
 336 1062 l 1
 336 0 l 1
 116 0 l 1
EndSplineSet
Validated: 1
Layer: 2
SplineSet
121 1220 m 1,0,-1
 121 1466 l 1,1,-1
 332 1466 l 1,2,-1
 332 1220 l 1,3,-1
 121 1220 l 1,0,-1
116 0 m 1,4,-1
 116 1062 l 1,5,-1
 336 1062 l 1,6,-1
 336 0 l 1,7,-1
 116 0 l 1,4,-1
EndSplineSet
EndChar

StartChar: j
Encoding: 106 106 78
Width: 455
Flags: W
HStem: -428 200<-92.0349 80.1743> 1042 20G<116 336> 1220 246<116 336>
VStem: 116 220<-185.337 1062 1220 1466>
LayerCount: 3
Fore
SplineSet
116 1220 m 1
 116 1466 l 1
 336 1466 l 1
 336 1220 l 1
 116 1220 l 1
336 -58 m 2
 336 -336 230 -428 65 -428 c 3
 8 -428 -45 -423 -94 -412 c 1
 -94 -220 l 1
 -59 -225 -38 -228 -29 -228 c 3
 56 -228 116 -191 116 -35 c 2
 116 1062 l 1
 336 1062 l 1
 336 -58 l 2
EndSplineSet
Validated: 1
Layer: 2
SplineSet
116 1220 m 1,0,-1
 116 1466 l 1,1,-1
 336 1466 l 1,2,-1
 336 1220 l 1,3,-1
 116 1220 l 1,0,-1
336 -58 m 2,4,5
 336 -257 336 -257 266 -342.5 c 128,-1,6
 196 -428 196 -428 65 -428 c 0,7,8
 -23 -428 -23 -428 -94 -412 c 1,9,-1
 -94 -220 l 1,10,11
 -38 -228 -38 -228 -29 -228 c 0,12,13
 42 -228 42 -228 79 -186 c 128,-1,14
 116 -144 116 -144 116 -35 c 2,15,-1
 116 1062 l 1,16,-1
 336 1062 l 1,17,-1
 336 -58 l 2,4,5
EndSplineSet
EndChar

StartChar: k
Encoding: 107 107 79
Width: 1024
Flags: W
HStem: 0 21G<136 356 727.727 1016> 1042 20G<678.011 975> 1446 20G<136 356>
VStem: 136 220<0 390 684 1466>
DStem2: 356 684 592 636 0.677507 0.735516<124.587 508.378>
LayerCount: 3
Fore
SplineSet
136 0 m 1
 136 1466 l 1
 356 1466 l 1
 356 684 l 1
 696 1062 l 1
 975 1062 l 1
 592 636 l 1
 1016 0 l 1
 740 0 l 1
 443 484 l 1
 356 390 l 1
 356 0 l 1
 136 0 l 1
EndSplineSet
Validated: 1
Layer: 2
SplineSet
136 0 m 1,0,-1
 136 1466 l 1,1,-1
 356 1466 l 1,2,-1
 356 684 l 1,3,-1
 696 1062 l 1,4,-1
 975 1062 l 1,5,-1
 592 636 l 1,6,-1
 1016 0 l 1,7,-1
 740 0 l 1,8,-1
 443 484 l 1,9,-1
 356 390 l 1,10,-1
 356 0 l 1,11,-1
 136 0 l 1,0,-1
EndSplineSet
EndChar

StartChar: l
Encoding: 108 108 80
Width: 455
Flags: W
HStem: 0 21G<112 332> 1446 20G<112 332>
VStem: 112 220<0 1466>
LayerCount: 3
Fore
SplineSet
112 0 m 1
 112 1466 l 1
 332 1466 l 1
 332 0 l 1
 112 0 l 1
EndSplineSet
Validated: 1
Layer: 2
SplineSet
112 0 m 1,0,-1
 112 1466 l 1,1,-1
 332 1466 l 1,2,-1
 332 0 l 1,3,-1
 112 0 l 1,0,-1
EndSplineSet
EndChar

StartChar: m
Encoding: 109 109 81
Width: 1706
Flags: W
HStem: 0 21G<135 355 744 964 1353 1573> 895 200<442.931 702.566 1050.06 1305.93> 1042 20G<135 355>
VStem: 135 220<0 800.125 990 1062> 744 220<0 809.585> 1353 220<0 847.178>
CounterMasks: 1 1c
LayerCount: 3
Fore
SplineSet
578 895 m 3xdc
 398 895 355 742 355 595 c 2
 355 0 l 1
 135 0 l 1
 135 1062 l 1
 355 1062 l 1xbc
 355 990 l 1
 411 1050 503 1095 618 1095 c 3
 814 1095 878 1003 900 957 c 1
 961 1056 1125 1095 1245 1095 c 3
 1507 1095 1573 912 1573 729 c 2
 1573 0 l 1
 1353 0 l 1
 1353 713 l 2
 1353 826 1298 895 1205 895 c 3
 1089 895 964 841 964 661 c 2
 964 0 l 1
 744 0 l 1
 744 734 l 2
 744 856 665 895 578 895 c 3xdc
EndSplineSet
Validated: 1
Layer: 2
SplineSet
578 895 m 3,0,1
 513 895 513 895 467.5 869.5 c 128,-1,2
 422 844 422 844 398.5 799 c 128,-1,3
 375 754 375 754 365 704.5 c 128,-1,4
 355 655 355 655 355 595 c 2,5,-1
 355 0 l 1,6,-1
 135 0 l 1,7,-1
 135 1062 l 1,8,-1
 355 1062 l 1,9,-1
 355 990 l 1,10,11
 399 1038 399 1038 467 1066.5 c 128,-1,12
 535 1095 535 1095 618 1095 c 0,13,14
 834 1095 834 1095 900 957 c 1,15,16
 942 1026 942 1026 1042 1060.5 c 128,-1,17
 1142 1095 1142 1095 1245 1095 c 0,18,19
 1321 1095 1321 1095 1379.5 1074 c 128,-1,20
 1438 1053 1438 1053 1474 1019 c 128,-1,21
 1510 985 1510 985 1533 936.5 c 128,-1,22
 1556 888 1556 888 1564.5 838 c 128,-1,23
 1573 788 1573 788 1573 729 c 2,24,-1
 1573 0 l 1,25,-1
 1353 0 l 1,26,-1
 1353 713 l 2,27,28
 1353 798 1353 798 1314 846.5 c 128,-1,29
 1275 895 1275 895 1205 895 c 0,30,31
 1158 895 1158 895 1117.5 883.5 c 128,-1,32
 1077 872 1077 872 1041.5 846 c 128,-1,33
 1006 820 1006 820 985 773 c 128,-1,34
 964 726 964 726 964 661 c 2,35,-1
 964 0 l 1,36,-1
 744 0 l 1,37,-1
 744 734 l 2,38,39
 744 819 744 819 697.5 857 c 128,-1,40
 651 895 651 895 578 895 c 3,0,1
EndSplineSet
EndChar

StartChar: n
Encoding: 110 110 82
Width: 1139
Flags: W
HStem: 0 21G<135 355 780 1000> 895 200<448.578 725.353> 1044 20G<135 355>
VStem: 135 220<0 793.38 1012 1064> 780 220<0 843.953>
LayerCount: 3
Fore
SplineSet
592 895 m 3xd8
 401 895 355 737 355 599 c 2
 355 0 l 1
 135 0 l 1
 135 1064 l 1
 355 1064 l 1xb8
 355 1012 l 1
 422 1074 488 1095 600 1095 c 3
 920 1095 1000 858 1000 673 c 2
 1000 0 l 1
 780 0 l 1
 780 691 l 2
 780 846 708 895 592 895 c 3xd8
EndSplineSet
Validated: 1
Layer: 2
SplineSet
592 895 m 3,0,1
 537 895 537 895 494.5 877 c 128,-1,2
 452 859 452 859 426 830.5 c 128,-1,3
 400 802 400 802 383.5 762.5 c 128,-1,4
 367 723 367 723 361 683.5 c 128,-1,5
 355 644 355 644 355 599 c 2,6,-1
 355 0 l 1,7,-1
 135 0 l 1,8,-1
 135 1064 l 1,9,-1
 355 1064 l 1,10,-1
 355 1012 l 1,11,12
 405 1058 405 1058 460 1076.5 c 128,-1,13
 515 1095 515 1095 600 1095 c 0,14,15
 692 1095 692 1095 764 1068.5 c 128,-1,16
 836 1042 836 1042 879.5 1000 c 128,-1,17
 923 958 923 958 951 901 c 128,-1,18
 979 844 979 844 989.5 788.5 c 128,-1,19
 1000 733 1000 733 1000 673 c 2,20,-1
 1000 0 l 1,21,-1
 780 0 l 1,22,-1
 780 691 l 2,23,24
 780 802 780 802 732 848.5 c 128,-1,25
 684 895 684 895 592 895 c 3,0,1
EndSplineSet
EndChar

StartChar: o
Encoding: 111 111 83
Width: 1139
Flags: W
HStem: -13 200<410.297 721.558> 895 200<410.297 721.558>
VStem: 68 220<316.445 765.555> 843 220<316.445 765.555>
LayerCount: 3
Fore
SplineSet
566 -13 m 3
 244 -13 68 187 68 541 c 3
 68 895 244 1095 566 1095 c 3
 888 1095 1063 895 1063 541 c 3
 1063 187 888 -13 566 -13 c 3
566 895 m 3
 340 895 288 723 288 541 c 3
 288 359 340 187 566 187 c 3
 792 187 843 359 843 541 c 3
 843 723 792 895 566 895 c 3
EndSplineSet
Validated: 1
Layer: 2
SplineSet
566 -13 m 131,-1,1
 325 -13 325 -13 196.5 131 c 128,-1,2
 68 275 68 275 68 541 c 128,-1,3
 68 807 68 807 196.5 951 c 128,-1,4
 325 1095 325 1095 566 1095 c 128,-1,5
 807 1095 807 1095 935 951 c 128,-1,6
 1063 807 1063 807 1063 541 c 128,-1,7
 1063 275 1063 275 935 131 c 128,-1,0
 807 -13 807 -13 566 -13 c 131,-1,1
566 895 m 3,8,9
 288 895 288 895 288 541 c 128,-1,10
 288 187 288 187 566 187 c 0,11,12
 843 187 843 187 843 541 c 128,-1,13
 843 895 843 895 566 895 c 3,8,9
EndSplineSet
EndChar

StartChar: p
Encoding: 112 112 84
Width: 1139
Flags: W
HStem: -13 200<455.966 705.849> 895 200<448.203 701.237> 1042 20G<120 340>
VStem: 120 220<-390 86 326.859 765.841 999 1062> 821 220<322.673 761.149>
LayerCount: 3
Fore
SplineSet
1041 532 m 3xd8
 1041 213 876 -13 591 -13 c 3
 504 -13 418 22 340 86 c 1
 340 -390 l 1
 120 -390 l 1
 120 1062 l 1
 340 1062 l 1xb8
 340 999 l 1
 400 1048 477 1095 582 1095 c 3
 881 1095 1041 860 1041 532 c 3xd8
567 895 m 3xd8
 482 895 340 832 340 537 c 3
 340 342 434 187 574 187 c 3
 666 187 821 244 821 544 c 3
 821 761 728 895 567 895 c 3xd8
EndSplineSet
Validated: 1
Layer: 2
SplineSet
1041 532 m 3,0,1
 1041 288 1041 288 921 137.5 c 128,-1,2
 801 -13 801 -13 591 -13 c 0,3,4
 461 -13 461 -13 340 86 c 1,5,-1
 340 -390 l 1,6,-1
 120 -390 l 1,7,-1
 120 1062 l 1,8,-1
 340 1062 l 1,9,-1
 340 999 l 1,10,11
 458 1095 458 1095 582 1095 c 0,12,13
 728 1095 728 1095 833 1022 c 128,-1,14
 938 949 938 949 989.5 823.5 c 128,-1,15
 1041 698 1041 698 1041 532 c 3,0,1
567 895 m 3,16,17
 539 895 539 895 510.5 886.5 c 128,-1,18
 482 878 482 878 450.5 853.5 c 128,-1,19
 419 829 419 829 395 791 c 128,-1,20
 371 753 371 753 355.5 687 c 128,-1,21
 340 621 340 621 340 537 c 0,22,23
 340 388 340 388 405.5 287.5 c 128,-1,24
 471 187 471 187 574 187 c 0,25,26
 605 187 605 187 635.5 195 c 128,-1,27
 666 203 666 203 700.5 227 c 128,-1,28
 735 251 735 251 761 288.5 c 128,-1,29
 787 326 787 326 804 392 c 128,-1,30
 821 458 821 458 821 544 c 0,31,32
 821 708 821 708 754 801.5 c 128,-1,33
 687 895 687 895 567 895 c 3,16,17
EndSplineSet
EndChar

StartChar: q
Encoding: 113 113 85
Width: 1139
Flags: W
HStem: -13 200<422.56 671.975> 895 200<427.137 680.904> 1042 20G<788 1008>
VStem: 87 220<322.039 761.364> 788 220<-390 86 326.859 766.285 999 1062>
LayerCount: 3
Fore
SplineSet
546 1095 m 3xd8
 697 1095 780 1009 788 999 c 1
 788 1062 l 1
 1008 1062 l 1xb8
 1008 -390 l 1
 788 -390 l 1
 788 86 l 1
 710 22 624 -13 537 -13 c 3
 254 -13 87 211 87 532 c 3
 87 860 247 1095 546 1095 c 3xd8
555 187 m 3
 693 187 788 342 788 537 c 3
 788 833 646 895 562 895 c 3xd8
 401 895 307 762 307 544 c 3
 307 243 462 187 555 187 c 3
EndSplineSet
Validated: 1
Layer: 2
SplineSet
546 1095 m 3,0,1
 598 1095 598 1095 645 1082 c 128,-1,2
 692 1069 692 1069 722 1050 c 128,-1,3
 752 1031 752 1031 767 1018.5 c 128,-1,4
 782 1006 782 1006 788 999 c 1,5,-1
 788 1062 l 1,6,-1
 1008 1062 l 1,7,-1
 1008 -390 l 1,8,-1
 788 -390 l 1,9,-1
 788 86 l 1,10,11
 667 -13 667 -13 537 -13 c 0,12,13
 328 -13 328 -13 207.5 137 c 128,-1,14
 87 287 87 287 87 532 c 0,15,16
 87 698 87 698 138.5 823.5 c 128,-1,17
 190 949 190 949 295 1022 c 128,-1,18
 400 1095 400 1095 546 1095 c 3,0,1
555 187 m 3,19,20
 657 187 657 187 722.5 288 c 128,-1,21
 788 389 788 389 788 537 c 0,22,23
 788 622 788 622 772.5 687.5 c 128,-1,24
 757 753 757 753 733 791 c 128,-1,25
 709 829 709 829 677.5 853.5 c 128,-1,26
 646 878 646 878 618 886.5 c 128,-1,27
 590 895 590 895 562 895 c 0,28,29
 442 895 442 895 374.5 801.5 c 128,-1,30
 307 708 307 708 307 544 c 0,31,32
 307 458 307 458 324 392 c 128,-1,33
 341 326 341 326 367 288 c 128,-1,34
 393 250 393 250 428 226.5 c 128,-1,35
 463 203 463 203 493 195 c 128,-1,36
 523 187 523 187 555 187 c 3,19,20
EndSplineSet
EndChar

StartChar: r
Encoding: 114 114 86
Width: 682
Flags: W
HStem: 0 21G<133 353> 895 200<437.162 660.292> 1042 20G<133 353>
VStem: 133 220<0 815.919 947 1062>
LayerCount: 3
Fore
SplineSet
133 0 m 1xd0
 133 1062 l 1
 353 1062 l 1xb0
 353 947 l 1
 426 1068 486 1095 580 1095 c 3
 636 1095 675 1069 710 1046 c 1
 648 856 l 1
 622 870 607 895 565 895 c 3
 362 895 353 713 353 590 c 2
 353 0 l 1
 133 0 l 1xd0
EndSplineSet
Validated: 1
Layer: 2
SplineSet
133 0 m 1,0,-1
 133 1062 l 1,1,-1
 353 1062 l 1,2,-1
 353 947 l 1,3,4
 405 1034 405 1034 455.5 1064.5 c 128,-1,5
 506 1095 506 1095 580 1095 c 0,6,7
 606 1095 606 1095 632 1086.5 c 128,-1,8
 658 1078 658 1078 672 1070 c 128,-1,9
 686 1062 686 1062 710 1046 c 1,10,-1
 648 856 l 1,11,12
 640 860 640 860 626 871.5 c 128,-1,13
 612 883 612 883 598 889 c 128,-1,14
 584 895 584 895 565 895 c 0,15,16
 516 895 516 895 479 881.5 c 128,-1,17
 442 868 442 868 419.5 842.5 c 128,-1,18
 397 817 397 817 383 789.5 c 128,-1,19
 369 762 369 762 363 723 c 128,-1,20
 357 684 357 684 355 656 c 128,-1,21
 353 628 353 628 353 590 c 2,22,-1
 353 0 l 1,23,-1
 133 0 l 1,0,-1
EndSplineSet
EndChar

StartChar: s
Encoding: 115 115 87
Width: 1024
Flags: W
HStem: -14 200<353.749 678.277> 895 200<344.316 645.174>
VStem: 63 220<253.92 358> 93 220<699.992 861.471> 725 220<231.464 401.532>
LayerCount: 3
Fore
SplineSet
945 325 m 3xd8
 945 114 758 -14 517 -14 c 3
 154 -14 73 210 63 358 c 1
 283 358 l 1xe8
 296 245 381 186 516 186 c 3
 660 186 725 253 725 306 c 3
 725 409 649 426 523 449 c 0
 272 495 93 543 93 783 c 3
 93 978 260 1095 484 1095 c 3
 839 1095 903 898 905 767 c 1
 685 767 l 1
 678 854 612 895 497 895 c 3
 356 895 313 834 313 786 c 3
 313 693 398 670 517 648 c 0
 826 591 945 524 945 325 c 3xd8
EndSplineSet
Validated: 1
Layer: 2
SplineSet
945 325 m 3,0,1
 945 170 945 170 823.5 78 c 128,-1,2
 702 -14 702 -14 517 -14 c 0,3,4
 413 -14 413 -14 332 11 c 128,-1,5
 251 36 251 36 203 74 c 128,-1,6
 155 112 155 112 123 164 c 128,-1,7
 91 216 91 216 78.5 262 c 128,-1,8
 66 308 66 308 63 358 c 1,9,-1
 283 358 l 1,10,11
 293 274 293 274 353.5 230 c 128,-1,12
 414 186 414 186 516 186 c 0,13,14
 616 186 616 186 670.5 223.5 c 128,-1,15
 725 261 725 261 725 306 c 0,16,17
 725 336 725 336 715 358 c 128,-1,18
 705 380 705 380 691 394 c 128,-1,19
 677 408 677 408 647.5 418.5 c 128,-1,20
 618 429 618 429 593.5 435 c 128,-1,21
 569 441 569 441 523 449 c 0,22,23
 461 460 461 460 419.5 469.5 c 128,-1,24
 378 479 378 479 328.5 493.5 c 128,-1,25
 279 508 279 508 247.5 524.5 c 128,-1,26
 216 541 216 541 184 565.5 c 128,-1,27
 152 590 152 590 134 620 c 128,-1,28
 116 650 116 650 104.5 691 c 128,-1,29
 93 732 93 732 93 783 c 0,30,31
 93 926 93 926 202.5 1010.5 c 128,-1,32
 312 1095 312 1095 484 1095 c 0,33,34
 569 1095 569 1095 637.5 1080 c 128,-1,35
 706 1065 706 1065 750.5 1038.5 c 128,-1,36
 795 1012 795 1012 826.5 980.5 c 128,-1,37
 858 949 858 949 874 910 c 128,-1,38
 890 871 890 871 897 837 c 128,-1,39
 904 803 904 803 905 767 c 1,40,-1
 685 767 l 1,41,42
 675 895 675 895 497 895 c 0,43,44
 401 895 401 895 357 862 c 128,-1,45
 313 829 313 829 313 786 c 0,46,47
 313 759 313 759 323.5 738 c 128,-1,48
 334 717 334 717 350 703.5 c 128,-1,49
 366 690 366 690 394.5 679 c 128,-1,50
 423 668 423 668 449.5 662 c 128,-1,51
 476 656 476 656 517 648 c 0,52,53
 757 604 757 604 851 537 c 128,-1,54
 945 470 945 470 945 325 c 3,0,1
EndSplineSet
EndChar

StartChar: t
Encoding: 116 116 88
Width: 569
Flags: W
HStem: -13 200<381.485 530.004> 862 200<18 146 366 497>
VStem: 146 220<205.9 862 1062 1433>
LayerCount: 3
Fore
SplineSet
528 195 m 1
 554 2 l 1
 506 -8 456 -13 406 -13 c 0
 146 -13 146 129 146 311 c 2
 146 862 l 1
 18 862 l 1
 18 1062 l 1
 146 1062 l 1
 146 1433 l 1
 366 1433 l 1
 366 1062 l 1
 497 1062 l 1
 497 862 l 1
 366 862 l 1
 366 297 l 2
 366 234 391 187 474 187 c 0
 475 187 493 190 528 195 c 1
EndSplineSet
Validated: 1
Layer: 2
SplineSet
528 195 m 1,0,-1
 554 2 l 1,1,2
 482 -13 482 -13 406 -13 c 0,3,4
 363 -13 363 -13 328.5 -7.5 c 128,-1,5
 294 -2 294 -2 268.5 6 c 128,-1,6
 243 14 243 14 223 31 c 128,-1,7
 203 48 203 48 190.5 61.5 c 128,-1,8
 178 75 178 75 169 101.5 c 128,-1,9
 160 128 160 128 155.5 145.5 c 128,-1,10
 151 163 151 163 149 197.5 c 128,-1,11
 147 232 147 232 146.5 251.5 c 128,-1,12
 146 271 146 271 146 311 c 2,13,-1
 146 862 l 1,14,-1
 18 862 l 1,15,-1
 18 1062 l 1,16,-1
 146 1062 l 1,17,-1
 146 1433 l 1,18,-1
 366 1433 l 1,19,-1
 366 1062 l 1,20,-1
 497 1062 l 1,21,-1
 497 862 l 1,22,-1
 366 862 l 1,23,-1
 366 297 l 2,24,25
 366 187 366 187 474 187 c 1,26,-1
 480 188 l 2,27,28
 486 189 486 189 499.5 191 c 128,-1,29
 513 193 513 193 528 195 c 1,0,-1
EndSplineSet
EndChar

StartChar: u
Encoding: 117 117 89
Width: 1139
Flags: W
HStem: -13 200<402.92 677.324> 1042 20G<104 324 749 969>
VStem: 104 220<261.609 1062> 749 220<0 34 259.867 1062>
LayerCount: 3
Fore
SplineSet
534 187 m 3
 688 187 749 289 749 403 c 2
 749 1062 l 1
 969 1062 l 1
 969 0 l 1
 749 0 l 1
 749 34 l 1
 688 -2 576 -13 537 -13 c 3
 191 -13 104 210 104 412 c 2
 104 1062 l 1
 324 1062 l 1
 324 408 l 2
 324 234 446 187 534 187 c 3
EndSplineSet
Validated: 1
Layer: 2
SplineSet
534 187 m 3,0,1
 643 187 643 187 696 248.5 c 128,-1,2
 749 310 749 310 749 403 c 2,3,-1
 749 1062 l 1,4,-1
 969 1062 l 1,5,-1
 969 0 l 1,6,-1
 749 0 l 1,7,-1
 749 34 l 1,8,9
 709 10 709 10 644 -1.5 c 128,-1,10
 579 -13 579 -13 537 -13 c 0,11,12
 437 -13 437 -13 359.5 12 c 128,-1,13
 282 37 282 37 234.5 78 c 128,-1,14
 187 119 187 119 157 176 c 128,-1,15
 127 233 127 233 115.5 290 c 128,-1,16
 104 347 104 347 104 412 c 2,17,-1
 104 1062 l 1,18,-1
 324 1062 l 1,19,-1
 324 408 l 2,20,21
 324 346 324 346 344 300.5 c 128,-1,22
 364 255 364 255 396.5 231.5 c 128,-1,23
 429 208 429 208 463.5 197.5 c 128,-1,24
 498 187 498 187 534 187 c 3,0,1
EndSplineSet
EndChar

StartChar: v
Encoding: 118 118 90
Width: 1024
Flags: W
HStem: 0 21G<421.411 606.552> 1042 20G<26 275.179 753.162 1000>
DStem2: 268 1062 26 1062 0.354787 -0.934947<0 745.739> 520 360 599 0 0.353246 0.93553<0 741.521>
LayerCount: 3
Fore
SplineSet
429 0 m 1
 26 1062 l 1
 268 1062 l 1
 520 360 l 1
 760 1062 l 1
 1000 1062 l 1
 599 0 l 1
 429 0 l 1
EndSplineSet
Validated: 1
Layer: 2
SplineSet
429 0 m 1,0,-1
 26 1062 l 1,1,-1
 268 1062 l 1,2,-1
 520 360 l 1,3,-1
 760 1062 l 1,4,-1
 1000 1062 l 1,5,-1
 599 0 l 1,6,-1
 429 0 l 1,0,-1
EndSplineSet
EndChar

StartChar: w
Encoding: 119 119 91
Width: 1479
Flags: W
HStem: 0 21G<290.539 549.799 935.5 1204.95> 1042 20G<6 260.814 641.582 838.791 1231.21 1463>
DStem2: 256 1062 6 1062 0.263425 -0.96468<0 717.602> 424 364 544 0 0.305568 0.95217<0 393.637> 1069 364 1200 0 0.240384 0.970678<0 717.677>
LayerCount: 3
Fore
SplineSet
296 0 m 1
 6 1062 l 1
 256 1062 l 1
 424 364 l 1
 648 1062 l 1
 832 1062 l 1
 1069 364 l 1
 1236 1062 l 1
 1463 1062 l 1
 1200 0 l 1
 956 0 l 1
 915 149 843 374 740 676 c 1
 544 0 l 1
 296 0 l 1
EndSplineSet
Validated: 1
Layer: 2
SplineSet
296 0 m 1,0,-1
 6 1062 l 1,1,-1
 256 1062 l 1,2,-1
 424 364 l 1,3,-1
 648 1062 l 1,4,-1
 832 1062 l 1,5,-1
 1069 364 l 1,6,-1
 1236 1062 l 1,7,-1
 1463 1062 l 1,8,-1
 1200 0 l 1,9,-1
 956 0 l 1,10,11
 895 221 895 221 740 676 c 1,12,-1
 544 0 l 1,13,-1
 296 0 l 1,0,-1
EndSplineSet
EndChar

StartChar: x
Encoding: 120 120 92
Width: 1024
Flags: W
HStem: 0 21G<15 295.978 719.696 1009> 1042 20G<44 335.006 687.359 981>
DStem2: 15 0 284 0 0.548691 0.836025<147.598 147.598 887.569 1263.71> 324 1062 44 1062 0.509525 -0.860456<0 362.792> 657 562 505 369 0.530812 -0.84749<82.8821 516.1>
LayerCount: 3
Fore
SplineSet
15 0 m 1
 346 552 l 1
 44 1062 l 1
 324 1062 l 1
 499 744 l 1
 700 1062 l 1
 981 1062 l 1
 657 562 l 1
 1009 0 l 1
 732 0 l 1
 505 369 l 1
 284 0 l 1
 15 0 l 1
EndSplineSet
Validated: 1
Layer: 2
SplineSet
15 0 m 1,0,-1
 346 552 l 1,1,-1
 44 1062 l 1,2,-1
 324 1062 l 1,3,-1
 499 744 l 1,4,-1
 700 1062 l 1,5,-1
 981 1062 l 1,6,-1
 657 562 l 1,7,-1
 1009 0 l 1,8,-1
 732 0 l 1,9,-1
 505 369 l 1,10,-1
 284 0 l 1,11,-1
 15 0 l 1,0,-1
EndSplineSet
EndChar

StartChar: y
Encoding: 121 121 93
Width: 1024
Flags: W
HStem: -428 200<127 345.04> 1042 20G<33 298.754 737.652 1006>
DStem2: 292 1062 33 1062 0.332959 -0.942941<0 728.209> 525 372 642 0 0.324233 0.945977<0 723.731>
LayerCount: 3
Fore
SplineSet
214 -228 m 3
 330 -228 417 -143 417 -54 c 3
 417 -37 414 -19 408 0 c 2
 33 1062 l 1
 292 1062 l 1
 525 372 l 1
 744 1062 l 1
 1006 1062 l 1
 642 0 l 1
 617 -253 472 -428 239 -428 c 3
 197 -428 157 -427 127 -415 c 1
 107 -214 l 1
 141 -223 177 -228 214 -228 c 3
EndSplineSet
Validated: 1
Layer: 2
SplineSet
214 -228 m 3,0,1
 299 -228 299 -228 358 -175.5 c 128,-1,2
 417 -123 417 -123 417 -54 c 0,3,4
 417 -28.5 417 -28.5 408 0 c 2,5,-1
 33 1062 l 1,6,-1
 292 1062 l 1,7,-1
 525 372 l 1,8,-1
 744 1062 l 1,9,-1
 1006 1062 l 1,10,-1
 642 0 l 1,11,12
 623 -194 623 -194 516.5 -311 c 128,-1,13
 410 -428 410 -428 239 -428 c 0,14,15
 160 -428 160 -428 127 -415 c 1,16,-1
 107 -214 l 1,17,18
 160 -228 160 -228 214 -228 c 3,0,1
EndSplineSet
EndChar

StartChar: z
Encoding: 122 122 94
Width: 1024
Flags: W
HStem: 0 200<344 980> 862 200<60 664>
DStem2: 40 200 344 200 0.685913 0.727683<208.518 909.736>
LayerCount: 3
Fore
SplineSet
40 0 m 1
 40 200 l 1
 664 862 l 1
 60 862 l 1
 60 1062 l 1
 948 1062 l 1
 948 862 l 1
 344 200 l 1
 980 200 l 1
 980 0 l 1
 40 0 l 1
EndSplineSet
Validated: 1
Layer: 2
SplineSet
40 0 m 1,0,-1
 40 200 l 1,1,-1
 664 862 l 1,2,-1
 60 862 l 1,3,-1
 60 1062 l 1,4,-1
 948 1062 l 1,5,-1
 948 862 l 1,6,-1
 344 200 l 1,7,-1
 980 200 l 1,8,-1
 980 0 l 1,9,-1
 40 0 l 1,0,-1
EndSplineSet
EndChar

StartChar: braceleft
Encoding: 123 123 95
Width: 684
Flags: W
HStem: -422 200<515.557 636> 448 164<57 186.32> 1282 200<515.557 636>
VStem: 264 220<-191.475 359.354 700.646 1251.47>
CounterMasks: 1 e0
LayerCount: 3
Fore
SplineSet
57 612 m 17
 251 616 264 785 264 971 c 3
 264 1312 284 1482 580 1482 c 2
 636 1482 l 1
 636 1282 l 1
 595 1282 l 2
 508 1282 484 1228 484 981 c 3
 484 729 446 618 308 530 c 1
 446 442 484 331 484 79 c 3
 484 -168 508 -222 595 -222 c 2
 636 -222 l 1
 636 -422 l 1
 580 -422 l 2
 284 -422 264 -252 264 89 c 3
 264 275 251 444 57 448 c 9
 57 612 l 17
EndSplineSet
Validated: 1
Layer: 2
SplineSet
57 612 m 17,0,1
 98 613 98 613 129.5 624 c 128,-1,2
 161 635 161 635 183 652 c 128,-1,3
 205 669 205 669 220 697 c 128,-1,4
 235 725 235 725 243.5 752.5 c 128,-1,5
 252 780 252 780 257 820 c 128,-1,6
 262 860 262 860 263 892.5 c 128,-1,7
 264 925 264 925 264 971 c 0,8,9
 264 1043 264 1043 265.5 1091.5 c 128,-1,10
 267 1140 267 1140 272 1194.5 c 128,-1,11
 277 1249 277 1249 286 1283.5 c 128,-1,12
 295 1318 295 1318 311 1354 c 128,-1,13
 327 1390 327 1390 350 1411 c 128,-1,14
 373 1432 373 1432 405.5 1449.5 c 128,-1,15
 438 1467 438 1467 481.5 1474.5 c 128,-1,16
 525 1482 525 1482 580 1482 c 2,17,-1
 636 1482 l 1,18,-1
 636 1282 l 1,19,-1
 595 1282 l 2,20,21
 550 1282 550 1282 527 1257.5 c 128,-1,22
 504 1233 504 1233 494 1170 c 128,-1,23
 484 1107 484 1107 484 981 c 0,24,25
 484 789 484 789 447 692 c 128,-1,26
 410 595 410 595 308 530 c 1,27,28
 410 465 410 465 447 368 c 128,-1,29
 484 271 484 271 484 79 c 0,30,31
 484 -47 484 -47 494 -110 c 128,-1,32
 504 -173 504 -173 527 -197.5 c 128,-1,33
 550 -222 550 -222 595 -222 c 2,34,-1
 636 -222 l 1,35,-1
 636 -422 l 1,36,-1
 580 -422 l 2,37,38
 525 -422 525 -422 481.5 -414.5 c 128,-1,39
 438 -407 438 -407 405.5 -389.5 c 128,-1,40
 373 -372 373 -372 350 -351 c 128,-1,41
 327 -330 327 -330 311 -294 c 128,-1,42
 295 -258 295 -258 286 -223.5 c 128,-1,43
 277 -189 277 -189 272 -134.5 c 128,-1,44
 267 -80 267 -80 265.5 -31.5 c 128,-1,45
 264 17 264 17 264 89 c 0,46,47
 264 135 264 135 263 167.5 c 128,-1,48
 262 200 262 200 257 240 c 128,-1,49
 252 280 252 280 243.5 307.5 c 128,-1,50
 235 335 235 335 220 363 c 128,-1,51
 205 391 205 391 183 408 c 128,-1,52
 161 425 161 425 129.5 436 c 128,-1,53
 98 447 98 447 57 448 c 1,54,-1
 57 612 l 17,0,1
EndSplineSet
EndChar

StartChar: bar
Encoding: 124 124 96
Width: 532
Flags: W
VStem: 156 220<-431 1491>
LayerCount: 3
Fore
SplineSet
156 -431 m 1
 156 1491 l 1
 376 1491 l 1
 376 -431 l 1
 156 -431 l 1
EndSplineSet
Validated: 1
Layer: 2
SplineSet
156 -431 m 1,0,-1
 156 1491 l 1,1,-1
 376 1491 l 1,2,-1
 376 -431 l 1,3,-1
 156 -431 l 1,0,-1
EndSplineSet
EndChar

StartChar: braceright
Encoding: 125 125 97
Width: 684
Flags: W
HStem: -422 200<48 168.443> 448 164<497.68 627> 1282 200<48 168.443>
VStem: 200 220<-191.475 359.354 700.646 1251.47>
CounterMasks: 1 e0
LayerCount: 3
Fore
SplineSet
627 612 m 9
 627 448 l 17
 433 444 420 275 420 89 c 3
 420 -252 400 -422 104 -422 c 2
 48 -422 l 1
 48 -222 l 1
 89 -222 l 2
 176 -222 200 -168 200 79 c 3
 200 331 238 442 376 530 c 1
 238 618 200 729 200 981 c 3
 200 1228 176 1282 89 1282 c 2
 48 1282 l 1
 48 1482 l 1
 104 1482 l 2
 400 1482 420 1312 420 971 c 3
 420 785 433 616 627 612 c 9
EndSplineSet
Validated: 1
Layer: 2
SplineSet
627 612 m 9,0,-1
 627 448 l 1,1,2
 586 447 586 447 554.5 436 c 128,-1,3
 523 425 523 425 501 408 c 128,-1,4
 479 391 479 391 464 363 c 128,-1,5
 449 335 449 335 440.5 307.5 c 128,-1,6
 432 280 432 280 427 240 c 128,-1,7
 422 200 422 200 421 167.5 c 128,-1,8
 420 135 420 135 420 89 c 0,9,10
 420 17 420 17 418.5 -31.5 c 128,-1,11
 417 -80 417 -80 412 -134.5 c 128,-1,12
 407 -189 407 -189 398 -223.5 c 128,-1,13
 389 -258 389 -258 373 -294 c 128,-1,14
 357 -330 357 -330 334 -351 c 128,-1,15
 311 -372 311 -372 278.5 -389.5 c 128,-1,16
 246 -407 246 -407 202.5 -414.5 c 128,-1,17
 159 -422 159 -422 104 -422 c 2,18,-1
 48 -422 l 1,19,-1
 48 -222 l 1,20,-1
 89 -222 l 2,21,22
 134 -222 134 -222 157 -197.5 c 128,-1,23
 180 -173 180 -173 190 -110 c 128,-1,24
 200 -47 200 -47 200 79 c 0,25,26
 200 271 200 271 237 368 c 128,-1,27
 274 465 274 465 376 530 c 1,28,29
 274 595 274 595 237 692 c 128,-1,30
 200 789 200 789 200 981 c 0,31,32
 200 1107 200 1107 190 1170 c 128,-1,33
 180 1233 180 1233 157 1257.5 c 128,-1,34
 134 1282 134 1282 89 1282 c 2,35,-1
 48 1282 l 1,36,-1
 48 1482 l 1,37,-1
 104 1482 l 2,38,39
 159 1482 159 1482 202.5 1474.5 c 128,-1,40
 246 1467 246 1467 278.5 1449.5 c 128,-1,41
 311 1432 311 1432 334 1411 c 128,-1,42
 357 1390 357 1390 373 1354 c 128,-1,43
 389 1318 389 1318 398 1283.5 c 128,-1,44
 407 1249 407 1249 412 1194.5 c 128,-1,45
 417 1140 417 1140 418.5 1091.5 c 128,-1,46
 420 1043 420 1043 420 971 c 0,47,48
 420 925 420 925 421 892.5 c 128,-1,49
 422 860 422 860 427 820 c 128,-1,50
 432 780 432 780 440.5 752.5 c 128,-1,51
 449 725 449 725 464 697 c 128,-1,52
 479 669 479 669 501 652 c 128,-1,53
 523 635 523 635 554.5 624 c 128,-1,54
 586 613 586 613 627 612 c 9,0,-1
EndSplineSet
EndChar

StartChar: asciitilde
Encoding: 126 126 98
Width: 1196
Flags: W
HStem: 540 220<688.953 994.271> 674 220<197.32 520.352>
LayerCount: 3
Fore
SplineSet
348 674 m 3x40
 246 674 178 626 87 538 c 1
 87 774 l 1
 158 854 250 894 365 894 c 3x40
 559 894 716 760 852 760 c 3
 955 760 1055 838 1110 897 c 1
 1110 654 l 1
 1025 575 944 540 833 540 c 3x80
 635 540 510 674 348 674 c 3x40
EndSplineSet
Validated: 1
Layer: 2
SplineSet
348 674 m 3,0,1
 276 674 276 674 218.5 642 c 128,-1,2
 161 610 161 610 87 538 c 1,3,-1
 87 774 l 1,4,5
 193 894 193 894 365 894 c 0,6,7
 430 894 430 894 503.5 873 c 128,-1,8
 577 852 577 852 630.5 827 c 128,-1,9
 684 802 684 802 745.5 781 c 128,-1,10
 807 760 807 760 852 760 c 0,11,12
 922 760 922 760 990.5 801.5 c 128,-1,13
 1059 843 1059 843 1110 897 c 1,14,-1
 1110 654 l 1,15,16
 1046 594 1046 594 980.5 567 c 128,-1,17
 915 540 915 540 833 540 c 0,18,19
 767 540 767 540 697 561 c 128,-1,20
 627 582 627 582 577 607 c 128,-1,21
 527 632 527 632 464.5 653 c 128,-1,22
 402 674 402 674 348 674 c 3,0,1
EndSplineSet
EndChar

StartChar: exclamdown
Encoding: 161 161 100
Width: 569
Flags: W
HStem: 0 21G<168 408> 1065 20G<209.644 365.388> 1256 194<176 400>
VStem: 168 240<0 657.569 1256 1450>
LayerCount: 3
Fore
SplineSet
408 451 m 1
 408 0 l 1
 168 0 l 1
 168 451 l 1
 211 1085 l 1
 364 1085 l 1
 408 451 l 1
400 1256 m 1
 176 1256 l 1
 176 1450 l 1
 400 1450 l 1
 400 1256 l 1
EndSplineSet
Validated: 1
Layer: 2
SplineSet
408 451 m 1,0,-1
 408 0 l 1,1,-1
 168 0 l 1,2,-1
 168 451 l 1,3,-1
 211 1085 l 1,4,-1
 364 1085 l 1,5,-1
 408 451 l 1,0,-1
400 1256 m 1,6,-1
 176 1256 l 1,7,-1
 176 1450 l 1,8,-1
 400 1450 l 1,9,-1
 400 1256 l 1,6,-1
EndSplineSet
EndChar

StartChar: cent
Encoding: 162 162 101
Width: 1118
Flags: W
HStem: -14 206<724 853.621> 821 226<891.335 991> 925 202<724 857.889> 1455 20G<504 724>
VStem: 98 220<332.623 786.831> 504 220<-361 -9 201 917 1119.9 1475>
LayerCount: 3
Fore
SplineSet
724 -361 m 1xbc
 504 -361 l 1
 504 -9 l 1
 233 40 98 274 98 557 c 3
 98 853 246 1076 504 1125 c 1
 504 1475 l 1
 724 1475 l 1
 724 1127 l 1xbc
 829 1112 921 1078 991 1047 c 1
 991 821 l 1
 959 821 l 1xdc
 872 884 791 912 724 925 c 1
 724 192 l 1
 790 205 868 234 959 297 c 1
 991 297 l 1
 991 73 l 1
 982 68 l 1
 868 15 798 -6 724 -14 c 1
 724 -361 l 1xbc
504 201 m 1
 504 917 l 1
 407 881 318 785 318 557 c 3
 318 336 408 238 504 201 c 1
EndSplineSet
Validated: 1
Layer: 2
SplineSet
724 -361 m 1,0,-1
 504 -361 l 1,1,-1
 504 -9 l 1,2,3
 307 27 307 27 202.5 181.5 c 128,-1,4
 98 336 98 336 98 557 c 0,5,6
 98 782 98 782 205.5 935.5 c 128,-1,7
 313 1089 313 1089 504 1125 c 1,8,-1
 504 1475 l 1,9,-1
 724 1475 l 1,10,-1
 724 1127 l 1,11,12
 851 1109 851 1109 991 1047 c 1,13,-1
 991 821 l 1,14,-1
 959 821 l 1,15,16
 849 901 849 901 724 925 c 1,17,-1
 724 192 l 1,18,19
 840 215 840 215 959 297 c 1,20,-1
 991 297 l 1,21,-1
 991 73 l 1,22,-1
 982 68 l 1,23,24
 830 -3 830 -3 724 -14 c 1,25,-1
 724 -361 l 1,0,-1
504 201 m 1,26,-1
 504 917 l 1,27,28
 318 848 318 848 318 557 c 0,29,30
 318 404 318 404 370 318.5 c 128,-1,31
 422 233 422 233 504 201 c 1,26,-1
EndSplineSet
EndChar

StartChar: sterling
Encoding: 163 163 102
Width: 1118
Flags: W
HStem: 0 200<299 1047> 597 200<114 277 497 863> 1231 235<908.147 1017> 1318 200<582.772 912.744>
VStem: 277 220<369.326 597 797 1222.32>
LayerCount: 3
Fore
SplineSet
986 1231 m 1xe8
 901 1290 805 1318 727 1318 c 3
 564 1318 497 1212 497 1036 c 2
 497 797 l 1
 863 797 l 1
 863 597 l 1
 497 597 l 1
 497 353 390 262 299 200 c 1
 1047 200 l 1
 1047 0 l 1
 73 0 l 1
 73 232 l 1
 231 279 275 384 277 597 c 1
 114 597 l 1
 114 797 l 1
 277 797 l 1
 277 1055 l 2
 277 1331 450 1518 708 1518 c 3xd8
 787 1518 859 1511 1017 1466 c 1
 1017 1231 l 1
 986 1231 l 1xe8
EndSplineSet
Validated: 1
Layer: 2
SplineSet
986 1231 m 1,0,1
 861 1318 861 1318 727 1318 c 0,2,3
 497 1318 497 1318 497 1036 c 2,4,-1
 497 797 l 1,5,-1
 863 797 l 1,6,-1
 863 597 l 1,7,-1
 497 597 l 1,8,9
 497 527 497 527 484.5 468 c 128,-1,10
 472 409 472 409 454 370 c 128,-1,11
 436 331 436 331 407.5 296 c 128,-1,12
 379 261 379 261 355.5 241.5 c 128,-1,13
 332 222 332 222 299 200 c 1,14,-1
 1047 200 l 1,15,-1
 1047 0 l 1,16,-1
 73 0 l 1,17,-1
 73 232 l 1,18,19
 188 266 188 266 231.5 349 c 128,-1,20
 275 432 275 432 277 597 c 1,21,-1
 114 597 l 1,22,-1
 114 797 l 1,23,-1
 277 797 l 1,24,-1
 277 1055 l 2,25,26
 277 1262 277 1262 396 1390 c 128,-1,27
 515 1518 515 1518 708 1518 c 0,28,29
 834 1518 834 1518 1017 1466 c 1,30,-1
 1017 1231 l 1,31,-1
 986 1231 l 1,0,1
EndSplineSet
EndChar

StartChar: currency
Encoding: 164 164 103
Width: 1118
Flags: W
HStem: 310 200<466.4 653.786> 812 200<466.178 653.237>
VStem: 209 220<547.92 774.264> 691 220<547.948 774.134>
DStem2: 172 1180 42 1051 0.707496 -0.706717<0 319.502 965.62 1284.01> 43 273 170 141 0.706718 0.707495<0 318.388 963.122 1280.57>
LayerCount: 3
Fore
SplineSet
911 661 m 3
 911 608 897 546 863 488 c 1
 1080 272 l 1
 951 143 l 1
 735 358 l 1
 676 324 629 310 560 310 c 3
 492 310 429 334 387 359 c 1
 170 141 l 1
 43 273 l 1
 257 489 l 1
 223 549 209 613 209 661 c 3
 209 729 231 787 258 833 c 1
 42 1051 l 1
 172 1180 l 1
 388 964 l 1
 448 1000 508 1012 560 1012 c 3
 628 1012 689 989 733 965 c 1
 948 1179 l 1
 1080 1052 l 1
 863 834 l 1
 895 780 911 729 911 661 c 3
560 510 m 3
 641 510 691 586 691 661 c 3
 691 736 641 812 560 812 c 3
 479 812 429 736 429 661 c 3
 429 586 479 510 560 510 c 3
EndSplineSet
Validated: 1
Layer: 2
SplineSet
911 661 m 3,0,1
 911 570 911 570 863 488 c 1,2,-1
 1080 272 l 1,3,-1
 951 143 l 1,4,-1
 735 358 l 1,5,6
 652 310 652 310 560 310 c 0,7,8
 469 310 469 310 387 359 c 1,9,-1
 170 141 l 1,10,-1
 43 273 l 1,11,-1
 257 489 l 1,12,13
 209 574 209 574 209 661 c 0,14,15
 209 750 209 750 258 833 c 1,16,-1
 42 1051 l 1,17,-1
 172 1180 l 1,18,-1
 388 964 l 1,19,20
 468 1012 468 1012 560 1012 c 0,21,22
 647 1012 647 1012 733 965 c 1,23,-1
 948 1179 l 1,24,-1
 1080 1052 l 1,25,-1
 863 834 l 1,26,27
 911 753 911 753 911 661 c 3,0,1
560 510 m 131,-1,29
 618 510 618 510 654.5 555.5 c 128,-1,30
 691 601 691 601 691 661 c 128,-1,31
 691 721 691 721 654.5 766.5 c 128,-1,32
 618 812 618 812 560 812 c 128,-1,33
 502 812 502 812 465.5 766.5 c 128,-1,34
 429 721 429 721 429 661 c 128,-1,35
 429 601 429 601 465.5 555.5 c 128,-1,28
 502 510 502 510 560 510 c 131,-1,29
EndSplineSet
EndChar

StartChar: yen
Encoding: 165 165 104
Width: 1118
Flags: W
HStem: 0 21G<439 679> 320 220<99 439 679 1019> 1431 20G<14 292.187 831.68 1101>
VStem: 439 240<0 320 540 587>
DStem2: 283 1451 14 1451 0.443058 -0.896493<0 663.312> 560 848 677 608 0.449332 0.893365<0 664.961>
LayerCount: 3
Fore
SplineSet
1101 1451 m 1
 677 608 l 1
 677 540 l 1
 1019 540 l 1
 1019 320 l 1
 679 320 l 1
 679 0 l 1
 439 0 l 1
 439 320 l 1
 99 320 l 1
 99 540 l 1
 441 540 l 1
 441 587 l 1
 14 1451 l 1
 283 1451 l 1
 560 848 l 1
 841 1451 l 1
 1101 1451 l 1
EndSplineSet
Validated: 1
Layer: 2
SplineSet
1101 1451 m 1,0,-1
 677 608 l 1,1,-1
 677 540 l 1,2,-1
 1019 540 l 1,3,-1
 1019 320 l 1,4,-1
 679 320 l 1,5,-1
 679 0 l 1,6,-1
 439 0 l 1,7,-1
 439 320 l 1,8,-1
 99 320 l 1,9,-1
 99 540 l 1,10,-1
 441 540 l 1,11,-1
 441 587 l 1,12,-1
 14 1451 l 1,13,-1
 283 1451 l 1,14,-1
 560 848 l 1,15,-1
 841 1451 l 1,16,-1
 1101 1451 l 1,0,-1
EndSplineSet
EndChar

StartChar: brokenbar
Encoding: 166 166 105
Width: 783
Flags: W
VStem: 281 220<-392 406 758 1556>
LayerCount: 3
Fore
SplineSet
501 758 m 1
 281 758 l 1
 281 1556 l 1
 501 1556 l 1
 501 758 l 1
501 -392 m 1
 281 -392 l 1
 281 406 l 1
 501 406 l 1
 501 -392 l 1
EndSplineSet
Validated: 1
Layer: 2
SplineSet
501 758 m 1,0,-1
 281 758 l 1,1,-1
 281 1556 l 1,2,-1
 501 1556 l 1,3,-1
 501 758 l 1,0,-1
501 -392 m 1,4,-1
 281 -392 l 1,5,-1
 281 406 l 1,6,-1
 501 406 l 1,7,-1
 501 -392 l 1,4,-1
EndSplineSet
EndChar

StartChar: section
Encoding: 167 167 106
Width: 1118
Flags: W
HStem: -404 200<279.834 691.615> -338 221<156 284.552> 1252 221<832.039 962> 1339 200<422.174 834.038>
VStem: 103 220<450.538 706.987> 132 220<1062.59 1276.44> 765 220<-139.153 78.2885> 794 220<423.176 678.244>
DStem2: 527 995 452 802 0.962064 -0.272824<-47.6195 316.226> 497 384 456 177 0.955286 -0.295684<-170.596 203.699>
LayerCount: 3
Back
SplineSet
667 315 m 1x09
 700 335 810 411 810 555 c 0
 810 711 707 745 549 788 c 1
 450 819 l 1
 324 741 308 624 308 579 c 0
 308 444 385 402 492 369 c 2
 667 315 l 1x09
490 -385 m 0x92
 368 -385 263 -360 172 -327 c 1
 172 -133 l 1
 182 -133 l 1x42
 245 -166 370 -220 509 -220 c 0
 618 -220 776 -183 776 -36 c 0
 776 76 711 121 594 154 c 2
 460 192 l 2
 287 242 119 308 119 533 c 0x8a
 119 611 144 752 318 858 c 1
 318 865 l 1
 249 902 148 978 148 1147 c 0
 148 1320 268 1519 628 1519 c 0x94
 755 1519 848 1497 946 1462 c 1
 946 1268 l 1
 936 1268 l 1x24
 765 1354 660 1355 607 1355 c 0
 470 1355 340 1302 340 1176 c 0
 340 1036 430 1000 657 942 c 1
 863 887 998 805 998 601 c 0x15
 998 516 973 381 799 277 c 1
 799 270 l 1
 872 231 969 158 969 -10 c 0
 969 -160 866 -385 490 -385 c 0x92
EndSplineSet
Fore
SplineSet
665 332 m 1x09
 703 356 794 428 794 555 c 3
 794 699 703 724 545 773 c 2
 452 802 l 1
 337 727 323 620 323 579 c 3
 323 453 391 417 497 384 c 2
 665 332 l 1x09
932 1252 m 1x24
 765 1336 659 1339 607 1339 c 3
 471 1339 352 1287 352 1176 c 3
 352 1078 412 1028 527 995 c 2
 661 957 l 2
 869 898 1014 815 1014 601 c 3x15
 1014 515 989 380 825 274 c 1
 899 231 985 151 985 -10 c 3
 985 -168 874 -404 490 -404 c 3x92
 361 -404 252 -373 156 -338 c 1
 156 -117 l 1
 186 -117 l 1x42
 249 -150 372 -204 509 -204 c 3
 618 -204 765 -167 765 -36 c 3
 765 67 705 107 590 139 c 2
 456 177 l 2
 283 227 103 296 103 533 c 3x8a
 103 612 130 754 293 861 c 1
 222 903 132 985 132 1147 c 3
 132 1329 261 1539 628 1539 c 3x94
 762 1539 860 1510 962 1473 c 1
 962 1252 l 1
 932 1252 l 1x24
EndSplineSet
Validated: 1
Layer: 2
SplineSet
665 332 m 1,0,1
 684 344 684 344 702 360 c 128,-1,2
 720 376 720 376 743 403.5 c 128,-1,3
 766 431 766 431 780 471 c 128,-1,4
 794 511 794 511 794 555 c 0,5,6
 794 596 794 596 782.5 627 c 128,-1,7
 771 658 771 658 755 677.5 c 128,-1,8
 739 697 739 697 703.5 715 c 128,-1,9
 668 733 668 733 639.5 743 c 128,-1,10
 611 753 611 753 555.150498935 769.855056155 c 0,11,12
 553 771 553 771 551.5 771 c 128,-1,13
 550 771 550 771 548.5 772 c 128,-1,14
 547 773 547 773 545 773 c 2,15,-1
 452 802 l 1,16,17
 412 776 412 776 384 742.5 c 128,-1,18
 356 709 356 709 344 676.5 c 128,-1,19
 332 644 332 644 327.5 621.5 c 128,-1,20
 323 599 323 599 323 579 c 0,21,22
 323 492 323 492 364.5 452 c 128,-1,23
 406 412 406 412 497 384 c 2,24,-1
 665 332 l 1,0,1
932 1252 m 1,25,26
 759 1339 759 1339 607 1339 c 0,27,28
 498 1339 498 1339 425 1297 c 128,-1,29
 352 1255 352 1255 352 1176 c 0,30,31
 352 1105 352 1105 395 1063 c 128,-1,32
 438 1021 438 1021 527 995 c 2,33,-1
 661 957 l 2,34,35
 746 933 746 933 805 906 c 128,-1,36
 864 879 864 879 914 838 c 128,-1,37
 964 797 964 797 989 738 c 128,-1,38
 1014 679 1014 679 1014 601 c 0,39,40
 1014 396 1014 396 825 274 c 1,41,42
 985 181 985 181 985 -10 c 0,43,44
 985 -61 985 -61 971 -112 c 128,-1,45
 957 -163 957 -163 921 -216.5 c 128,-1,46
 885 -270 885 -270 831 -311 c 128,-1,47
 777 -352 777 -352 688.5 -378 c 128,-1,48
 600 -404 600 -404 490 -404 c 0,49,50
 337 -404 337 -404 156 -338 c 1,51,-1
 156 -117 l 1,52,-1
 186 -117 l 1,53,54
 352 -204 352 -204 509 -204 c 0,55,56
 554 -204 554 -204 596 -196 c 128,-1,57
 638 -188 638 -188 677.5 -170 c 128,-1,58
 717 -152 717 -152 741 -117.5 c 128,-1,59
 765 -83 765 -83 765 -36 c 0,60,61
 765 38 765 38 723.5 75.5 c 128,-1,62
 682 113 682 113 590 139 c 2,63,-1
 456 177 l 2,64,65
 394 195 394 195 351.5 210.5 c 128,-1,66
 309 226 309 226 258 255.5 c 128,-1,67
 207 285 207 285 176 320 c 128,-1,68
 145 355 145 355 124 410 c 128,-1,69
 103 465 103 465 103 533 c 0,70,71
 103 568 103 568 110.5 604 c 128,-1,72
 118 640 118 640 136.5 685.5 c 128,-1,73
 155 731 155 731 195 777 c 128,-1,74
 235 823 235 823 293 861 c 1,75,76
 132 956 132 956 132 1147 c 0,77,78
 132 1204 132 1204 148 1258 c 128,-1,79
 164 1312 164 1312 201.5 1363.5 c 128,-1,80
 239 1415 239 1415 294.5 1453.5 c 128,-1,81
 350 1492 350 1492 436 1515.5 c 128,-1,82
 522 1539 522 1539 628 1539 c 0,83,84
 780 1539 780 1539 962 1473 c 1,85,-1
 962 1252 l 1,86,-1
 932 1252 l 1,25,26
EndSplineSet
EndChar

StartChar: dieresis
Encoding: 168 168 107
Width: 1118
Flags: W
HStem: 1288 227<237 470 650 883>
VStem: 237 233<1288 1515> 650 233<1288 1515>
LayerCount: 3
Fore
SplineSet
883 1288 m 1
 650 1288 l 1
 650 1515 l 1
 883 1515 l 1
 883 1288 l 1
470 1288 m 1
 237 1288 l 1
 237 1515 l 1
 470 1515 l 1
 470 1288 l 1
EndSplineSet
Validated: 1
Layer: 2
SplineSet
883 1288 m 1,0,-1
 650 1288 l 1,1,-1
 650 1515 l 1,2,-1
 883 1515 l 1,3,-1
 883 1288 l 1,0,-1
470 1288 m 1,4,-1
 237 1288 l 1,5,-1
 237 1515 l 1,6,-1
 470 1515 l 1,7,-1
 470 1288 l 1,4,-1
EndSplineSet
EndChar

StartChar: copyright
Encoding: 169 169 108
Width: 1902
Flags: W
HStem: -226 142<713.827 1188.17> 164 200<837.592 1157.62> 245 226<1192.55 1290> 852 228<1191.93 1290> 959 200<837.874 1155.16> 1393 142<705.565 1196.44>
VStem: 70 148<408.797 901.126> 515 220<469.957 849.929> 1684 148<408.797 901.126>
LayerCount: 3
Back
SplineSet
1816 655 m 0x8780
 1816 169 1430 -210 951 -210 c 0
 465 -210 86 176 86 655 c 0
 86 1152 483 1519 951 1519 c 0
 1441 1519 1816 1130 1816 655 c 0x8780
1701 655 m 0
 1701 1088 1359 1409 952 1409 c 0
 527 1409 203 1070 203 655 c 0
 203 221 546 -100 952 -100 c 0
 1375 -100 1701 237 1701 655 c 0
986 327 m 0xcf80
 1124 327 1238 416 1258 434 c 1
 1274 434 l 1
 1274 255 l 1xa780
 1136 194 1076 180 982 180 c 0
 781 180 531 276 531 660 c 0
 531 973 718 1143 982 1143 c 0xcf80
 1099 1143 1202 1106 1274 1070 c 1
 1274 889 l 1
 1258 889 l 1x9780
 1203 937 1095 996 986 996 c 0
 878 996 716 948 716 660 c 0
 716 375 878 327 986 327 c 0xcf80
EndSplineSet
Fore
SplineSet
1832 655 m 3x8780
 1832 173 1433 -226 951 -226 c 3
 469 -226 70 173 70 655 c 3
 70 1136 469 1535 951 1535 c 3
 1433 1535 1832 1136 1832 655 c 3x8780
1684 655 m 3
 1684 1061 1354 1393 951 1393 c 3
 548 1393 218 1061 218 655 c 3
 218 250 547 -84 951 -84 c 3
 1355 -84 1684 250 1684 655 c 3
1252 852 m 1x9780
 1198 899 1093 959 986 959 c 3
 887 959 735 918 735 660 c 3
 735 405 887 364 986 364 c 3xcf80
 1122 364 1230 452 1252 471 c 1
 1290 471 l 1
 1290 245 l 1xa780
 1153 185 1079 164 982 164 c 3
 776 164 515 266 515 660 c 3
 515 981 710 1159 982 1159 c 3xcf80
 1108 1159 1213 1118 1290 1080 c 1
 1290 852 l 1
 1252 852 l 1x9780
EndSplineSet
Validated: 1
Layer: 2
SplineSet
1832 655 m 3,0,1
 1832 478 1832 478 1761.5 315 c 128,-1,2
 1691 152 1691 152 1572.5 33.5 c 128,-1,3
 1454 -85 1454 -85 1291 -155.5 c 128,-1,4
 1128 -226 1128 -226 951 -226 c 128,-1,5
 774 -226 774 -226 611 -155.5 c 128,-1,6
 448 -85 448 -85 329.5 33.5 c 128,-1,7
 211 152 211 152 140.5 315 c 128,-1,8
 70 478 70 478 70 655 c 0,9,10
 70 891 70 891 189 1094 c 128,-1,11
 308 1297 308 1297 511 1416 c 128,-1,12
 714 1535 714 1535 951 1535 c 128,-1,13
 1188 1535 1188 1535 1391 1416 c 128,-1,14
 1594 1297 1594 1297 1713 1094 c 128,-1,15
 1832 891 1832 891 1832 655 c 3,0,1
1684 655 m 3,16,17
 1684 805 1684 805 1625.5 941.5 c 128,-1,18
 1567 1078 1567 1078 1469 1177 c 128,-1,19
 1371 1276 1371 1276 1235 1334.5 c 128,-1,20
 1099 1393 1099 1393 951 1393 c 128,-1,21
 803 1393 803 1393 667 1334.5 c 128,-1,22
 531 1276 531 1276 433 1177 c 128,-1,23
 335 1078 335 1078 276.5 941.5 c 128,-1,24
 218 805 218 805 218 655 c 0,25,26
 218 506 218 506 276 369 c 128,-1,27
 334 232 334 232 432.5 133 c 128,-1,28
 531 34 531 34 666.5 -25 c 128,-1,29
 802 -84 802 -84 951 -84 c 128,-1,30
 1100 -84 1100 -84 1235.5 -25 c 128,-1,31
 1371 34 1371 34 1469.5 133 c 128,-1,32
 1568 232 1568 232 1626 369 c 128,-1,33
 1684 506 1684 506 1684 655 c 3,16,17
1252 852 m 1,34,35
 1204 894 1204 894 1131.5 926.5 c 128,-1,36
 1059 959 1059 959 986 959 c 0,37,38
 952 959 952 959 921.5 953 c 128,-1,39
 891 947 891 947 855.5 927.5 c 128,-1,40
 820 908 820 908 794.5 877 c 128,-1,41
 769 846 769 846 752 790 c 128,-1,42
 735 734 735 734 735 660 c 0,43,44
 735 587 735 587 752 531.5 c 128,-1,45
 769 476 769 476 794.5 445 c 128,-1,46
 820 414 820 414 855.5 395 c 128,-1,47
 891 376 891 376 921.5 370 c 128,-1,48
 952 364 952 364 986 364 c 0,49,50
 1033 364 1033 364 1080 377 c 128,-1,51
 1127 390 1127 390 1163.5 411 c 128,-1,52
 1200 432 1200 432 1219 445.5 c 128,-1,53
 1238 459 1238 459 1252 471 c 1,54,-1
 1290 471 l 1,55,-1
 1290 245 l 1,56,57
 1185 199 1185 199 1119.5 181.5 c 128,-1,58
 1054 164 1054 164 982 164 c 0,59,60
 916 164 916 164 854 177.5 c 128,-1,61
 792 191 792 191 729 226 c 128,-1,62
 666 261 666 261 619.5 315 c 128,-1,63
 573 369 573 369 544 457.5 c 128,-1,64
 515 546 515 546 515 660 c 0,65,66
 515 895 515 895 644 1027 c 128,-1,67
 773 1159 773 1159 982 1159 c 0,68,69
 1130 1159 1130 1159 1290 1080 c 1,70,-1
 1290 852 l 1,71,-1
 1252 852 l 1,34,35
EndSplineSet
EndChar

StartChar: ordfeminine
Encoding: 170 170 109
Width: 1010
Flags: W
HStem: 525 200<345.578 592.28> 999 200<391.943 670> 1286 200<173 403.205> 1335 200<223.5 642.738>
VStem: 98 220<753.592 937.111> 670 220<550 625 785.535 999 1197.11 1300.85>
LayerCount: 3
Back
SplineSet
483 1519 m 0xdc
 778 1519 874 1389 874 1194 c 2
 874 566 l 1
 708 566 l 1
 708 657 l 1
 657 618 l 1
 559 548 472 541 404 541 c 0
 238 541 114 662 114 839 c 0
 114 1115 340 1166 708 1184 c 1
 708 1203 l 2
 708 1333 631 1365 482 1365 c 0xdc
 425 1365 368 1361 204 1304 c 1
 189 1304 l 1
 189 1474 l 1xec
 221 1484 365 1519 483 1519 c 0xdc
461 696 m 0
 509 696 586 702 708 802 c 1
 708 1045 l 1
 500 1030 286 1031 286 849 c 0
 286 770 323 696 461 696 c 0
EndSplineSet
Fore
SplineSet
173 1486 m 1xec
 216 1499 352 1535 483 1535 c 3
 785 1535 890 1397 890 1194 c 2
 890 550 l 1
 670 550 l 1
 670 625 l 1
 597 549 481 525 404 525 c 3
 229 525 98 654 98 839 c 3
 98 1126 314 1180 670 1199 c 1
 670 1306 610 1335 482 1335 c 3xdc
 427 1335 369 1330 207 1286 c 1
 173 1286 l 1
 173 1486 l 1xec
461 725 m 3
 506 725 577 730 670 823 c 1
 670 999 l 1
 476 985 318 978 318 849 c 3
 318 790 347 725 461 725 c 3
EndSplineSet
Validated: 1
Layer: 2
SplineSet
173 1486 m 1,0,1
 335 1535 335 1535 483 1535 c 0,2,3
 890 1535 890 1535 890 1194 c 2,4,-1
 890 550 l 1,5,-1
 670 550 l 1,6,-1
 670 625 l 1,7,8
 620 573 620 573 546 549 c 128,-1,9
 472 525 472 525 404 525 c 0,10,11
 272 525 272 525 185 613 c 128,-1,12
 98 701 98 701 98 839 c 0,13,14
 98 924 98 924 124.5 985 c 128,-1,15
 151 1046 151 1046 195.5 1084 c 128,-1,16
 240 1122 240 1122 316 1146.5 c 128,-1,17
 392 1171 392 1171 472.5 1182 c 128,-1,18
 553 1193 553 1193 670 1199 c 1,19,20
 670 1277 670 1277 626 1306 c 128,-1,21
 582 1335 582 1335 482 1335 c 0,22,23
 387 1335 387 1335 207 1286 c 1,24,-1
 173 1286 l 1,25,-1
 173 1486 l 1,0,1
461 725 m 3,26,27
 572 725 572 725 670 823 c 1,28,-1
 670 999 l 1,29,30
 491.099716112 986.089670235 491.099716112 986.089670235 433.483581543 970.640167236 c 0,31,32
 327.71102721 942.277740504 327.71102721 942.277740504 318.893948866 865.214432164 c 0,33,34
 318 857.40111188 318 857.40111188 318 849 c 0,35,36
 318 796 318 796 350.5 760.5 c 128,-1,37
 383 725 383 725 461 725 c 3,26,27
EndSplineSet
EndChar

StartChar: guillemotleft
Encoding: 171 171 110
Width: 1174
Flags: W
DStem2: 87 704 306 652 0.753437 0.65752<130.812 562.88> 306 652 87 601 0.752749 -0.658308<0 432.072> 539 702 751 652 0.75905 0.651032<128.367 535.329> 751 652 539 603 0.758329 -0.651872<0 406.963>
LayerCount: 3
Fore
SplineSet
1059 156 m 1
 539 603 l 1
 539 702 l 1
 1059 1148 l 1
 1059 918 l 1
 751 652 l 1
 1059 386 l 1
 1059 156 l 1
629 127 m 1
 87 601 l 1
 87 704 l 1
 629 1177 l 1
 629 939 l 1
 306 652 l 1
 629 365 l 1
 629 127 l 1
EndSplineSet
Validated: 1
Layer: 2
SplineSet
1059 156 m 1,0,-1
 539 603 l 1,1,-1
 539 702 l 1,2,-1
 1059 1148 l 1,3,-1
 1059 918 l 1,4,-1
 751 652 l 1,5,-1
 1059 386 l 1,6,-1
 1059 156 l 1,0,-1
629 127 m 1,7,-1
 87 601 l 1,8,-1
 87 704 l 1,9,-1
 629 1177 l 1,10,-1
 629 939 l 1,11,-1
 306 652 l 1,12,-1
 629 365 l 1,13,-1
 629 127 l 1,7,-1
EndSplineSet
EndChar

StartChar: logicalnot
Encoding: 172 172 111
Width: 1490
Flags: W
HStem: 578 200<141 1119>
VStem: 1119 220<41 578>
LayerCount: 3
Fore
SplineSet
1339 41 m 1
 1119 41 l 1
 1119 578 l 1
 141 578 l 1
 141 778 l 1
 1339 778 l 1
 1339 41 l 1
EndSplineSet
Validated: 1
Layer: 2
SplineSet
1339 41 m 1,0,-1
 1119 41 l 1,1,-1
 1119 578 l 1,2,-1
 141 578 l 1,3,-1
 141 778 l 1,4,-1
 1339 778 l 1,5,-1
 1339 41 l 1,0,-1
EndSplineSet
EndChar

StartChar: registered
Encoding: 174 174 113
Width: 1902
Flags: W
HStem: -226 142<713.827 1188.17> 554 200<854 930> 946 200<854 1085.3> 1393 142<705.565 1196.44>
VStem: 70 148<408.797 901.126> 634 220<199 554 754 946> 1098 220<784.564 928.707> 1684 148<408.797 901.126>
DStem2: 1149 619 930 554 0.62242 -0.782684<0 368.562>
LayerCount: 3
Back
SplineSet
1816 655 m 0
 1816 169 1430 -210 951 -210 c 0
 465 -210 86 176 86 655 c 0
 86 1152 483 1519 951 1519 c 0
 1441 1519 1816 1130 1816 655 c 0
1701 655 m 0
 1701 1088 1359 1409 952 1409 c 0
 527 1409 203 1070 203 655 c 0
 203 221 546 -100 952 -100 c 0
 1375 -100 1701 237 1701 655 c 0
1302 879 m 0
 1302 773 1253 676 1102 615 c 1
 1448 215 l 1
 1221 215 l 1
 938 570 l 1
 815 570 l 1
 815 215 l 1
 650 215 l 1
 650 1130 l 1
 929 1130 l 2
 1006 1130 1302 1146 1302 879 c 0
913 696 m 2
 1074 696 1120 765 1120 868 c 0
 1120 991 1024 1005 930 1005 c 2
 815 1005 l 1
 815 696 l 1
 913 696 l 2
EndSplineSet
Fore
SplineSet
1832 655 m 3
 1832 173 1433 -226 951 -226 c 3
 469 -226 70 173 70 655 c 3
 70 1136 469 1535 951 1535 c 3
 1433 1535 1832 1136 1832 655 c 3
1684 655 m 3
 1684 1061 1354 1393 951 1393 c 3
 548 1393 218 1061 218 655 c 3
 218 250 547 -84 951 -84 c 3
 1355 -84 1684 250 1684 655 c 3
1318 879 m 3
 1318 772 1270 682 1149 619 c 1
 1483 199 l 1
 1213 199 l 1
 930 554 l 1
 854 554 l 1
 854 199 l 1
 634 199 l 1
 634 1146 l 1
 929 1146 l 2
 1177 1146 1318 1062 1318 879 c 3
913 754 m 2
 1067 754 1098 815 1098 868 c 3
 1098 934 1025 946 930 946 c 2
 854 946 l 1
 854 754 l 1
 913 754 l 2
EndSplineSet
Validated: 1
Layer: 2
SplineSet
1832 655 m 3,0,1
 1832 478 1832 478 1761.5 315 c 128,-1,2
 1691 152 1691 152 1572.5 33.5 c 128,-1,3
 1454 -85 1454 -85 1291 -155.5 c 128,-1,4
 1128 -226 1128 -226 951 -226 c 128,-1,5
 774 -226 774 -226 611 -155.5 c 128,-1,6
 448 -85 448 -85 329.5 33.5 c 128,-1,7
 211 152 211 152 140.5 315 c 128,-1,8
 70 478 70 478 70 655 c 0,9,10
 70 891 70 891 189 1094 c 128,-1,11
 308 1297 308 1297 511 1416 c 128,-1,12
 714 1535 714 1535 951 1535 c 128,-1,13
 1188 1535 1188 1535 1391 1416 c 128,-1,14
 1594 1297 1594 1297 1713 1094 c 128,-1,15
 1832 891 1832 891 1832 655 c 3,0,1
1684 655 m 3,16,17
 1684 805 1684 805 1625.5 941.5 c 128,-1,18
 1567 1078 1567 1078 1469 1177 c 128,-1,19
 1371 1276 1371 1276 1235 1334.5 c 128,-1,20
 1099 1393 1099 1393 951 1393 c 128,-1,21
 803 1393 803 1393 667 1334.5 c 128,-1,22
 531 1276 531 1276 433 1177 c 128,-1,23
 335 1078 335 1078 276.5 941.5 c 128,-1,24
 218 805 218 805 218 655 c 0,25,26
 218 506 218 506 276 369 c 128,-1,27
 334 232 334 232 432.5 133 c 128,-1,28
 531 34 531 34 666.5 -25 c 128,-1,29
 802 -84 802 -84 951 -84 c 128,-1,30
 1100 -84 1100 -84 1235.5 -25 c 128,-1,31
 1371 34 1371 34 1469.5 133 c 128,-1,32
 1568 232 1568 232 1626 369 c 128,-1,33
 1684 506 1684 506 1684 655 c 3,16,17
1318 879 m 3,34,35
 1318 707 1318 707 1149 619 c 1,36,-1
 1483 199 l 1,37,-1
 1213 199 l 1,38,-1
 930 554 l 1,39,-1
 854 554 l 1,40,-1
 854 199 l 1,41,-1
 634 199 l 1,42,-1
 634 1146 l 1,43,-1
 929 1146 l 2,44,45
 1318 1146 1318 1146 1318 879 c 3,34,35
913 754 m 2,46,47
 1098 754 1098 754 1098 868 c 0,48,49
 1098 914 1098 914 1054.5 930 c 128,-1,50
 1011 946 1011 946 930 946 c 2,51,-1
 854 946 l 1,52,-1
 854 754 l 1,53,-1
 913 754 l 2,46,47
EndSplineSet
EndChar

StartChar: macron
Encoding: 175 175 114
Width: 1118
Flags: W
HStem: 1643 162<-16 1134>
LayerCount: 3
Fore
SplineSet
1134 1643 m 1
 -16 1643 l 1
 -16 1805 l 1
 1134 1805 l 1
 1134 1643 l 1
EndSplineSet
Validated: 1
Layer: 2
SplineSet
1134 1643 m 1,0,-1
 -16 1643 l 1,1,-1
 -16 1805 l 1,2,-1
 1134 1805 l 1,3,-1
 1134 1643 l 1,0,-1
EndSplineSet
EndChar

StartChar: degree
Encoding: 176 176 115
Width: 964
Flags: W
HStem: 739 200<379.452 585.911> 1331 200<378.724 585.545>
VStem: 85 220<1012.94 1256.67> 659 220<1012.53 1258.1>
LayerCount: 3
Fore
SplineSet
482 1531 m 3
 703 1531 879 1363 879 1135 c 3
 879 908 704 739 482 739 c 3
 262 739 85 905 85 1135 c 3
 85 1362 260 1531 482 1531 c 3
482 939 m 3
 576 939 659 1037 659 1135 c 3
 659 1244 567 1331 482 1331 c 3
 391 1331 305 1238 305 1135 c 3
 305 1024 401 939 482 939 c 3
EndSplineSet
Validated: 1
Layer: 2
SplineSet
482 1531 m 131,-1,1
 649 1531 649 1531 764 1418 c 128,-1,2
 879 1305 879 1305 879 1135 c 0,3,4
 879 966 879 966 764 852.5 c 128,-1,5
 649 739 649 739 482 739 c 128,-1,6
 315 739 315 739 200 851.5 c 128,-1,7
 85 964 85 964 85 1135 c 0,8,9
 85 1304 85 1304 200 1417.5 c 128,-1,0
 315 1531 315 1531 482 1531 c 131,-1,1
482 939 m 3,10,11
 552 939 552 939 605.5 999.5 c 128,-1,12
 659 1060 659 1060 659 1135 c 0,13,14
 659 1214 659 1214 603.5 1272.5 c 128,-1,15
 548 1331 548 1331 482 1331 c 0,16,17
 413 1331 413 1331 359 1271.5 c 128,-1,18
 305 1212 305 1212 305 1135 c 0,19,20
 305 1055 305 1055 361.5 997 c 128,-1,21
 418 939 418 939 482 939 c 3,10,11
EndSplineSet
EndChar

StartChar: plusminus
Encoding: 177 177 116
Width: 1490
Flags: W
HStem: 143 220<146 625 865 1344> 723 220<146 625 865 1344>
VStem: 625 240<363 723 943 1418>
LayerCount: 3
Fore
SplineSet
1344 143 m 1
 146 143 l 1
 146 363 l 1
 625 363 l 1
 625 723 l 1
 146 723 l 1
 146 943 l 1
 625 943 l 1
 625 1418 l 1
 865 1418 l 1
 865 943 l 1
 1344 943 l 1
 1344 723 l 1
 865 723 l 1
 865 363 l 1
 1344 363 l 1
 1344 143 l 1
EndSplineSet
Validated: 1
Layer: 2
SplineSet
1344 143 m 1,0,-1
 146 143 l 1,1,-1
 146 363 l 1,2,-1
 625 363 l 1,3,-1
 625 723 l 1,4,-1
 146 723 l 1,5,-1
 146 943 l 1,6,-1
 625 943 l 1,7,-1
 625 1418 l 1,8,-1
 865 1418 l 1,9,-1
 865 943 l 1,10,-1
 1344 943 l 1,11,-1
 1344 723 l 1,12,-1
 865 723 l 1,13,-1
 865 363 l 1,14,-1
 1344 363 l 1,15,-1
 1344 143 l 1,0,-1
EndSplineSet
EndChar

StartChar: uni00B2
Encoding: 178 178 117
Width: 1010
Flags: W
HStem: 534 200<450 819> 1318 200<416.292 585.86>
VStem: 175 220<1179 1294.99> 599 220<1120.67 1301.29>
LayerCount: 3
Fore
SplineSet
502 1518 m 3
 689 1518 818 1401 818 1233 c 3
 818 998 568 862 450 734 c 1
 819 734 l 1
 819 534 l 1
 150 534 l 1
 163 681 224 794 298 868 c 0
 439 1010 599 1105 599 1236 c 3
 599 1282 546 1318 501 1318 c 3
 421 1318 398 1266 395 1179 c 1
 175 1179 l 1
 175 1385 288 1518 502 1518 c 3
EndSplineSet
Validated: 1
Layer: 2
SplineSet
502 1518 m 3,0,1
 642 1518 642 1518 730 1438.5 c 128,-1,2
 818 1359 818 1359 818 1233 c 0,3,4
 818 1166 818 1166 792 1104.5 c 128,-1,5
 766 1043 766 1043 721 991.5 c 128,-1,6
 676 940 676 940 631.5 899 c 128,-1,7
 587 858 587 858 532.5 811 c 128,-1,8
 478 764 478 764 450 734 c 1,9,-1
 819 734 l 1,10,-1
 819 534 l 1,11,-1
 150 534 l 1,12,13
 168 738 168 738 298 868 c 0,14,15
 332 902 332 902 382.5 947 c 128,-1,16
 433 992 433 992 466 1022.5 c 128,-1,17
 499 1053 499 1053 532.5 1089.5 c 128,-1,18
 566 1126 566 1126 582.5 1162.5 c 128,-1,19
 599 1199 599 1199 599 1236 c 0,20,21
 599 1269 599 1269 567.5 1293.5 c 128,-1,22
 536 1318 536 1318 501 1318 c 0,23,24
 444 1318 444 1318 420.5 1283.5 c 128,-1,25
 397 1249 397 1249 395 1179 c 1,26,-1
 175 1179 l 1,27,28
 175 1336 175 1336 259.5 1427 c 128,-1,29
 344 1518 344 1518 502 1518 c 3,0,1
EndSplineSet
EndChar

StartChar: uni00B3
Encoding: 179 179 118
Width: 1010
Flags: W
HStem: 528 200<419.932 586.045> 946 200<390.268 552.013> 1318 200<421.421 554.274>
VStem: 168 220<756.332 863 1198 1289.59> 564 220<1161.39 1307.7> 608 220<751.392 921.44>
LayerCount: 3
Fore
SplineSet
828 845 m 3xf4
 828 661 681 528 490 528 c 3
 299 528 168 659 168 863 c 1
 388 863 l 1
 400 784 436 728 490 728 c 3
 572 728 608 780 608 842 c 3xf4
 608 900 559 946 480 946 c 3
 446 946 416 936 389 928 c 1
 389 1146 l 1
 531 1146 564 1165 564 1252 c 3
 564 1280 518 1318 490 1318 c 3
 428 1318 408 1273 400 1198 c 1
 180 1198 l 1
 180 1386 294 1518 485 1518 c 3
 649 1518 784 1411 784 1249 c 3xf8
 784 1170 769 1109 726 1068 c 1
 801 1027 828 945 828 845 c 3xf4
EndSplineSet
Validated: 1
Layer: 2
SplineSet
828 845 m 3,0,1
 828 708 828 708 731 618 c 128,-1,2
 634 528 634 528 490 528 c 128,-1,3
 346 528 346 528 257 619.5 c 128,-1,4
 168 711 168 711 168 863 c 1,5,-1
 388 863 l 1,6,7
 397 802 397 802 424 765 c 128,-1,8
 451 728 451 728 490 728 c 0,9,10
 548 728 548 728 578 760 c 128,-1,11
 608 792 608 792 608 842 c 0,12,13
 608 887 608 887 573 916.5 c 128,-1,14
 538 946 538 946 480 946 c 0,15,16
 450 946 450 946 389 928 c 1,17,-1
 389 1146 l 1,18,19
 496 1146 496 1146 530 1166.5 c 128,-1,20
 564 1187 564 1187 564 1252 c 0,21,22
 564 1273 564 1273 538 1295.5 c 128,-1,23
 512 1318 512 1318 490 1318 c 0,24,25
 446 1318 446 1318 426 1288.5 c 128,-1,26
 406 1259 406 1259 400 1198 c 1,27,-1
 180 1198 l 1,28,29
 180 1341 180 1341 262 1429.5 c 128,-1,30
 344 1518 344 1518 485 1518 c 0,31,32
 611 1518 611 1518 697.5 1443 c 128,-1,33
 784 1368 784 1368 784 1249 c 0,34,35
 784 1123 784 1123 726 1068 c 1,36,37
 828 1012 828 1012 828 845 c 3,0,1
EndSplineSet
EndChar

StartChar: acute
Encoding: 180 180 119
Width: 1118
Flags: W
HStem: 1286 406
VStem: 424 478
LayerCount: 3
Back
SplineSet
871 1676 m 1
 598 1302 l 1
 449 1302 l 1
 628 1676 l 1
 871 1676 l 1
EndSplineSet
Fore
SplineSet
902 1692 m 1
 606 1286 l 1
 424 1286 l 1
 618 1692 l 1
 902 1692 l 1
EndSplineSet
Validated: 1
Layer: 2
SplineSet
902 1692 m 1,0,-1
 606 1286 l 1,1,-1
 424 1286 l 1,2,-1
 618 1692 l 1,3,-1
 902 1692 l 1,0,-1
EndSplineSet
EndChar

StartChar: micro
Encoding: 181 181 120
Width: 1163
Flags: W
HStem: -13 200<417.368 740.953>
VStem: 120 220<-412 91 255.474 1117> 823 220<0 99 255.874 1117>
LayerCount: 3
Fore
SplineSet
578 187 m 3
 684 187 757 228 823 297 c 1
 823 1117 l 1
 1043 1117 l 1
 1043 0 l 1
 823 0 l 1
 823 99 l 1
 721 -1 658 -13 578 -13 c 3
 483 -13 420 10 340 91 c 1
 340 -412 l 1
 120 -412 l 1
 120 1117 l 1
 340 1117 l 1
 340 297 l 1
 401 227 480 187 578 187 c 3
EndSplineSet
Validated: 1
Layer: 2
SplineSet
578 187 m 3,0,1
 718 187 718 187 823 297 c 1,2,-1
 823 1117 l 1,3,-1
 1043 1117 l 1,4,-1
 1043 0 l 1,5,-1
 823 0 l 1,6,-1
 823 99 l 1,7,8
 752 30 752 30 699 8.5 c 128,-1,9
 646 -13 646 -13 578 -13 c 0,10,11
 505 -13 505 -13 451.5 9.5 c 128,-1,12
 398 32 398 32 340 91 c 1,13,-1
 340 -412 l 1,14,-1
 120 -412 l 1,15,-1
 120 1117 l 1,16,-1
 340 1117 l 1,17,-1
 340 297 l 1,18,19
 436 187 436 187 578 187 c 3,0,1
EndSplineSet
EndChar

StartChar: paragraph
Encoding: 182 182 121
Width: 1118
Flags: W
HStem: 1289 200<671 778>
VStem: 41 630<813.911 1242.18> 451 220<-363 566.389> 778 220<-363 1289>
LayerCount: 3
Fore
SplineSet
41 1034 m 0xd0
 41 1334 244 1489 512 1489 c 2
 998 1489 l 1
 998 -363 l 1
 778 -363 l 1
 778 1289 l 1
 671 1289 l 1
 671 -363 l 1
 451 -363 l 1
 451 562 l 1xb0
 225 575 41 756 41 1034 c 0xd0
EndSplineSet
Validated: 1
Layer: 2
SplineSet
41 1034 m 0,0,1
 41 1180 41 1180 103.5 1284.5 c 128,-1,2
 166 1389 166 1389 271 1439 c 128,-1,3
 376 1489 376 1489 512 1489 c 2,4,-1
 998 1489 l 1,5,-1
 998 -363 l 1,6,-1
 778 -363 l 1,7,-1
 778 1289 l 1,8,-1
 671 1289 l 1,9,-1
 671 -363 l 1,10,-1
 451 -363 l 1,11,-1
 451 562 l 1,12,13
 276 572 276 572 158.5 701.5 c 128,-1,14
 41 831 41 831 41 1034 c 0,0,1
EndSplineSet
EndChar

StartChar: periodcentered
Encoding: 183 183 122
Width: 724
Flags: W
HStem: 816 317<227 498>
VStem: 227 271<816 1133>
LayerCount: 3
Fore
SplineSet
498 816 m 1
 227 816 l 1
 227 1133 l 1
 498 1133 l 1
 498 816 l 1
EndSplineSet
Validated: 1
Layer: 2
SplineSet
498 816 m 1,0,-1
 227 816 l 1,1,-1
 227 1133 l 1,2,-1
 498 1133 l 1,3,-1
 498 816 l 1,0,-1
EndSplineSet
EndChar

StartChar: cedilla
Encoding: 184 184 123
Width: 1118
Flags: W
HStem: -428 200<289.633 546.082> -400 206<273 437.751>
VStem: 569 220<-203.061 47>
LayerCount: 3
Fore
SplineSet
301 -194 m 1x60
 345 -214 392 -228 440 -228 c 3
 526 -228 569 -190 569 -96 c 3
 569 -51 567 -40 564 47 c 1
 782 47 l 1
 785 11 789 -44 789 -78 c 3
 789 -354 597 -428 466 -428 c 3xa0
 428 -428 341 -420 273 -400 c 1
 273 -194 l 1
 301 -194 l 1x60
EndSplineSet
Validated: 1
Layer: 2
SplineSet
301 -194 m 1,0,1
 376 -228 376 -228 440 -228 c 0,2,3
 506 -228 506 -228 537.5 -196.5 c 128,-1,4
 569 -165 569 -165 569 -96 c 0,5,6
 569 -76 569 -76 568.5 -61 c 128,-1,7
 568 -46 568 -46 566.5 -16.5 c 128,-1,8
 565 13 565 13 564 47 c 1,9,-1
 782 47 l 1,10,11
 789 -37 789 -37 789 -78 c 0,12,13
 789 -157 789 -157 767.5 -220 c 128,-1,14
 746 -283 746 -283 713 -321 c 128,-1,15
 680 -359 680 -359 636 -384 c 128,-1,16
 592 -409 592 -409 550 -418.5 c 128,-1,17
 508 -428 508 -428 466 -428 c 0,18,19
 368 -428 368 -428 273 -400 c 1,20,-1
 273 -194 l 1,21,-1
 301 -194 l 1,0,1
EndSplineSet
EndChar

StartChar: uni0E01
Encoding: 3585 3585 124
Width: 1417
VWidth: 2045
Flags: W
HStem: 0 21G<260 480 1042 1262> 701 220<480 591> 1064 220<508.484 850.132>
VStem: 260 220<0 701> 1042 220<0 868.25>
LayerCount: 3
Fore
SplineSet
1042 700 m 2
 1042 909 875 1064 680 1064 c 0
 509 1064 417 951 395 921 c 1
 591 921 l 1
 591 701 l 1
 480 701 l 1
 480 0 l 1
 260 0 l 1
 260 701 l 1
 100 701 l 1
 100 1022 355 1284 682 1284 c 0
 990 1284 1262 1043 1262 702 c 2
 1262 0 l 1
 1042 0 l 1
 1042 700 l 2
EndSplineSet
Validated: 1
Layer: 2
SplineSet
1042 700 m 2,0,1
 1042 855 1042 855 935.5 959.5 c 128,-1,2
 829 1064 829 1064 680 1064 c 0,3,4
 632 1064 632 1064 587 1051.5 c 128,-1,5
 542 1039 542 1039 512 1022.5 c 128,-1,6
 482 1006 482 1006 455.5 983.5 c 128,-1,7
 429 961 429 961 417 947.5 c 128,-1,8
 405 934 405 934 395 921 c 1,9,-1
 591 921 l 1,10,-1
 591 701 l 1,11,-1
 480 701 l 1,12,-1
 480 0 l 1,13,-1
 260 0 l 1,14,-1
 260 701 l 1,15,-1
 100 701 l 1,16,17
 100 859 100 859 176.5 993 c 128,-1,18
 253 1127 253 1127 387.5 1205.5 c 128,-1,19
 522 1284 522 1284 682 1284 c 0,20,21
 836 1284 836 1284 968 1210.5 c 128,-1,22
 1100 1137 1100 1137 1181 1002.5 c 128,-1,23
 1262 868 1262 868 1262 702 c 2,24,-1
 1262 0 l 1,25,-1
 1042 0 l 1,26,-1
 1042 700 l 2,0,1
EndSplineSet
EndChar

StartChar: uni0E02
Encoding: 3586 3586 125
Width: 1410
VWidth: 2045
Flags: W
HStem: 0 220<411 521 741 1035> 633 188<269.808 424.186> 997 287<305.982 580.368> 1234 20G<1035 1255>
VStem: 74 183<832.587 980.215> 437 185<834.297 984.249> 521 220<220 584.484> 686 218<743.095 1021.11> 1035 220<220 1254>
LayerCount: 3
Fore
SplineSet
489 1284 m 0xed80
 746 1284 904 1106 904 893 c 0xed80
 904 666 741 607 741 440 c 2
 741 220 l 1
 1035 220 l 1
 1035 1254 l 1
 1255 1254 l 1
 1255 0 l 1
 411 0 l 1
 411 220 l 1
 521 220 l 1
 521 441 l 2xda80
 521 675 686 711 686 876 c 0
 686 951 665 1044 552 1089 c 1
 599 1032 622 971 622 907 c 0
 622 752 498 633 348 633 c 0
 193 633 74 757 74 907 c 8
 74 1126 296 1284 489 1284 c 0xed80
348 997 m 0
 298 997 257 956 257 909 c 0
 257 856 297 821 351 821 c 0
 404 821 437 864 437 909 c 0
 437 961 394 997 348 997 c 0
EndSplineSet
Validated: 1
Layer: 2
SplineSet
489 1284 m 0,0,1
 676 1284 676 1284 790 1171 c 128,-1,2
 904 1058 904 1058 904 893 c 0,3,4
 904 830 904 830 887 775.5 c 128,-1,5
 870 721 870 721 846 682.5 c 128,-1,6
 822 644 822 644 798.5 607.5 c 128,-1,7
 775 571 775 571 758 528.5 c 128,-1,8
 741 486 741 486 741 440 c 2,9,-1
 741 220 l 1,10,-1
 1035 220 l 1,11,-1
 1035 1254 l 1,12,-1
 1255 1254 l 1,13,-1
 1255 0 l 1,14,-1
 411 0 l 1,15,-1
 411 220 l 1,16,-1
 521 220 l 1,17,-1
 521 441 l 2,18,19
 521 506 521 506 538 559.5 c 128,-1,20
 555 613 555 613 579.5 649 c 128,-1,21
 604 685 604 685 628 718 c 128,-1,22
 652 751 652 751 669 791 c 128,-1,23
 686 831 686 831 686 876 c 0,24,25
 686 1036 686 1036 552 1089 c 1,26,27
 622 1004 622 1004 622 907 c 0,28,29
 622 792 622 792 541.5 712.5 c 128,-1,30
 461 633 461 633 348 633 c 0,31,32
 233 633 233 633 153.5 713.5 c 128,-1,33
 74 794 74 794 74 907 c 0,34,35
 74 1012 74 1012 138 1100.5 c 128,-1,36
 202 1189 202 1189 296.5 1236.5 c 128,-1,37
 391 1284 391 1284 489 1284 c 0,0,1
348 997 m 0,38,39
 311 997 311 997 284 970.5 c 128,-1,40
 257 944 257 944 257 909 c 0,41,42
 257 870 257 870 283.5 845.5 c 128,-1,43
 310 821 310 821 351 821 c 0,44,45
 389 821 389 821 413 847.5 c 128,-1,46
 437 874 437 874 437 909 c 0,47,48
 437 947 437 947 410.5 972 c 128,-1,49
 384 997 384 997 348 997 c 0,38,39
EndSplineSet
EndChar

StartChar: uni0E03
Encoding: 3587 3587 126
Width: 1542
VWidth: 2045
Flags: W
HStem: 0 220<531 641 861 1165> 488 190<306.086 463.995> 854 184<317.277 457.64> 1254 10G<292 415.955 669.409 792 1165 1385>
VStem: 52 243<691.66 992> 475 187<688.483 841.129> 641 220<220 530.353> 818 214<721.579 1029.41> 1165 220<220 1254>
LayerCount: 3
Fore
SplineSet
641 385 m 2xfa80
 641 592 818 703 818 870 c 0
 818 982 785 1045 696 1096 c 1
 541 1020 l 1
 385 1093 l 1
 340 1084 318 1066 317 1038 c 1
 610 1038 662 868 662 766 c 0
 662 609 525 488 388 488 c 0
 303 488 52 560 52 880 c 0
 52 1104 206 1239 378 1284 c 1
 545 1196 l 1
 706 1284 l 1
 878 1233 1032 1092 1032 864 c 0xfd80
 1032 585 861 590 861 365 c 2
 861 220 l 1
 1165 220 l 1
 1165 1254 l 1
 1385 1254 l 1
 1385 0 l 1
 531 0 l 1
 531 220 l 1
 641 220 l 1
 641 385 l 2xfa80
386 854 m 0
 336 854 295 813 295 766 c 0
 295 713 335 678 389 678 c 0
 442 678 475 721 475 766 c 0
 475 818 432 854 386 854 c 0
EndSplineSet
Validated: 1
Layer: 2
SplineSet
641 385 m 2,0,1
 641 442 641 442 659 497.5 c 128,-1,2
 677 553 677 553 703.5 598 c 128,-1,3
 730 643 730 643 756 686 c 128,-1,4
 782 729 782 729 800 776.5 c 128,-1,5
 818 824 818 824 818 870 c 0,6,7
 818 954 818 954 790 1006 c 128,-1,8
 762 1058 762 1058 696 1096 c 1,9,-1
 541 1020 l 1,10,-1
 385 1093 l 1,11,12
 318 1080 318 1080 317 1038 c 1,13,14
 401 1038 401 1038 465 1019 c 128,-1,15
 529 1000 529 1000 565.5 972 c 128,-1,16
 602 944 602 944 624.5 905.5 c 128,-1,17
 647 867 647 867 654.5 834 c 128,-1,18
 662 801 662 801 662 766 c 0,19,20
 662 651 662 651 578 569.5 c 128,-1,21
 494 488 494 488 388 488 c 0,22,23
 358 488 358 488 320 497.5 c 128,-1,24
 282 507 282 507 233.5 534.5 c 128,-1,25
 185 562 185 562 145.5 603.5 c 128,-1,26
 106 645 106 645 79 717 c 128,-1,27
 52 789 52 789 52 880 c 0,28,29
 52 1039 52 1039 145 1143 c 128,-1,30
 238 1247 238 1247 378 1284 c 1,31,-1
 545 1196 l 1,32,-1
 706 1284 l 1,33,34
 846 1242 846 1242 939 1133.5 c 128,-1,35
 1032 1025 1032 1025 1032 864 c 0,36,37
 1032 787 1032 787 1014.5 728 c 128,-1,38
 997 669 997 669 971.5 631.5 c 128,-1,39
 946 594 946 594 921 559 c 128,-1,40
 896 524 896 524 878.5 475.5 c 128,-1,41
 861 427 861 427 861 365 c 2,42,-1
 861 220 l 1,43,-1
 1165 220 l 1,44,-1
 1165 1254 l 1,45,-1
 1385 1254 l 1,46,-1
 1385 0 l 1,47,-1
 531 0 l 1,48,-1
 531 220 l 1,49,-1
 641 220 l 1,50,-1
 641 385 l 2,0,1
386 854 m 0,51,52
 349 854 349 854 322 827.5 c 128,-1,53
 295 801 295 801 295 766 c 0,54,55
 295 727 295 727 321.5 702.5 c 128,-1,56
 348 678 348 678 389 678 c 0,57,58
 427 678 427 678 451 704.5 c 128,-1,59
 475 731 475 731 475 766 c 0,60,61
 475 804 475 804 448.5 829 c 128,-1,62
 422 854 422 854 386 854 c 0,51,52
EndSplineSet
EndChar

StartChar: uni0E04
Encoding: 3588 3588 127
Width: 1460
VWidth: 2045
Flags: W
HStem: 0 21G<141 369.049 1083 1303> 330 185<642.066 795.61> 693 185<640.918 797.068> 1064 220<550.606 891.132>
VStem: 141 220<452 866.835> 809 185<527.25 679.768> 1083 220<0 868.25>
LayerCount: 3
Fore
SplineSet
720 693 m 0
 669 693 629 652 629 605 c 0
 629 559 665 515 720 515 c 0
 776 515 809 560 809 605 c 0
 809 652 772 693 720 693 c 0
994 604 m 0
 994 449 870 330 720 330 c 0
 645 330 580 357 526 410 c 9
 361 0 l 17
 141 0 l 1
 141 702 l 2
 141 1039 414 1284 723 1284 c 0
 1031 1284 1303 1043 1303 702 c 2
 1303 0 l 1
 1083 0 l 1
 1083 700 l 2
 1083 909 916 1064 721 1064 c 0
 516 1064 361 899 361 702 c 2
 361 452 l 1
 474 726 l 2
 488 760 565 878 720 878 c 0
 875 878 994 754 994 604 c 0
EndSplineSet
Validated: 1
Layer: 2
SplineSet
720 693 m 128,-1,1
 682 693 682 693 655.5 667 c 128,-1,2
 629 641 629 641 629 605 c 128,-1,3
 629 569 629 569 654.5 542 c 128,-1,4
 680 515 680 515 720 515 c 128,-1,5
 760 515 760 515 784.5 542 c 128,-1,6
 809 569 809 569 809 605 c 128,-1,7
 809 641 809 641 783.5 667 c 128,-1,0
 758 693 758 693 720 693 c 128,-1,1
994 604 m 0,8,9
 994 489 994 489 913.5 409.5 c 128,-1,10
 833 330 833 330 720 330 c 0,11,12
 608 330 608 330 526 410 c 1,13,-1
 361 0 l 1,14,-1
 141 0 l 1,15,-1
 141 702 l 2,16,17
 141 825 141 825 188.5 934.5 c 128,-1,18
 236 1044 236 1044 316 1120 c 128,-1,19
 396 1196 396 1196 502 1240 c 128,-1,20
 608 1284 608 1284 723 1284 c 0,21,22
 877 1284 877 1284 1009 1210.5 c 128,-1,23
 1141 1137 1141 1137 1222 1002.5 c 128,-1,24
 1303 868 1303 868 1303 702 c 2,25,-1
 1303 0 l 1,26,-1
 1083 0 l 1,27,-1
 1083 700 l 2,28,29
 1083 855 1083 855 976.5 959.5 c 128,-1,30
 870 1064 870 1064 721 1064 c 0,31,32
 569 1064 569 1064 465 957.5 c 128,-1,33
 361 851 361 851 361 702 c 2,34,-1
 361 452 l 1,35,-1
 474 726 l 2,36,37
 481 743 481 743 497.5 765 c 128,-1,38
 514 787 514 787 543 814 c 128,-1,39
 572 841 572 841 619 859.5 c 128,-1,40
 666 878 666 878 720 878 c 0,41,42
 835 878 835 878 914.5 797.5 c 128,-1,43
 994 717 994 717 994 604 c 0,8,9
EndSplineSet
EndChar

StartChar: uni0E05
Encoding: 3589 3589 128
Width: 1452
VWidth: 2045
Flags: W
HStem: 0 21G<141 369.049 1083 1303> 330 185<642.299 795.776> 693 185<644.013 796.967> 1264 20G<348.5 506.067 954.133 1102>
VStem: 141 220<452 960.432> 809 185<527.149 679.796> 1083 220<0 959.997>
LayerCount: 3
Fore
SplineSet
720 693 m 0
 670 693 629 652 629 605 c 0
 629 557 667 515 720 515 c 0
 773 515 809 559 809 605 c 0
 809 657 766 693 720 693 c 0
994 604 m 0
 994 449 870 330 720 330 c 0
 645 330 580 357 526 410 c 9
 361 0 l 17
 141 0 l 1
 141 782 l 2
 141 1010 226 1239 471 1284 c 1
 734 1134 l 1
 988 1284 l 1
 1216 1204 1303 1069 1303 782 c 2
 1303 0 l 1
 1083 0 l 1
 1083 780 l 2
 1083 925 1037 1010 946 1036 c 1
 724 917 l 1
 506 1036 l 1
 409 1013 361 929 361 782 c 2
 361 452 l 1
 474 726 l 2
 488 760 565 878 720 878 c 0
 875 878 994 754 994 604 c 0
EndSplineSet
Validated: 1
Layer: 2
SplineSet
720 693 m 0,0,1
 683 693 683 693 656 666.5 c 128,-1,2
 629 640 629 640 629 605 c 0,3,4
 629 568 629 568 655 541.5 c 128,-1,5
 681 515 681 515 720 515 c 0,6,7
 758 515 758 515 783.5 542 c 128,-1,8
 809 569 809 569 809 605 c 0,9,10
 809 643 809 643 782.5 668 c 128,-1,11
 756 693 756 693 720 693 c 0,0,1
994 604 m 0,12,13
 994 489 994 489 913.5 409.5 c 128,-1,14
 833 330 833 330 720 330 c 0,15,16
 608 330 608 330 526 410 c 1,17,-1
 361 0 l 1,18,-1
 141 0 l 1,19,-1
 141 782 l 2,20,21
 141 872 141 872 158.5 951.5 c 128,-1,22
 176 1031 176 1031 213.5 1101 c 128,-1,23
 251 1171 251 1171 317 1219.5 c 128,-1,24
 383 1268 383 1268 471 1284 c 1,25,-1
 734 1134 l 1,26,-1
 988 1284 l 1,27,28
 1160 1224 1160 1224 1231.5 1110.5 c 128,-1,29
 1303 997 1303 997 1303 782 c 2,30,-1
 1303 0 l 1,31,-1
 1083 0 l 1,32,-1
 1083 780 l 2,33,34
 1083 997 1083 997 946 1036 c 1,35,-1
 724 917 l 1,36,-1
 506 1036 l 1,37,38
 361 1002 361 1002 361 782 c 2,39,-1
 361 452 l 1,40,-1
 474 726 l 2,41,42
 481 743 481 743 497.5 765 c 128,-1,43
 514 787 514 787 543 814 c 128,-1,44
 572 841 572 841 619 859.5 c 128,-1,45
 666 878 666 878 720 878 c 0,46,47
 835 878 835 878 914.5 797.5 c 128,-1,48
 994 717 994 717 994 604 c 0,12,13
EndSplineSet
EndChar

StartChar: uni0E06
Encoding: 3590 3590 129
Width: 1623
VWidth: 2045
Flags: W
HStem: -20 186<506.625 657.549> 0 21G<1219.45 1470> 344 188<503.408 659.444> 559 159<268.212 422.624> 894 150<304.835 423.072> 1254 10G<291 425.955 679.409 797 1250 1470>
VStem: 55 200<730.812 881.204> 308 183<180.508 328.114> 435 167<729.499 880.103> 671 220<177.81 235 522 579.241> 829 220<773.041 1045.99> 1250 220<226 1254>
DStem2: 891 448 891 235 0.836682 -0.547689<116.658 421.956>
LayerCount: 3
Fore
SplineSet
582 344 m 0xbf50
 531 344 491 303 491 256 c 0
 491 210 527 166 582 166 c 0
 638 166 671 211 671 256 c 0
 671 303 634 344 582 344 c 0xbf50
308 254 m 0
 308 435 456 532 582 532 c 0
 626 532 657 529 675 522 c 1
 675 662 829 774 829 898 c 0
 829 1075 708 1105 706 1106 c 1
 551 1030 l 1
 395 1103 l 1
 344 1088 314 1066 304 1036 c 1
 325 1042 345 1044 365 1044 c 0
 461 1044 602 968 602 820 c 0
 602 718 550 559 343 559 c 0
 160 559 55 695 55 848 c 0
 55 1091 194 1235 388 1284 c 1
 555 1196 l 1
 716 1284 l 1
 878 1250 1049 1088 1049 881 c 0xbeb0
 1049 612 891 618 891 448 c 9
 1250 226 l 1
 1250 1254 l 1
 1470 1254 l 1
 1470 0 l 25
 1250 0 l 25x7e50
 891 235 l 17
 891 112 785 -20 598 -20 c 0
 414 -20 308 112 308 254 c 0
346 894 m 0
 296 894 255 853 255 806 c 0
 255 753 295 718 349 718 c 0
 402 718 435 761 435 806 c 0
 435 858 392 894 346 894 c 0
EndSplineSet
Validated: 1
Layer: 2
SplineSet
582 344 m 128,-1,1
 544 344 544 344 517.5 318 c 128,-1,2
 491 292 491 292 491 256 c 128,-1,3
 491 220 491 220 516.5 193 c 128,-1,4
 542 166 542 166 582 166 c 128,-1,5
 622 166 622 166 646.5 193 c 128,-1,6
 671 220 671 220 671 256 c 128,-1,7
 671 292 671 292 645.5 318 c 128,-1,0
 620 344 620 344 582 344 c 128,-1,1
308 254 m 0,8,9
 308 381 308 381 393 456.5 c 128,-1,10
 478 532 478 532 582 532 c 0,11,12
 649 532 649 532 675 522 c 1,13,14
 675 569 675 569 699 622.5 c 128,-1,15
 723 676 723 676 752 716 c 128,-1,16
 781 756 781 756 805 806.5 c 128,-1,17
 829 857 829 857 829 898 c 0,18,19
 829 946 829 946 817 984 c 128,-1,20
 805 1022 805 1022 789.5 1043.5 c 128,-1,21
 774 1065 774 1065 754.5 1079.5 c 128,-1,22
 735 1094 735 1094 724 1099 c 128,-1,23
 713 1104 713 1104 706.925348504 1105.69246301 c 2,24,-1
 706 1106 l 1,25,-1
 551 1030 l 1,26,-1
 395 1103 l 1,27,28
 319 1081 319 1081 304 1036 c 1,29,30
 332 1044 332 1044 365 1044 c 0,31,32
 416 1044 416 1044 469 1020 c 128,-1,33
 522 996 522 996 562 942.5 c 128,-1,34
 602 889 602 889 602 820 c 0,35,36
 602 787 602 787 595 753.5 c 128,-1,37
 588 720 588 720 570 684 c 128,-1,38
 552 648 552 648 524 621 c 128,-1,39
 496 594 496 594 449 576.5 c 128,-1,40
 402 559 402 559 343 559 c 0,41,42
 211 559 211 559 133 643.5 c 128,-1,43
 55 728 55 728 55 848 c 0,44,45
 55 1024 55 1024 145.5 1135 c 128,-1,46
 236 1246 236 1246 388 1284 c 1,47,-1
 555 1196 l 1,48,-1
 716 1284 l 1,49,50
 777 1271 777 1271 836.5 1235 c 128,-1,51
 896 1199 896 1199 943.5 1147.5 c 128,-1,52
 991 1096 991 1096 1020 1026 c 128,-1,53
 1049 956 1049 956 1049 881 c 0,54,55
 1049 807 1049 807 1032.5 750.5 c 128,-1,56
 1016 694 1016 694 993 660.5 c 128,-1,57
 970 627 970 627 947 597.5 c 128,-1,58
 924 568 924 568 907.5 531 c 128,-1,59
 891 494 891 494 891 448 c 1,60,-1
 1250 226 l 1,61,-1
 1250 1254 l 1,62,-1
 1470 1254 l 1,63,-1
 1470 0 l 1,64,-1
 1250 0 l 1,65,-1
 891 235 l 1,66,67
 891 135 891 135 811 57.5 c 128,-1,68
 731 -20 731 -20 598 -20 c 0,69,70
 466 -20 466 -20 387 61 c 128,-1,71
 308 142 308 142 308 254 c 0,8,9
346 894 m 0,72,73
 309 894 309 894 282 867.5 c 128,-1,74
 255 841 255 841 255 806 c 0,75,76
 255 767 255 767 281.5 742.5 c 128,-1,77
 308 718 308 718 349 718 c 0,78,79
 387 718 387 718 411 744.5 c 128,-1,80
 435 771 435 771 435 806 c 0,81,82
 435 844 435 844 408.5 869 c 128,-1,83
 382 894 382 894 346 894 c 0,72,73
EndSplineSet
EndChar

StartChar: uni0E07
Encoding: 3591 3591 130
Width: 1081
VWidth: 2045
Flags: W
HStem: 0 21G<684 924> 736 185<572.613 703.199> 1099 185<573.285 726.967>
VStem: 376 183<934.376 1086.1> 704 220<262 741> 739 185<932.609 1084.54>
DStem2: 240 728 108 596 0.707107 -0.707107<0 657.609>
LayerCount: 3
Fore
SplineSet
650 1284 m 0xf8
 805 1284 924 1160 924 1010 c 10
 924 0 l 1xf4
 704 0 l 9
 108 596 l 1
 240 728 l 1
 704 262 l 25
 704 741 l 1
 687 738 669 736 650 736 c 0
 495 736 376 860 376 1010 c 0
 376 1165 500 1284 650 1284 c 0xf8
650 1099 m 0
 600 1099 559 1058 559 1011 c 0
 559 963 597 921 650 921 c 0
 703 921 739 965 739 1011 c 0
 739 1063 696 1099 650 1099 c 0
EndSplineSet
Validated: 1
Layer: 2
SplineSet
650 1284 m 0,0,1
 765 1284 765 1284 844.5 1203.5 c 128,-1,2
 924 1123 924 1123 924 1010 c 2,3,-1
 924 0 l 1,4,-1
 704 0 l 1,5,-1
 108 596 l 1,6,-1
 240 728 l 1,7,-1
 704 262 l 1,8,-1
 704 741 l 1,9,10
 676 736 676 736 650 736 c 0,11,12
 535 736 535 736 455.5 816.5 c 128,-1,13
 376 897 376 897 376 1010 c 0,14,15
 376 1125 376 1125 456.5 1204.5 c 128,-1,16
 537 1284 537 1284 650 1284 c 0,0,1
650 1099 m 0,17,18
 613 1099 613 1099 586 1072.5 c 128,-1,19
 559 1046 559 1046 559 1011 c 0,20,21
 559 974 559 974 585 947.5 c 128,-1,22
 611 921 611 921 650 921 c 0,23,24
 688 921 688 921 713.5 948 c 128,-1,25
 739 975 739 975 739 1011 c 0,26,27
 739 1049 739 1049 712.5 1074 c 128,-1,28
 686 1099 686 1099 650 1099 c 0,17,18
EndSplineSet
EndChar

StartChar: uni0E08
Encoding: 3592 3592 131
Width: 1368
VWidth: 2045
Flags: W
HStem: 0 21G<844.289 1072.22> 352 185<562.381 716.141> 715 185<563.177 715.004> 1064 220<495.322 819.182>
VStem: 106 220<732 888.824> 366 183<550.593 702.099> 990 220<603.656 891.372>
LayerCount: 3
Fore
SplineSet
658 1064 m 0
 473 1064 326 916 326 732 c 9
 106 732 l 17
 106 1053 366 1284 658 1284 c 0
 979 1284 1210 1024 1210 732 c 0
 1210 691 1206 651 1197 612 c 10
 1068 0 l 1
 848 0 l 1
 776 388 l 17
 735 364 690 352 640 352 c 0
 485 352 366 476 366 626 c 0
 366 781 490 900 640 900 c 0
 789 900 887 790 909 678 c 10
 946 485 l 1
 983 661 l 18
 988 684 990 707 990 732 c 0
 990 917 842 1064 658 1064 c 0
640 715 m 0
 589 715 549 674 549 627 c 0
 549 581 585 537 640 537 c 0
 696 537 729 582 729 627 c 0
 729 674 692 715 640 715 c 0
EndSplineSet
Validated: 1
Layer: 2
SplineSet
658 1064 m 0,0,1
 519 1064 519 1064 422.5 967 c 128,-1,2
 326 870 326 870 326 732 c 1,3,-1
 106 732 l 1,4,5
 106 849 106 849 151.5 953 c 128,-1,6
 197 1057 197 1057 272.5 1129 c 128,-1,7
 348 1201 348 1201 448.5 1242.5 c 128,-1,8
 549 1284 549 1284 658 1284 c 0,9,10
 775 1284 775 1284 879 1238.5 c 128,-1,11
 983 1193 983 1193 1055 1117.5 c 128,-1,12
 1127 1042 1127 1042 1168.5 941.5 c 128,-1,13
 1210 841 1210 841 1210 732 c 0,14,15
 1210 668 1210 668 1197 612 c 2,16,-1
 1068 0 l 1,17,-1
 848 0 l 1,18,-1
 776 388 l 1,19,20
 714 352 714 352 640 352 c 0,21,22
 525 352 525 352 445.5 432.5 c 128,-1,23
 366 513 366 513 366 626 c 0,24,25
 366 741 366 741 446.5 820.5 c 128,-1,26
 527 900 527 900 640 900 c 0,27,28
 746 900 746 900 818.5 834 c 128,-1,29
 891 768 891 768 909 678 c 2,30,-1
 946 485 l 1,31,-1
 983 661 l 2,32,33
 990 693 990 693 990 732 c 0,34,35
 990 871 990 871 893 967.5 c 128,-1,36
 796 1064 796 1064 658 1064 c 0,0,1
640 715 m 128,-1,38
 602 715 602 715 575.5 689 c 128,-1,39
 549 663 549 663 549 627 c 128,-1,40
 549 591 549 591 574.5 564 c 128,-1,41
 600 537 600 537 640 537 c 128,-1,42
 680 537 680 537 704.5 564 c 128,-1,43
 729 591 729 591 729 627 c 128,-1,44
 729 663 729 663 703.5 689 c 128,-1,37
 678 715 678 715 640 715 c 128,-1,38
EndSplineSet
EndChar

StartChar: uni0E09
Encoding: 3593 3593 132
Width: 1466
VWidth: 2045
Flags: W
HStem: -20 186<1021.11 1175.61> 0 21G<405 651.898> 254 185<272.613 404.552> 617 185<273.285 426.967> 1064 220<492.448 823.032>
VStem: 76 183<452.376 604.099> 439 185<450.609 602.542> 992 220<507 892.662> 1189 185<177.75 331.543>
LayerCount: 3
Fore
SplineSet
658 1064 m 0x7f
 473 1064 378 925 350 859 c 9
 147 942 l 17
 222 1124 406 1284 658 1284 c 0
 968 1284 1212 1033 1212 732 c 2
 1212 505 l 17x7f
 1266 480 1374 405 1374 254 c 0
 1374 99 1250 -20 1100 -20 c 0xbe80
 946 -20 867 94 843 157 c 9
 624 0 l 9
 405 0 l 25
 405 259 l 1
 388 256 369 254 350 254 c 0
 195 254 76 378 76 528 c 0
 76 683 200 802 350 802 c 0
 505 802 624 678 624 528 c 2
 624 240 l 17
 992 507 l 9
 992 729 l 2
 992 923 837 1064 658 1064 c 0x7f
1100 344 m 0
 1049 344 1009 303 1009 256 c 0
 1009 210 1045 166 1100 166 c 0
 1156 166 1189 211 1189 256 c 0xbe80
 1189 303 1152 344 1100 344 c 0
350 617 m 0
 300 617 259 576 259 529 c 0
 259 481 297 439 350 439 c 0
 403 439 439 483 439 529 c 0
 439 581 396 617 350 617 c 0
EndSplineSet
Validated: 1
Layer: 2
SplineSet
658 1064 m 0,0,1
 593 1064 593 1064 537 1042 c 128,-1,2
 481 1020 481 1020 444 985.5 c 128,-1,3
 407 951 407 951 385 920 c 128,-1,4
 363 889 363 889 350 859 c 1,5,-1
 147 942 l 1,6,7
 207 1088 207 1088 342.5 1186 c 128,-1,8
 478 1284 478 1284 658 1284 c 0,9,10
 810 1284 810 1284 938 1209 c 128,-1,11
 1066 1134 1066 1134 1139 1007.5 c 128,-1,12
 1212 881 1212 881 1212 732 c 2,13,-1
 1212 505 l 1,14,15
 1236 494 1236 494 1260.5 475.5 c 128,-1,16
 1285 457 1285 457 1312.5 427.5 c 128,-1,17
 1340 398 1340 398 1357 352.5 c 128,-1,18
 1374 307 1374 307 1374 254 c 0,19,20
 1374 139 1374 139 1293.5 59.5 c 128,-1,21
 1213 -20 1213 -20 1100 -20 c 0,22,23
 1056 -20 1056 -20 1016.5 -7.5 c 128,-1,24
 977 5 977 5 949.5 24 c 128,-1,25
 922 43 922 43 899.5 67.5 c 128,-1,26
 877 92 877 92 864 114 c 128,-1,27
 851 136 851 136 843 157 c 1,28,-1
 624 0 l 1,29,-1
 405 0 l 1,30,-1
 405 259 l 1,31,32
 377 254 377 254 350 254 c 0,33,34
 235 254 235 254 155.5 334.5 c 128,-1,35
 76 415 76 415 76 528 c 0,36,37
 76 643 76 643 156.5 722.5 c 128,-1,38
 237 802 237 802 350 802 c 0,39,40
 465 802 465 802 544.5 721.5 c 128,-1,41
 624 641 624 641 624 528 c 2,42,-1
 624 240 l 1,43,-1
 992 507 l 1,44,-1
 992 729 l 2,45,46
 992 872 992 872 893.5 968 c 128,-1,47
 795 1064 795 1064 658 1064 c 0,0,1
1100 344 m 128,-1,49
 1062 344 1062 344 1035.5 318 c 128,-1,50
 1009 292 1009 292 1009 256 c 128,-1,51
 1009 220 1009 220 1034.5 193 c 128,-1,52
 1060 166 1060 166 1100 166 c 128,-1,53
 1140 166 1140 166 1164.5 193 c 128,-1,54
 1189 220 1189 220 1189 256 c 128,-1,55
 1189 292 1189 292 1163.5 318 c 128,-1,48
 1138 344 1138 344 1100 344 c 128,-1,49
350 617 m 0,56,57
 313 617 313 617 286 590.5 c 128,-1,58
 259 564 259 564 259 529 c 0,59,60
 259 492 259 492 285 465.5 c 128,-1,61
 311 439 311 439 350 439 c 0,62,63
 388 439 388 439 413.5 466 c 128,-1,64
 439 493 439 493 439 529 c 0,65,66
 439 567 439 567 412.5 592 c 128,-1,67
 386 617 386 617 350 617 c 0,56,57
EndSplineSet
EndChar

StartChar: uni0E0A
Encoding: 3594 3594 133
Width: 1435
VWidth: 2045
Flags: W
HStem: 0 220<411 521 741 1035> 633 188<269.808 424.186> 997 287<297.325 580.542>
VStem: 74 183<832.587 980.709> 437 185<834.297 984.249> 521 220<220 580.266> 686 220<739.959 1021.11> 1035 220<220 751.312> 1142 220<1151.74 1368>
LayerCount: 3
Fore
SplineSet
489 1284 m 0xfa
 746 1284 906 1106 906 893 c 0xfa
 906 670 741 609 741 440 c 2
 741 220 l 1
 1035 220 l 1
 1035 704 l 18xf5
 1035 739 1010 756 960 756 c 1
 960 976 l 1
 1054 1025 1142 1189 1142 1368 c 1
 1362 1368 l 1xf080
 1362 1172 1288 1003 1188 879 c 1
 1232 829 1255 770 1255 702 c 2
 1255 0 l 1
 411 0 l 1
 411 220 l 1
 521 220 l 1
 521 441 l 2xf5
 521 664 686 714 686 876 c 0
 686 951 665 1044 552 1089 c 1
 599 1032 622 971 622 907 c 0
 622 752 498 633 348 633 c 0
 193 633 74 757 74 907 c 0
 74 1172 321 1284 489 1284 c 0xfa
348 997 m 0
 298 997 257 956 257 909 c 0
 257 856 297 821 351 821 c 0
 404 821 437 864 437 909 c 0
 437 961 394 997 348 997 c 0
EndSplineSet
Validated: 1
Layer: 2
SplineSet
489 1284 m 0,0,1
 677 1284 677 1284 791.5 1171 c 128,-1,2
 906 1058 906 1058 906 893 c 0,3,4
 906 831 906 831 889 777.5 c 128,-1,5
 872 724 872 724 848 685 c 128,-1,6
 824 646 824 646 799.5 609.5 c 128,-1,7
 775 573 775 573 758 529.5 c 128,-1,8
 741 486 741 486 741 440 c 2,9,-1
 741 220 l 1,10,-1
 1035 220 l 1,11,-1
 1035 704 l 2,12,13
 1035 756 1035 756 960 756 c 1,14,-1
 960 976 l 1,15,16
 1033 1014 1033 1014 1087.5 1126 c 128,-1,17
 1142 1238 1142 1238 1142 1368 c 1,18,-1
 1362 1368 l 1,19,20
 1362 1095 1362 1095 1188 879 c 1,21,22
 1255 803 1255 803 1255 702 c 2,23,-1
 1255 0 l 1,24,-1
 411 0 l 1,25,-1
 411 220 l 1,26,-1
 521 220 l 1,27,-1
 521 441 l 2,28,29
 521 503 521 503 538 555.5 c 128,-1,30
 555 608 555 608 579.5 645 c 128,-1,31
 604 682 604 682 628 716 c 128,-1,32
 652 750 652 750 669 791 c 128,-1,33
 686 832 686 832 686 876 c 0,34,35
 686 1036 686 1036 552 1089 c 1,36,37
 622 1004 622 1004 622 907 c 0,38,39
 622 792 622 792 541.5 712.5 c 128,-1,40
 461 633 461 633 348 633 c 0,41,42
 233 633 233 633 153.5 713.5 c 128,-1,43
 74 794 74 794 74 907 c 0,44,45
 74 983 74 983 101 1047.5 c 128,-1,46
 128 1112 128 1112 171.5 1154.5 c 128,-1,47
 215 1197 215 1197 270.5 1227 c 128,-1,48
 326 1257 326 1257 381.5 1270.5 c 128,-1,49
 437 1284 437 1284 489 1284 c 0,0,1
348 997 m 0,50,51
 311 997 311 997 284 970.5 c 128,-1,52
 257 944 257 944 257 909 c 0,53,54
 257 870 257 870 283.5 845.5 c 128,-1,55
 310 821 310 821 351 821 c 0,56,57
 389 821 389 821 413 847.5 c 128,-1,58
 437 874 437 874 437 909 c 0,59,60
 437 947 437 947 410.5 972 c 128,-1,61
 384 997 384 997 348 997 c 0,50,51
EndSplineSet
EndChar

StartChar: uni0E0B
Encoding: 3595 3595 134
Width: 1572
VWidth: 2045
Flags: W
HStem: 0 220<531 641 861 1155> 488 190<307.671 463.046> 854 184<317.277 457.64> 1264 20G<327 415.955 669.409 797>
VStem: 52 243<691.811 971> 475 187<689.19 841.129> 641 220<220 524.625> 815 220<718.966 1033.42> 1155 220<220 751.312> 1262 220<1151.74 1368>
LayerCount: 3
Fore
SplineSet
1035 866 m 0xfd
 1035 592 861 586 861 365 c 2
 861 220 l 1
 1155 220 l 1
 1155 704 l 18xfa80
 1155 739 1130 756 1080 756 c 1
 1080 976 l 1
 1174 1025 1262 1189 1262 1368 c 1
 1482 1368 l 1xf840
 1482 1172 1408 1003 1308 879 c 1
 1352 829 1375 770 1375 702 c 2
 1375 0 l 1
 531 0 l 1
 531 220 l 1
 641 220 l 1
 641 385 l 2xfa80
 641 592 815 703 815 870 c 0
 815 982 785 1045 696 1096 c 1
 541 1020 l 1
 385 1096 l 1
 340 1087 318 1066 317 1038 c 1
 610 1038 662 868 662 766 c 0
 662 613 530 488 381 488 c 0
 303 488 52 564 52 877 c 0
 52 1156 276 1266 378 1284 c 1
 545 1196 l 1
 706 1284 l 1
 888 1239 1035 1080 1035 866 c 0xfd
386 854 m 0
 336 854 295 813 295 766 c 0
 295 713 335 678 389 678 c 0
 442 678 475 721 475 766 c 0xfc
 475 818 432 854 386 854 c 0
EndSplineSet
Validated: 1
Layer: 2
SplineSet
1035 866 m 0,0,1
 1035 790 1035 790 1017 731 c 128,-1,2
 999 672 999 672 973.5 633.5 c 128,-1,3
 948 595 948 595 922.5 559 c 128,-1,4
 897 523 897 523 879 474.5 c 128,-1,5
 861 426 861 426 861 365 c 2,6,-1
 861 220 l 1,7,-1
 1155 220 l 1,8,-1
 1155 704 l 2,9,10
 1155 756 1155 756 1080 756 c 1,11,-1
 1080 976 l 1,12,13
 1153 1014 1153 1014 1207.5 1126 c 128,-1,14
 1262 1238 1262 1238 1262 1368 c 1,15,-1
 1482 1368 l 1,16,17
 1482 1095 1482 1095 1308 879 c 1,18,19
 1375 803 1375 803 1375 702 c 2,20,-1
 1375 0 l 1,21,-1
 531 0 l 1,22,-1
 531 220 l 1,23,-1
 641 220 l 1,24,-1
 641 385 l 2,25,26
 641 442 641 442 659 497.5 c 128,-1,27
 677 553 677 553 702.5 598 c 128,-1,28
 728 643 728 643 753.5 686 c 128,-1,29
 779 729 779 729 797 776.5 c 128,-1,30
 815 824 815 824 815 870 c 0,31,32
 815 955 815 955 788.5 1006.5 c 128,-1,33
 762 1058 762 1058 696 1096 c 1,34,-1
 541 1020 l 1,35,-1
 385 1096 l 1,36,37
 319 1083 319 1083 317 1038 c 1,38,39
 401 1038 401 1038 465 1019 c 128,-1,40
 529 1000 529 1000 565.5 972 c 128,-1,41
 602 944 602 944 624.5 905.5 c 128,-1,42
 647 867 647 867 654.5 834 c 128,-1,43
 662 801 662 801 662 766 c 0,44,45
 662 652 662 652 578 570 c 128,-1,46
 494 488 494 488 381 488 c 0,47,48
 354 488 354 488 316.5 498 c 128,-1,49
 279 508 279 508 231.5 535.5 c 128,-1,50
 184 563 184 563 145 604.5 c 128,-1,51
 106 646 106 646 79 717 c 128,-1,52
 52 788 52 788 52 877 c 0,53,54
 52 956 52 956 76.5 1024 c 128,-1,55
 101 1092 101 1092 137 1136 c 128,-1,56
 173 1180 173 1180 219.5 1213 c 128,-1,57
 266 1246 266 1246 305 1262 c 128,-1,58
 344 1278 344 1278 378 1284 c 1,59,-1
 545 1196 l 1,60,-1
 706 1284 l 1,61,62
 847 1249 847 1249 941 1135.5 c 128,-1,63
 1035 1022 1035 1022 1035 866 c 0,0,1
386 854 m 0,64,65
 349 854 349 854 322 827.5 c 128,-1,66
 295 801 295 801 295 766 c 0,67,68
 295 727 295 727 321.5 702.5 c 128,-1,69
 348 678 348 678 389 678 c 0,70,71
 427 678 427 678 451 704.5 c 128,-1,72
 475 731 475 731 475 766 c 0,73,74
 475 804 475 804 448.5 829 c 128,-1,75
 422 854 422 854 386 854 c 0,64,65
EndSplineSet
EndChar

StartChar: uni0E0C
Encoding: 3596 3596 135
Width: 1940
VWidth: 2045
Flags: W
HStem: -20 185<410.066 563.61 1022.38 1174.77> 0 21G<1527.16 1772> 343 185<436.296 565.068> 701 220<435 546> 1064 220<503.631 845.192> 1234 20G<1552 1772>
VStem: 215 220<523 701> 215 182<179.812 329.887> 577 185<177.25 329.768> 826 183<178.593 330.115> 1036 220<506.248 868.25> 1552 220<240 1254>
LayerCount: 3
Fore
SplineSet
1100 343 m 0xb0f0
 1049 343 1009 302 1009 255 c 0
 1009 209 1045 165 1100 165 c 0
 1156 165 1189 210 1189 255 c 0
 1189 302 1152 343 1100 343 c 0xb0f0
488 343 m 0
 437 343 397 302 397 255 c 0xb1f0
 397 209 433 165 488 165 c 0
 544 165 577 210 577 255 c 0
 577 302 540 343 488 343 c 0
1036 700 m 2
 1036 908 871 1064 675 1064 c 0
 504 1064 413 952 390 921 c 1
 546 921 l 1
 546 701 l 1
 435 701 l 1
 435 523 l 17xbaf0
 452 526 469 528 488 528 c 0
 643 528 762 404 762 254 c 0
 762 99 638 -20 488 -20 c 0
 331 -20 215 105 215 254 c 2xb9f0
 215 701 l 1
 95 701 l 1
 95 1022 350 1284 677 1284 c 0xbaf0
 985 1284 1256 1043 1256 702 c 2
 1256 474 l 17
 1552 240 l 9
 1552 1254 l 1
 1772 1254 l 1
 1772 0 l 25
 1552 0 l 17x76f0
 1357 157 l 1
 1333 94 1254 -20 1100 -20 c 0
 945 -20 826 104 826 254 c 0
 826 399 930 496 1036 521 c 1
 1036 700 l 2
EndSplineSet
Validated: 1
Layer: 2
SplineSet
1100 343 m 128,-1,1
 1062 343 1062 343 1035.5 317 c 128,-1,2
 1009 291 1009 291 1009 255 c 128,-1,3
 1009 219 1009 219 1034.5 192 c 128,-1,4
 1060 165 1060 165 1100 165 c 128,-1,5
 1140 165 1140 165 1164.5 192 c 128,-1,6
 1189 219 1189 219 1189 255 c 128,-1,7
 1189 291 1189 291 1163.5 317 c 128,-1,0
 1138 343 1138 343 1100 343 c 128,-1,1
488 343 m 128,-1,9
 450 343 450 343 423.5 317 c 128,-1,10
 397 291 397 291 397 255 c 128,-1,11
 397 219 397 219 422.5 192 c 128,-1,12
 448 165 448 165 488 165 c 128,-1,13
 528 165 528 165 552.5 192 c 128,-1,14
 577 219 577 219 577 255 c 128,-1,15
 577 291 577 291 551.5 317 c 128,-1,8
 526 343 526 343 488 343 c 128,-1,9
1036 700 m 2,16,17
 1036 854 1036 854 930 959 c 128,-1,18
 824 1064 824 1064 675 1064 c 0,19,20
 615 1064 615 1064 563 1047 c 128,-1,21
 511 1030 511 1030 475.5 1003 c 128,-1,22
 440 976 440 976 422 957.5 c 128,-1,23
 404 939 404 939 390 921 c 1,24,-1
 546 921 l 1,25,-1
 546 701 l 1,26,-1
 435 701 l 1,27,-1
 435 523 l 1,28,29
 463 528 463 528 488 528 c 0,30,31
 603 528 603 528 682.5 447.5 c 128,-1,32
 762 367 762 367 762 254 c 0,33,34
 762 139 762 139 681.5 59.5 c 128,-1,35
 601 -20 601 -20 488 -20 c 0,36,37
 372 -20 372 -20 293.5 60.5 c 128,-1,38
 215 141 215 141 215 254 c 2,39,-1
 215 701 l 1,40,-1
 95 701 l 1,41,42
 95 859 95 859 171.5 993 c 128,-1,43
 248 1127 248 1127 382.5 1205.5 c 128,-1,44
 517 1284 517 1284 677 1284 c 0,45,46
 831 1284 831 1284 963 1210.5 c 128,-1,47
 1095 1137 1095 1137 1175.5 1002.5 c 128,-1,48
 1256 868 1256 868 1256 702 c 2,49,-1
 1256 474 l 1,50,-1
 1552 240 l 1,51,-1
 1552 1254 l 1,52,-1
 1772 1254 l 1,53,-1
 1772 0 l 1,54,-1
 1552 0 l 1,55,-1
 1357 157 l 1,56,57
 1349 136 1349 136 1336 114 c 128,-1,58
 1323 92 1323 92 1300.5 67.5 c 128,-1,59
 1278 43 1278 43 1250.5 24 c 128,-1,60
 1223 5 1223 5 1183.5 -7.5 c 128,-1,61
 1144 -20 1144 -20 1100 -20 c 0,62,63
 985 -20 985 -20 905.5 60.5 c 128,-1,64
 826 141 826 141 826 254 c 0,65,66
 826 357 826 357 888 429 c 128,-1,67
 950 501 950 501 1036 521 c 1,68,-1
 1036 700 l 2,16,17
EndSplineSet
EndChar

StartChar: uni0E0D
Encoding: 3597 3597 136
Width: 1940
VWidth: 2045
Flags: W
HStem: -577 163<1301 1458.65> -207 134<1056.58 1211.48> -20 186<410.066 563.61> 0 220<1258 1552> 344 184<436.296 565.068> 701 220<435 546> 1064 220<503.631 847.337> 1234 20G<1552 1772>
VStem: 215 220<523 701> 215 182<179.812 330.887> 577 185<177.75 330.268> 911 133<-370.286 -221.616> 1038 220<220 864.928> 1225 134<-371.394 -221.214> 1552 220<220 1254>
LayerCount: 3
Fore
SplineSet
677 1284 m 0xeea2
 996 1284 1258 1032 1258 703 c 2
 1258 220 l 17
 1552 220 l 9
 1552 1254 l 1
 1772 1254 l 1xddaa
 1772 0 l 25
 1038 0 l 25
 1038 700 l 2
 1038 911 870 1064 675 1064 c 0
 504 1064 413 952 390 921 c 1
 546 921 l 1
 546 701 l 1
 435 701 l 1
 435 523 l 17xdeaa
 452 526 469 528 488 528 c 0
 643 528 762 404 762 254 c 0
 762 99 638 -20 488 -20 c 0
 331 -20 215 105 215 254 c 2xee62
 215 701 l 1
 95 701 l 1
 95 1022 350 1284 677 1284 c 0xeea2
488 344 m 0
 437 344 397 303 397 256 c 0
 397 210 433 166 488 166 c 0xec62
 544 166 577 211 577 256 c 0
 577 303 540 344 488 344 c 0
1359 -282 m 0xcc36
 1359 -343 1337 -388 1301 -414 c 1
 1488 -414 1570 -275 1621 -154 c 1
 1764 -249 l 1
 1669 -451 1524 -577 1267 -577 c 0
 1026 -577 911 -447 911 -301 c 0
 911 -165 1008 -73 1135 -73 c 0
 1256 -73 1359 -172 1359 -282 c 0xcc36
1134 -207 m 0
 1082 -207 1044 -249 1044 -296 c 0
 1044 -343 1082 -385 1134 -385 c 0
 1184 -385 1225 -343 1225 -296 c 0
 1225 -245 1180 -207 1134 -207 c 0
EndSplineSet
Validated: 1
Layer: 2
SplineSet
677 1284 m 0,0,1
 835 1284 835 1284 968 1208 c 128,-1,2
 1101 1132 1101 1132 1179.5 998 c 128,-1,3
 1258 864 1258 864 1258 703 c 2,4,-1
 1258 220 l 1,5,-1
 1552 220 l 1,6,-1
 1552 1254 l 1,7,-1
 1772 1254 l 1,8,-1
 1772 0 l 1,9,-1
 1038 0 l 1,10,-1
 1038 700 l 2,11,12
 1038 856 1038 856 931 960 c 128,-1,13
 824 1064 824 1064 675 1064 c 0,14,15
 615 1064 615 1064 563 1047 c 128,-1,16
 511 1030 511 1030 475.5 1003 c 128,-1,17
 440 976 440 976 422 957.5 c 128,-1,18
 404 939 404 939 390 921 c 1,19,-1
 546 921 l 1,20,-1
 546 701 l 1,21,-1
 435 701 l 1,22,-1
 435 523 l 1,23,24
 463 528 463 528 488 528 c 0,25,26
 603 528 603 528 682.5 447.5 c 128,-1,27
 762 367 762 367 762 254 c 0,28,29
 762 139 762 139 681.5 59.5 c 128,-1,30
 601 -20 601 -20 488 -20 c 0,31,32
 372 -20 372 -20 293.5 60.5 c 128,-1,33
 215 141 215 141 215 254 c 2,34,-1
 215 701 l 1,35,-1
 95 701 l 1,36,37
 95 859 95 859 171.5 993 c 128,-1,38
 248 1127 248 1127 382.5 1205.5 c 128,-1,39
 517 1284 517 1284 677 1284 c 0,0,1
488 344 m 128,-1,41
 450 344 450 344 423.5 318 c 128,-1,42
 397 292 397 292 397 256 c 128,-1,43
 397 220 397 220 422.5 193 c 128,-1,44
 448 166 448 166 488 166 c 128,-1,45
 528 166 528 166 552.5 193 c 128,-1,46
 577 220 577 220 577 256 c 128,-1,47
 577 292 577 292 551.5 318 c 128,-1,40
 526 344 526 344 488 344 c 128,-1,41
1359 -282 m 0,48,49
 1359 -372 1359 -372 1301 -414 c 1,50,51
 1368 -414 1368 -414 1422 -391.5 c 128,-1,52
 1476 -369 1476 -369 1513.5 -328 c 128,-1,53
 1551 -287 1551 -287 1575 -247 c 128,-1,54
 1599 -207 1599 -207 1621 -154 c 1,55,-1
 1764 -249 l 1,56,57
 1689 -409 1689 -409 1570 -493 c 128,-1,58
 1451 -577 1451 -577 1267 -577 c 0,59,60
 1095 -577 1095 -577 1003 -497.5 c 128,-1,61
 911 -418 911 -418 911 -301 c 0,62,63
 911 -200 911 -200 975 -136.5 c 128,-1,64
 1039 -73 1039 -73 1135 -73 c 0,65,66
 1225 -73 1225 -73 1292 -136 c 128,-1,67
 1359 -199 1359 -199 1359 -282 c 0,48,49
1134 -207 m 0,68,69
 1096 -207 1096 -207 1070 -233.5 c 128,-1,70
 1044 -260 1044 -260 1044 -296 c 128,-1,71
 1044 -332 1044 -332 1070 -358.5 c 128,-1,72
 1096 -385 1096 -385 1134 -385 c 0,73,74
 1171 -385 1171 -385 1198 -358.5 c 128,-1,75
 1225 -332 1225 -332 1225 -296 c 0,76,77
 1225 -259 1225 -259 1197.5 -233 c 128,-1,78
 1170 -207 1170 -207 1134 -207 c 0,68,69
EndSplineSet
Substitution2: "'ccmp' Pali-Sanskrit Descender Removal" uni0E0D.descless
Substitution2: "Thai Descender Removal Single Substitution" uni0E0D.descless
EndChar

StartChar: uni0E0E
Encoding: 3598 3598 137
Width: 1493
VWidth: 2045
Flags: W
HStem: -626 185<444.613 602.887> -263 185<445.285 602.755> -20 186<240.506 394.464> 344 184<240.817 368.704> 701 220<590 701> 1064 220<568.484 910.132>
VStem: 43 185<178.634 331.064> 248 183<-427.624 -275.901> 370 220<523 701> 408 182<179.458 330.887> 1102 220<-277 868.25>
DStem2: 585 -415 716 -546 0.699805 0.714334<-61.8377 88.6161 275.086 411.069>
AnchorPoint: "BelowBase" 1176 -661 basechar 0
LayerCount: 3
Fore
SplineSet
742 1284 m 0xfea0
 1050 1284 1322 1043 1322 702 c 2
 1322 -321 l 25
 969 -668 l 1
 779 -481 l 25
 716 -546 l 2
 663 -600 597 -626 522 -626 c 0
 367 -626 248 -502 248 -352 c 0xff20
 248 -197 372 -78 522 -78 c 0
 597 -78 662 -105 716 -158 c 2
 777 -218 l 25
 873 -120 l 1
 1005 -251 l 1
 909 -349 l 17
 969 -408 l 17
 1102 -277 l 25
 1102 700 l 2
 1102 909 935 1064 740 1064 c 0
 569 1064 477 951 455 921 c 1
 701 921 l 1
 701 701 l 1
 590 701 l 1xfea0
 590 254 l 2xfe60
 590 104 472 -20 317 -20 c 0
 162 -20 43 104 43 254 c 0
 43 409 167 528 317 528 c 0
 336 528 353 526 370 523 c 9
 370 701 l 1
 160 701 l 1
 160 1022 415 1284 742 1284 c 0xfea0
431 -351 m 0
 431 -399 469 -441 522 -441 c 0
 547 -441 568 -432 585 -415 c 2
 647 -351 l 25
 585 -289 l 2
 568 -272 547 -263 522 -263 c 0
 472 -263 431 -304 431 -351 c 0
317 166 m 0
 371 166 408 209 408 256 c 0xfe60
 408 303 368 344 317 344 c 0
 270 344 228 307 228 256 c 0
 228 211 261 166 317 166 c 0
EndSplineSet
Validated: 1
Layer: 2
SplineSet
742 1284 m 0,0,1
 896 1284 896 1284 1028 1210.5 c 128,-1,2
 1160 1137 1160 1137 1241 1002.5 c 128,-1,3
 1322 868 1322 868 1322 702 c 2,4,-1
 1322 -321 l 1,5,-1
 969 -668 l 1,6,-1
 779 -481 l 1,7,-1
 716 -546 l 2,8,9
 637 -626 637 -626 522 -626 c 128,-1,10
 407 -626 407 -626 327.5 -545.5 c 128,-1,11
 248 -465 248 -465 248 -352 c 0,12,13
 248 -237 248 -237 328.5 -157.5 c 128,-1,14
 409 -78 409 -78 522 -78 c 0,15,16
 634 -78 634 -78 716 -158 c 2,17,-1
 777 -218 l 1,18,-1
 873 -120 l 1,19,-1
 1005 -251 l 1,20,-1
 909 -349 l 1,21,-1
 969 -408 l 1,22,-1
 1102 -277 l 1,23,-1
 1102 700 l 2,24,25
 1102 855 1102 855 995.5 959.5 c 128,-1,26
 889 1064 889 1064 740 1064 c 0,27,28
 692 1064 692 1064 647 1051.5 c 128,-1,29
 602 1039 602 1039 572 1022.5 c 128,-1,30
 542 1006 542 1006 515.5 983.5 c 128,-1,31
 489 961 489 961 477 947.5 c 128,-1,32
 465 934 465 934 455 921 c 1,33,-1
 701 921 l 1,34,-1
 701 701 l 1,35,-1
 590 701 l 1,36,-1
 590 254 l 2,37,38
 590 141 590 141 511 60.5 c 128,-1,39
 432 -20 432 -20 317 -20 c 128,-1,40
 202 -20 202 -20 122.5 60.5 c 128,-1,41
 43 141 43 141 43 254 c 0,42,43
 43 369 43 369 123.5 448.5 c 128,-1,44
 204 528 204 528 317 528 c 0,45,46
 342 528 342 528 370 523 c 1,47,-1
 370 701 l 1,48,-1
 160 701 l 1,49,50
 160 859 160 859 236.5 993 c 128,-1,51
 313 1127 313 1127 447.5 1205.5 c 128,-1,52
 582 1284 582 1284 742 1284 c 0,0,1
431 -351 m 0,53,54
 431 -388 431 -388 457 -414.5 c 128,-1,55
 483 -441 483 -441 522 -441 c 0,56,57
 559 -441 559 -441 585 -415 c 2,58,-1
 647 -351 l 1,59,-1
 585 -289 l 2,60,61
 559 -263 559 -263 522 -263 c 128,-1,62
 485 -263 485 -263 458 -289.5 c 128,-1,63
 431 -316 431 -316 431 -351 c 0,53,54
317 166 m 0,64,65
 356 166 356 166 382 193 c 128,-1,66
 408 220 408 220 408 256 c 128,-1,67
 408 292 408 292 381.5 318 c 128,-1,68
 355 344 355 344 317 344 c 0,69,70
 281 344 281 344 254.5 318.5 c 128,-1,71
 228 293 228 293 228 256 c 0,72,73
 228 220 228 220 252.5 193 c 128,-1,74
 277 166 277 166 317 166 c 0,64,65
EndSplineSet
EndChar

StartChar: uni0E0F
Encoding: 3599 3599 138
Width: 1493
VWidth: 2045
Flags: W
HStem: -610 185<247.613 405.729> -247 185<248.303 405.597> -20 185<240.506 394.464> 343 185<240.817 368.704> 701 220<590 701> 1064 220<568.484 910.132>
VStem: 51 183<-411.624 -259.901 173.347 332.064> 370 220<523 701> 408 182<179.458 329.887> 1102 220<-277 868.25>
AnchorPoint: "BelowBase" 1065 -661 basechar 0
LayerCount: 3
Fore
SplineSet
51 -336 m 0xff40
 51 -181 175 -62 325 -62 c 0
 400 -62 464 -90 518 -142 c 2
 580 -202 l 25
 646 -134 l 1
 778 -265 l 1
 712 -333 l 17
 750 -371 l 25
 882 -241 l 9
 1009 -368 l 1
 1102 -277 l 25
 1102 700 l 2
 1102 909 935 1064 740 1064 c 0
 569 1064 477 951 455 921 c 1
 701 921 l 1
 701 701 l 1
 590 701 l 1xff40
 590 254 l 2xfec0
 590 104 472 -20 317 -20 c 0
 162 -20 43 104 43 254 c 0
 43 409 167 528 317 528 c 0
 336 528 353 526 370 523 c 9
 370 701 l 1
 160 701 l 1
 160 1022 415 1284 742 1284 c 0
 1050 1284 1322 1043 1322 702 c 2
 1322 -321 l 25
 1009 -628 l 1
 883 -501 l 17
 750 -634 l 25
 582 -465 l 9
 518 -530 l 2
 465 -583 400 -610 325 -610 c 0
 170 -610 51 -486 51 -336 c 0xff40
234 -335 m 0
 234 -383 272 -425 325 -425 c 0
 350 -425 371 -416 388 -399 c 2
 450 -335 l 25
 388 -273 l 2
 371 -256 350 -247 326 -247 c 0
 275 -247 234 -288 234 -335 c 0
317 165 m 0
 371 165 408 208 408 255 c 0xfec0
 408 302 368 343 317 343 c 0
 270 343 228 306 228 255 c 0
 228 210 261 165 317 165 c 0
EndSplineSet
Validated: 1
Layer: 2
SplineSet
51 -336 m 0,0,1
 51 -221 51 -221 131.5 -141.5 c 128,-1,2
 212 -62 212 -62 325 -62 c 0,3,4
 435 -62 435 -62 518 -142 c 2,5,-1
 580 -202 l 1,6,-1
 646 -134 l 1,7,-1
 778 -265 l 1,8,-1
 712 -333 l 1,9,-1
 750 -371 l 1,10,-1
 882 -241 l 1,11,-1
 1009 -368 l 1,12,-1
 1102 -277 l 1,13,-1
 1102 700 l 2,14,15
 1102 855 1102 855 995.5 959.5 c 128,-1,16
 889 1064 889 1064 740 1064 c 0,17,18
 692 1064 692 1064 647 1051.5 c 128,-1,19
 602 1039 602 1039 572 1022.5 c 128,-1,20
 542 1006 542 1006 515.5 983.5 c 128,-1,21
 489 961 489 961 477 947.5 c 128,-1,22
 465 934 465 934 455 921 c 1,23,-1
 701 921 l 1,24,-1
 701 701 l 1,25,-1
 590 701 l 1,26,-1
 590 254 l 2,27,28
 590 141 590 141 511 60.5 c 128,-1,29
 432 -20 432 -20 317 -20 c 128,-1,30
 202 -20 202 -20 122.5 60.5 c 128,-1,31
 43 141 43 141 43 254 c 0,32,33
 43 369 43 369 123.5 448.5 c 128,-1,34
 204 528 204 528 317 528 c 0,35,36
 342 528 342 528 370 523 c 1,37,-1
 370 701 l 1,38,-1
 160 701 l 1,39,40
 160 859 160 859 236.5 993 c 128,-1,41
 313 1127 313 1127 447.5 1205.5 c 128,-1,42
 582 1284 582 1284 742 1284 c 0,43,44
 896 1284 896 1284 1028 1210.5 c 128,-1,45
 1160 1137 1160 1137 1241 1002.5 c 128,-1,46
 1322 868 1322 868 1322 702 c 2,47,-1
 1322 -321 l 1,48,-1
 1009 -628 l 1,49,-1
 883 -501 l 1,50,-1
 750 -634 l 1,51,-1
 582 -465 l 1,52,-1
 518 -530 l 2,53,54
 438 -610 438 -610 325 -610 c 0,55,56
 210 -610 210 -610 130.5 -529.5 c 128,-1,57
 51 -449 51 -449 51 -336 c 0,0,1
234 -335 m 0,58,59
 234 -372 234 -372 260 -398.5 c 128,-1,60
 286 -425 286 -425 325 -425 c 0,61,62
 362 -425 362 -425 388 -399 c 2,63,-1
 450 -335 l 1,64,-1
 388 -273 l 2,65,66
 362 -247 362 -247 326 -247 c 0,67,68
 288 -247 288 -247 261 -273 c 128,-1,69
 234 -299 234 -299 234 -335 c 0,58,59
317 165 m 0,70,71
 356 165 356 165 382 192 c 128,-1,72
 408 219 408 219 408 255 c 128,-1,73
 408 291 408 291 381.5 317 c 128,-1,74
 355 343 355 343 317 343 c 0,75,76
 281 343 281 343 254.5 317.5 c 128,-1,77
 228 292 228 292 228 255 c 0,78,79
 228 219 228 219 252.5 192 c 128,-1,80
 277 165 277 165 317 165 c 0,70,71
EndSplineSet
EndChar

StartChar: uni0E10
Encoding: 3600 3600 139
Width: 1245
VWidth: 2045
Flags: W
HStem: -807 134<51.0592 203.021> -521 133<715.818 838.433> -494 134<50.5561 202.828> -210 134<716.701 869.465> 0 21G<691.958 920.888> 132 185<404.116 555.706> 495 185<403.177 555.554> 732 186<384 772.629> 1064 220<494.601 820.816>
VStem: -98 134<-659.602 -506.925> 206 183<330.239 482.099> 569 134<-373.115 -222.999> 795 216<544.727 717.719> 883 136<-375.988 -223.591>
LayerCount: 3
Fore
SplineSet
106 732 m 1x9ff8
 106 1053 366 1284 658 1284 c 0
 925 1284 1118 1104 1184 902 c 9
 980 818 l 17
 955 913 851 1064 658 1064 c 0
 494 1064 407 954 384 918 c 1
 737 918 l 2
 892 918 1011 794 1011 644 c 1
 918 0 l 1
 698 0 l 1
 640 192 l 17
 600 145 531 132 472 132 c 0
 330 132 206 254 206 406 c 0
 206 561 330 680 480 680 c 0
 649 680 736 540 759 458 c 10
 776 400 l 1
 793 601 l 18
 794 619 795 631 795 637 c 0
 795 641 784 732 704 732 c 2
 106 732 l 1x9ff8
480 495 m 0
 429 495 389 454 389 407 c 0
 389 361 425 317 480 317 c 0
 536 317 569 362 569 407 c 0
 569 454 532 495 480 495 c 0
793 -76 m 0
 922 -76 1019 -179 1019 -299 c 2
 1019 -603 l 25
 744 -875 l 1
 628 -760 l 1
 515 -873 l 1
 332 -695 l 1
 287 -740 l 2
 241 -785 188 -807 127 -807 c 0
 -1 -807 -98 -704 -98 -583 c 0
 -98 -463 -3 -360 127 -360 c 0xbff4
 188 -360 241 -382 285 -426 c 2
 332 -474 l 1
 439 -369 l 1
 550 -477 l 1
 444 -583 l 1
 515 -654 l 1
 628 -541 l 1
 744 -656 l 1
 839 -562 l 1
 839 -518 l 1
 824 -520 808 -521 793 -521 c 0xdff4
 669 -521 569 -423 569 -299 c 0
 569 -180 663 -76 793 -76 c 0
794 -210 m 0
 742 -210 703 -251 703 -298 c 0
 703 -345 742 -388 794 -388 c 0xdff4
 848 -388 883 -342 883 -298 c 0
 883 -251 846 -210 794 -210 c 0
126 -494 m 0xbff0
 74 -494 36 -536 36 -583 c 0
 36 -634 80 -673 126 -673 c 0
 173 -673 216 -635 216 -583 c 0
 216 -535 177 -494 126 -494 c 0xbff0
EndSplineSet
Validated: 1
Layer: 2
SplineSet
106 732 m 1,0,1
 106 849 106 849 151.5 953 c 128,-1,2
 197 1057 197 1057 272.5 1129 c 128,-1,3
 348 1201 348 1201 448.5 1242.5 c 128,-1,4
 549 1284 549 1284 658 1284 c 0,5,6
 849 1284 849 1284 990 1173.5 c 128,-1,7
 1131 1063 1131 1063 1184 902 c 1,8,-1
 980 818 l 1,9,10
 970 857 970 857 945.5 897 c 128,-1,11
 921 937 921 937 882.5 976 c 128,-1,12
 844 1015 844 1015 785 1039.5 c 128,-1,13
 726 1064 726 1064 658 1064 c 0,14,15
 601 1064 601 1064 550.5 1047 c 128,-1,16
 500 1030 500 1030 466.5 1003.5 c 128,-1,17
 433 977 433 977 414.5 957 c 128,-1,18
 396 937 396 937 384 918 c 1,19,-1
 737 918 l 2,20,21
 852 918 852 918 931.5 837.5 c 128,-1,22
 1011 757 1011 757 1011 644 c 1,23,-1
 918 0 l 1,24,-1
 698 0 l 1,25,-1
 640 192 l 1,26,27
 589 132 589 132 472 132 c 0,28,29
 365 132 365 132 285.5 212.5 c 128,-1,30
 206 293 206 293 206 406 c 0,31,32
 206 521 206 521 286.5 600.5 c 128,-1,33
 367 680 367 680 480 680 c 0,34,35
 540 680 540 680 591 657.5 c 128,-1,36
 642 635 642 635 675 599 c 128,-1,37
 708 563 708 563 728.5 527.5 c 128,-1,38
 749 492 749 492 759 458 c 2,39,-1
 776 400 l 1,40,-1
 793 601 l 2,41,42
 793 608 793 608 793.5 616.5 c 128,-1,43
 794 625 794 625 794.5 629.5 c 128,-1,44
 795 634 795 634 795 637 c 0,45,46
 795 646 795 646 790 664.5 c 128,-1,47
 785 683 785 683 762.5 707.5 c 128,-1,48
 740 732 740 732 704 732 c 2,49,-1
 106 732 l 1,0,1
480 495 m 128,-1,51
 442 495 442 495 415.5 469 c 128,-1,52
 389 443 389 443 389 407 c 128,-1,53
 389 371 389 371 414.5 344 c 128,-1,54
 440 317 440 317 480 317 c 128,-1,55
 520 317 520 317 544.5 344 c 128,-1,56
 569 371 569 371 569 407 c 128,-1,57
 569 443 569 443 543.5 469 c 128,-1,50
 518 495 518 495 480 495 c 128,-1,51
793 -76 m 0,58,59
 888 -76 888 -76 953.5 -142 c 128,-1,60
 1019 -208 1019 -208 1019 -299 c 2,61,-1
 1019 -603 l 1,62,-1
 744 -875 l 1,63,-1
 628 -760 l 1,64,-1
 515 -873 l 1,65,-1
 332 -695 l 1,66,-1
 287 -740 l 2,67,68
 219 -807 219 -807 127 -807 c 0,69,70
 32 -807 32 -807 -33 -741 c 128,-1,71
 -98 -675 -98 -675 -98 -583 c 128,-1,72
 -98 -491 -98 -491 -33.5 -425.5 c 128,-1,73
 31 -360 31 -360 127 -360 c 0,74,75
 219 -360 219 -360 285 -426 c 2,76,-1
 332 -474 l 1,77,-1
 439 -369 l 1,78,-1
 550 -477 l 1,79,-1
 444 -583 l 1,80,-1
 515 -654 l 1,81,-1
 628 -541 l 1,82,-1
 744 -656 l 1,83,-1
 839 -562 l 1,84,-1
 839 -518 l 1,85,86
 817 -521 817 -521 793 -521 c 0,87,88
 700 -521 700 -521 634.5 -456.5 c 128,-1,89
 569 -392 569 -392 569 -299 c 0,90,91
 569 -208 569 -208 633 -142 c 128,-1,92
 697 -76 697 -76 793 -76 c 0,58,59
794 -210 m 128,-1,94
 756 -210 756 -210 729.5 -236 c 128,-1,95
 703 -262 703 -262 703 -298 c 128,-1,96
 703 -334 703 -334 729.5 -361 c 128,-1,97
 756 -388 756 -388 794 -388 c 0,98,99
 833 -388 833 -388 858 -360.5 c 128,-1,100
 883 -333 883 -333 883 -298 c 0,101,102
 883 -262 883 -262 857.5 -236 c 128,-1,93
 832 -210 832 -210 794 -210 c 128,-1,94
126 -494 m 128,-1,104
 88 -494 88 -494 62 -520.5 c 128,-1,105
 36 -547 36 -547 36 -583 c 0,106,107
 36 -620 36 -620 63.5 -646.5 c 128,-1,108
 91 -673 91 -673 126 -673 c 0,109,110
 162 -673 162 -673 189 -647 c 128,-1,111
 216 -621 216 -621 216 -583 c 0,112,113
 216 -547 216 -547 190 -520.5 c 128,-1,103
 164 -494 164 -494 126 -494 c 128,-1,104
EndSplineSet
Substitution2: "'ccmp' Pali-Sanskrit Descender Removal" uni0E10.descless
Substitution2: "Thai Descender Removal Single Substitution" uni0E10.descless
EndChar

StartChar: uni0E11
Encoding: 3601 3601 140
Width: 1835
VWidth: 2045
Flags: W
HStem: 0 21G<641 966 1431 1651> 492 185<308.062 461.734> 853 185<317.277 457.64> 1021 263<1307.53 1428.23>
VStem: 52 243<692.118 988.5> 475 187<689.201 840.629> 641 220<264 530.801> 815 220<706.51 1031.01> 1431 220<0 1011.2>
LayerCount: 3
Fore
SplineSet
1035 899 m 0xdd80
 1035 663 861 584 861 365 c 2
 861 264 l 17
 1209 948 1041 817 1189 1158 c 16
 1225 1241 1292 1284 1391 1284 c 0
 1547 1284 1651 1211 1651 991 c 10
 1651 0 l 1
 1431 0 l 1
 1431 961 l 2
 1431 1000 1412 1021 1373 1021 c 0
 1336 1021 1308 998 1299 946 c 0
 1266 767 1046 182 886 0 c 9
 641 0 l 25
 641 383 l 2xda80
 641 552 815 661 815 870 c 0
 815 982 785 1045 696 1096 c 1
 541 1020 l 1
 385 1096 l 1
 340 1087 318 1066 317 1038 c 1xe980
 610 1038 662 868 662 766 c 0
 662 615 533 492 386 492 c 0
 299 492 52 566 52 877 c 0
 52 1100 207 1253 378 1284 c 1
 545 1196 l 1
 706 1284 l 1
 858 1250 1035 1091 1035 899 c 0xdd80
386 853 m 0xec80
 336 853 295 812 295 765 c 0
 295 713 335 677 389 677 c 0
 442 677 475 720 475 765 c 0
 475 817 432 853 386 853 c 0xec80
EndSplineSet
Validated: 1
Layer: 2
SplineSet
1035 899 m 0,0,1
 1035 834 1035 834 1017 775 c 128,-1,2
 999 716 999 716 973.5 670.5 c 128,-1,3
 948 625 948 625 922.5 580.5 c 128,-1,4
 897 536 897 536 879 480.5 c 128,-1,5
 861 425 861 425 861 365 c 2,6,-1
 861 264 l 1,7,8
 958 455 958 455 1013 584 c 128,-1,9
 1068 713 1068 713 1085 778.5 c 128,-1,10
 1102 844 1102 844 1108.5 890.5 c 128,-1,11
 1115 937 1115 937 1132.5 1002 c 128,-1,12
 1150 1067 1150 1067 1189 1158 c 0,13,14
 1244 1284 1244 1284 1391 1284 c 0,15,16
 1516 1284 1516 1284 1583.5 1216 c 128,-1,17
 1651 1148 1651 1148 1651 991 c 2,18,-1
 1651 0 l 1,19,-1
 1431 0 l 1,20,-1
 1431 961 l 2,21,22
 1431 1021 1431 1021 1373 1021 c 0,23,24
 1312 1021 1312 1021 1299 946 c 0,25,26
 1270 788 1270 788 1133 456.5 c 128,-1,27
 996 125 996 125 886 0 c 1,28,-1
 641 0 l 1,29,-1
 641 383 l 2,30,31
 641 429 641 429 659 477 c 128,-1,32
 677 525 677 525 702.5 568 c 128,-1,33
 728 611 728 611 753.5 656 c 128,-1,34
 779 701 779 701 797 756.5 c 128,-1,35
 815 812 815 812 815 870 c 0,36,37
 815 955 815 955 788.5 1006.5 c 128,-1,38
 762 1058 762 1058 696 1096 c 1,39,-1
 541 1020 l 1,40,-1
 385 1096 l 1,41,42
 319 1083 319 1083 317 1038 c 1,43,44
 401 1038 401 1038 465 1019 c 128,-1,45
 529 1000 529 1000 565.5 972 c 128,-1,46
 602 944 602 944 624.5 905.5 c 128,-1,47
 647 867 647 867 654.5 834 c 128,-1,48
 662 801 662 801 662 766 c 0,49,50
 662 654 662 654 579.5 573 c 128,-1,51
 497 492 497 492 386 492 c 0,52,53
 362 492 362 492 331 499.5 c 128,-1,54
 300 507 300 507 261 522.5 c 128,-1,55
 222 538 222 538 186 568 c 128,-1,56
 150 598 150 598 119.5 638.5 c 128,-1,57
 89 679 89 679 70.5 741 c 128,-1,58
 52 803 52 803 52 877 c 0,59,60
 52 1037 52 1037 147.5 1148 c 128,-1,61
 243 1259 243 1259 378 1284 c 1,62,-1
 545 1196 l 1,63,-1
 706 1284 l 1,64,65
 829 1256 829 1256 932 1145.5 c 128,-1,66
 1035 1035 1035 1035 1035 899 c 0,0,1
386 853 m 0,67,68
 349 853 349 853 322 826.5 c 128,-1,69
 295 800 295 800 295 765 c 0,70,71
 295 726 295 726 321.5 701.5 c 128,-1,72
 348 677 348 677 389 677 c 0,73,74
 427 677 427 677 451 703.5 c 128,-1,75
 475 730 475 730 475 765 c 0,76,77
 475 803 475 803 448.5 828 c 128,-1,78
 422 853 422 853 386 853 c 0,67,68
EndSplineSet
EndChar

StartChar: uni0E12
Encoding: 3602 3602 141
Width: 1987
VWidth: 2045
Flags: W
HStem: -20 186<1067.38 1219.77> 0 21G<141 516.5 1572.16 1817> 706 185<602.239 757.05> 1254 10G<359.5 506.067 954.133 1102.5 1597 1817>
VStem: 141 220<242 964.781> 405 184<541.078 691.839> 769 184<540.588 694.289> 871 183<179.093 330.843> 1081 220<506.611 968.244> 1597 220<240 1254>
LayerCount: 3
Fore
SplineSet
1145 344 m 0xbdc0
 1094 344 1054 303 1054 256 c 0
 1054 210 1090 166 1145 166 c 0
 1201 166 1234 211 1234 256 c 0
 1234 307 1192 344 1145 344 c 0xbdc0
871 254 m 0
 871 400 978 497 1081 521 c 1
 1081 779 l 2
 1081 925 1036 1011 946 1036 c 1
 724 917 l 1
 506 1036 l 1
 409 1013 361 929 361 782 c 2
 361 242 l 9
 536 392 l 1
 415 460 405 586 405 632 c 0
 405 776 544 891 679 891 c 0
 819 891 953 774 953 618 c 0
 953 414 672 207 361 0 c 1
 141 0 l 1
 141 782 l 2
 141 1043 248 1243 471 1284 c 1
 734 1134 l 1
 988 1284 l 1
 1217 1203 1301 1070 1301 781 c 2
 1301 474 l 17
 1597 240 l 9
 1597 1254 l 1
 1817 1254 l 1
 1817 0 l 25
 1597 0 l 17x7ec0
 1402 157 l 1
 1378 94 1299 -20 1145 -20 c 0
 990 -20 871 104 871 254 c 0
680 706 m 0
 629 706 589 665 589 618 c 0
 589 572 625 528 680 528 c 0
 736 528 769 573 769 618 c 0
 769 665 732 706 680 706 c 0
EndSplineSet
Validated: 1
Layer: 2
SplineSet
1145 344 m 0,0,1
 1107 344 1107 344 1080.5 318 c 128,-1,2
 1054 292 1054 292 1054 256 c 128,-1,3
 1054 220 1054 220 1079.5 193 c 128,-1,4
 1105 166 1105 166 1145 166 c 128,-1,5
 1185 166 1185 166 1209.5 193 c 128,-1,6
 1234 220 1234 220 1234 256 c 0,7,8
 1234 293 1234 293 1207.5 318.5 c 128,-1,9
 1181 344 1181 344 1145 344 c 0,0,1
871 254 m 0,10,11
 871 357 871 357 934 429 c 128,-1,12
 997 501 997 501 1081 521 c 1,13,-1
 1081 779 l 2,14,15
 1081 998 1081 998 946 1036 c 1,16,-1
 724 917 l 1,17,-1
 506 1036 l 1,18,19
 361 1002 361 1002 361 782 c 2,20,-1
 361 242 l 1,21,-1
 536 392 l 1,22,23
 494 416 494 416 465 450.5 c 128,-1,24
 436 485 436 485 424.5 521.5 c 128,-1,25
 413 558 413 558 409 583 c 128,-1,26
 405 608 405 608 405 632 c 0,27,28
 405 737 405 737 490 814 c 128,-1,29
 575 891 575 891 679 891 c 0,30,31
 787 891 787 891 870 811.5 c 128,-1,32
 953 732 953 732 953 618 c 0,33,34
 953 568 953 568 932 516.5 c 128,-1,35
 911 465 911 465 868 412.5 c 128,-1,36
 825 360 825 360 775 311 c 128,-1,37
 725 262 725 262 651.5 206 c 128,-1,38
 578 150 578 150 513.5 104.5 c 128,-1,39
 449 59 449 59 361 0 c 1,40,-1
 141 0 l 1,41,-1
 141 782 l 2,42,43
 141 985 141 985 225 1119.5 c 128,-1,44
 309 1254 309 1254 471 1284 c 1,45,-1
 734 1134 l 1,46,-1
 988 1284 l 1,47,48
 1160 1223 1160 1223 1230.5 1110 c 128,-1,49
 1301 997 1301 997 1301 781 c 2,50,-1
 1301 474 l 1,51,-1
 1597 240 l 1,52,-1
 1597 1254 l 1,53,-1
 1817 1254 l 1,54,-1
 1817 0 l 1,55,-1
 1597 0 l 1,56,-1
 1402 157 l 1,57,58
 1394 136 1394 136 1381 114 c 128,-1,59
 1368 92 1368 92 1345.5 67.5 c 128,-1,60
 1323 43 1323 43 1295.5 24 c 128,-1,61
 1268 5 1268 5 1228.5 -7.5 c 128,-1,62
 1189 -20 1189 -20 1145 -20 c 0,63,64
 1030 -20 1030 -20 950.5 60.5 c 128,-1,65
 871 141 871 141 871 254 c 0,10,11
680 706 m 128,-1,67
 642 706 642 706 615.5 680 c 128,-1,68
 589 654 589 654 589 618 c 128,-1,69
 589 582 589 582 614.5 555 c 128,-1,70
 640 528 640 528 680 528 c 128,-1,71
 720 528 720 528 744.5 555 c 128,-1,72
 769 582 769 582 769 618 c 128,-1,73
 769 654 769 654 743.5 680 c 128,-1,66
 718 706 718 706 680 706 c 128,-1,67
EndSplineSet
EndChar

StartChar: uni0E13
Encoding: 3603 3603 142
Width: 2038
VWidth: 2045
Flags: W
HStem: -20 185<420.299 573.776 1643.84 1795.28> 0 21G<1047 1291.84> 343 185<445.615 574.967> 701 220<445 556> 1064 220<513.631 856.985> 1234 20G<1562 1782>
VStem: 225 220<523 701> 225 182<179.812 329.887> 587 185<177.149 329.796> 1047 220<240 868.604> 1562 220<506.611 1254> 1809 184<177.149 331.226>
LayerCount: 3
Fore
SplineSet
1720 343 m 0xb0f0
 1670 343 1629 302 1629 255 c 0
 1629 207 1667 165 1720 165 c 0
 1773 165 1809 209 1809 255 c 0
 1809 300 1773 343 1720 343 c 0xb0f0
498 343 m 0
 448 343 407 302 407 255 c 0xb1f0
 407 207 445 165 498 165 c 0
 551 165 587 209 587 255 c 0
 587 307 544 343 498 343 c 0
687 1284 m 0xbaf0
 994 1284 1267 1044 1267 702 c 2
 1267 240 l 1
 1562 474 l 1
 1562 1254 l 1
 1782 1254 l 9
 1782 521 l 17
 1885 497 1993 400 1993 254 c 0
 1993 99 1869 -20 1719 -20 c 0xb6f0
 1565 -20 1486 94 1462 157 c 1
 1267 0 l 9
 1047 0 l 25
 1047 700 l 18
 1047 916 872 1064 685 1064 c 0
 514 1064 423 952 400 921 c 1
 556 921 l 1
 556 701 l 1
 445 701 l 1
 445 523 l 17x7af0
 462 526 479 528 498 528 c 0
 653 528 772 404 772 254 c 0
 772 99 648 -20 498 -20 c 0
 341 -20 225 105 225 254 c 2xb9f0
 225 701 l 1
 105 701 l 1
 105 1022 360 1284 687 1284 c 0xbaf0
1832 -392 m 1024
EndSplineSet
Validated: 1
Layer: 2
SplineSet
1720 343 m 0,0,1
 1683 343 1683 343 1656 316.5 c 128,-1,2
 1629 290 1629 290 1629 255 c 0,3,4
 1629 218 1629 218 1655 191.5 c 128,-1,5
 1681 165 1681 165 1720 165 c 0,6,7
 1758 165 1758 165 1783.5 192 c 128,-1,8
 1809 219 1809 219 1809 255 c 0,9,10
 1809 290 1809 290 1783.5 316.5 c 128,-1,11
 1758 343 1758 343 1720 343 c 0,0,1
498 343 m 0,12,13
 461 343 461 343 434 316.5 c 128,-1,14
 407 290 407 290 407 255 c 0,15,16
 407 218 407 218 433 191.5 c 128,-1,17
 459 165 459 165 498 165 c 0,18,19
 536 165 536 165 561.5 192 c 128,-1,20
 587 219 587 219 587 255 c 0,21,22
 587 293 587 293 560.5 318 c 128,-1,23
 534 343 534 343 498 343 c 0,12,13
687 1284 m 0,24,25
 840 1284 840 1284 972.5 1211 c 128,-1,26
 1105 1138 1105 1138 1186 1003 c 128,-1,27
 1267 868 1267 868 1267 702 c 2,28,-1
 1267 240 l 1,29,-1
 1562 474 l 1,30,-1
 1562 1254 l 1,31,-1
 1782 1254 l 1,32,-1
 1782 521 l 1,33,34
 1866 501 1866 501 1929.5 429 c 128,-1,35
 1993 357 1993 357 1993 254 c 0,36,37
 1993 139 1993 139 1912.5 59.5 c 128,-1,38
 1832 -20 1832 -20 1719 -20 c 0,39,40
 1675 -20 1675 -20 1635.5 -7.5 c 128,-1,41
 1596 5 1596 5 1568.5 24 c 128,-1,42
 1541 43 1541 43 1518.5 67.5 c 128,-1,43
 1496 92 1496 92 1483 114 c 128,-1,44
 1470 136 1470 136 1462 157 c 1,45,-1
 1267 0 l 1,46,-1
 1047 0 l 1,47,-1
 1047 700 l 2,48,49
 1047 857 1047 857 938.5 960.5 c 128,-1,50
 830 1064 830 1064 685 1064 c 0,51,52
 625 1064 625 1064 573 1047 c 128,-1,53
 521 1030 521 1030 485.5 1003 c 128,-1,54
 450 976 450 976 432 957.5 c 128,-1,55
 414 939 414 939 400 921 c 1,56,-1
 556 921 l 1,57,-1
 556 701 l 1,58,-1
 445 701 l 1,59,-1
 445 523 l 1,60,61
 473 528 473 528 498 528 c 0,62,63
 613 528 613 528 692.5 447.5 c 128,-1,64
 772 367 772 367 772 254 c 0,65,66
 772 139 772 139 691.5 59.5 c 128,-1,67
 611 -20 611 -20 498 -20 c 0,68,69
 382 -20 382 -20 303.5 60.5 c 128,-1,70
 225 141 225 141 225 254 c 2,71,-1
 225 701 l 1,72,-1
 105 701 l 1,73,74
 105 859 105 859 181.5 993 c 128,-1,75
 258 1127 258 1127 392.5 1205.5 c 128,-1,76
 527 1284 527 1284 687 1284 c 0,24,25
1832 -392 m 1024,77,-1
EndSplineSet
EndChar

